M48
; DRILL file {KiCad 7.0.7} date Sat Apr  6 11:31:14 2024
; FORMAT={-:-/ absolute / metric / decimal}
; #@! TF.CreationDate,2024-04-06T11:31:14+09:00
; #@! TF.GenerationSoftware,Kicad,Pcbnew,7.0.7
; #@! TF.FileFunction,Plated,1,2,PTH
FMAT,2
METRIC
; #@! TA.AperFunction,Plated,PTH,ViaDrill
T1C0.400
; #@! TA.AperFunction,Plated,PTH,ComponentDrill
T2C0.500
; #@! TA.AperFunction,Plated,PTH,ComponentDrill
T3C0.750
; #@! TA.AperFunction,Plated,PTH,ComponentDrill
T4C0.800
; #@! TA.AperFunction,Plated,PTH,ComponentDrill
T5C0.900
; #@! TA.AperFunction,Plated,PTH,ComponentDrill
T6C1.100
%
G90
G05
T1
X64.5Y-48.5
X64.5Y-60.5
T2
X53.5Y-86.5
X54.5Y-86.5
X55.5Y-86.5
X56.5Y-86.5
X57.5Y-86.5
X58.5Y-86.5
X59.5Y-86.5
X60.5Y-86.5
X61.5Y-86.5
X62.5Y-86.5
T3
X64.231Y-68.36
X65.501Y-68.36
X66.771Y-68.36
X72.691Y-68.36
X73.961Y-68.36
X75.231Y-68.36
T4
X55.5Y-51.92
X55.5Y-62.08
X61.744Y-51.92
X61.744Y-62.08
X64.319Y-77.36
X66.819Y-77.36
X67.987Y-51.92
X67.987Y-62.08
X72.779Y-77.36
X74.231Y-51.92
X74.231Y-62.08
X75.279Y-77.36
T5
X56.231Y-66.735
X56.231Y-69.275
X56.231Y-75.955
X56.231Y-78.495
T6
X56.5Y-37.5
X76.5Y-37.5
T0
M30
