%TF.GenerationSoftware,KiCad,Pcbnew,7.0.7*%
%TF.CreationDate,2024-04-06T11:31:03+09:00*%
%TF.ProjectId,PCB_AstMul,5043425f-4173-4744-9d75-6c2e6b696361,rev?*%
%TF.SameCoordinates,Original*%
%TF.FileFunction,Legend,Top*%
%TF.FilePolarity,Positive*%
%FSLAX46Y46*%
G04 Gerber Fmt 4.6, Leading zero omitted, Abs format (unit mm)*
G04 Created by KiCad (PCBNEW 7.0.7) date 2024-04-06 11:31:03*
%MOMM*%
%LPD*%
G01*
G04 APERTURE LIST*
%ADD10C,0.150000*%
%ADD11C,0.254000*%
%ADD12C,0.120000*%
%ADD13C,0.100000*%
G04 APERTURE END LIST*
D10*
G36*
X52214410Y-21364515D02*
G01*
X51948674Y-21364515D01*
X51948674Y-22150000D01*
X51824842Y-22150000D01*
X51824842Y-21364515D01*
X51559106Y-21364515D01*
X51559106Y-21259002D01*
X52214410Y-21259002D01*
X52214410Y-21364515D01*
G37*
G36*
X52673316Y-21243494D02*
G01*
X52683864Y-21243866D01*
X52694237Y-21244486D01*
X52704437Y-21245355D01*
X52714464Y-21246471D01*
X52724316Y-21247835D01*
X52733995Y-21249448D01*
X52748188Y-21252331D01*
X52761991Y-21255773D01*
X52775402Y-21259773D01*
X52788423Y-21264331D01*
X52801054Y-21269447D01*
X52813293Y-21275122D01*
X52825146Y-21281268D01*
X52836618Y-21287890D01*
X52847706Y-21294989D01*
X52858413Y-21302565D01*
X52868738Y-21310617D01*
X52878681Y-21319145D01*
X52888241Y-21328151D01*
X52897420Y-21337633D01*
X52906216Y-21347591D01*
X52914630Y-21358026D01*
X52920027Y-21365247D01*
X52927848Y-21376466D01*
X52935283Y-21388139D01*
X52942331Y-21400268D01*
X52948993Y-21412852D01*
X52955269Y-21425891D01*
X52959237Y-21434836D01*
X52963035Y-21443984D01*
X52966660Y-21453334D01*
X52970114Y-21462886D01*
X52973396Y-21472640D01*
X52976506Y-21482597D01*
X52979445Y-21492756D01*
X52982212Y-21503117D01*
X52983531Y-21508374D01*
X52986074Y-21519020D01*
X52988454Y-21529833D01*
X52990669Y-21540811D01*
X52992720Y-21551956D01*
X52994607Y-21563266D01*
X52996330Y-21574743D01*
X52997889Y-21586385D01*
X52999284Y-21598194D01*
X53000515Y-21610168D01*
X53001582Y-21622309D01*
X53002484Y-21634616D01*
X53003223Y-21647088D01*
X53003797Y-21659727D01*
X53004207Y-21672531D01*
X53004453Y-21685502D01*
X53004535Y-21698639D01*
X53004424Y-21713622D01*
X53004089Y-21728349D01*
X53003531Y-21742817D01*
X53002749Y-21757028D01*
X53001745Y-21770981D01*
X53000517Y-21784677D01*
X52999066Y-21798115D01*
X52997391Y-21811296D01*
X52995494Y-21824219D01*
X52993373Y-21836884D01*
X52991029Y-21849292D01*
X52988461Y-21861442D01*
X52985671Y-21873334D01*
X52982657Y-21884969D01*
X52979419Y-21896347D01*
X52975959Y-21907466D01*
X52972338Y-21918338D01*
X52968559Y-21928971D01*
X52964622Y-21939366D01*
X52960526Y-21949522D01*
X52956272Y-21959440D01*
X52951859Y-21969119D01*
X52947288Y-21978559D01*
X52942559Y-21987761D01*
X52937671Y-21996725D01*
X52932625Y-22005450D01*
X52927421Y-22013936D01*
X52922058Y-22022184D01*
X52913716Y-22034109D01*
X52905019Y-22045497D01*
X52899023Y-22052791D01*
X52889809Y-22063249D01*
X52880304Y-22073193D01*
X52870506Y-22082621D01*
X52860417Y-22091534D01*
X52850036Y-22099932D01*
X52839362Y-22107814D01*
X52828397Y-22115182D01*
X52817140Y-22122034D01*
X52805591Y-22128371D01*
X52793750Y-22134192D01*
X52785694Y-22137787D01*
X52773491Y-22142763D01*
X52761156Y-22147250D01*
X52748687Y-22151247D01*
X52736086Y-22154755D01*
X52723351Y-22157773D01*
X52710483Y-22160302D01*
X52697482Y-22162341D01*
X52684348Y-22163891D01*
X52671081Y-22164951D01*
X52657681Y-22165522D01*
X52648674Y-22165631D01*
X52637953Y-22165509D01*
X52627405Y-22165143D01*
X52617032Y-22164532D01*
X52606832Y-22163677D01*
X52596805Y-22162578D01*
X52586953Y-22161235D01*
X52577274Y-22159647D01*
X52563081Y-22156808D01*
X52549278Y-22153419D01*
X52535867Y-22149480D01*
X52522846Y-22144993D01*
X52510215Y-22139955D01*
X52497976Y-22134368D01*
X52486125Y-22128264D01*
X52474660Y-22121674D01*
X52463582Y-22114599D01*
X52452890Y-22107039D01*
X52442585Y-22098994D01*
X52432666Y-22090464D01*
X52423133Y-22081449D01*
X52413987Y-22071949D01*
X52405227Y-22061963D01*
X52396854Y-22051492D01*
X52391486Y-22044242D01*
X52383752Y-22032934D01*
X52376396Y-22021176D01*
X52369418Y-22008966D01*
X52362818Y-21996306D01*
X52356595Y-21983195D01*
X52352657Y-21974204D01*
X52348887Y-21965012D01*
X52345284Y-21955620D01*
X52341849Y-21946028D01*
X52338583Y-21936235D01*
X52335484Y-21926242D01*
X52332553Y-21916049D01*
X52329790Y-21905655D01*
X52328471Y-21900383D01*
X52325987Y-21889675D01*
X52323663Y-21878798D01*
X52321499Y-21867754D01*
X52319495Y-21856542D01*
X52317652Y-21845162D01*
X52315969Y-21833613D01*
X52314446Y-21821897D01*
X52313084Y-21810013D01*
X52311882Y-21797962D01*
X52310840Y-21785742D01*
X52309958Y-21773354D01*
X52309237Y-21760799D01*
X52308676Y-21748075D01*
X52308275Y-21735184D01*
X52308035Y-21722124D01*
X52307955Y-21708897D01*
X52308008Y-21701814D01*
X52435205Y-21701814D01*
X52435253Y-21711743D01*
X52435396Y-21721563D01*
X52435790Y-21736090D01*
X52436398Y-21750371D01*
X52437221Y-21764408D01*
X52438258Y-21778201D01*
X52439511Y-21791748D01*
X52440978Y-21805051D01*
X52442659Y-21818109D01*
X52444555Y-21830923D01*
X52446666Y-21843492D01*
X52447418Y-21847627D01*
X52449875Y-21859785D01*
X52452578Y-21871621D01*
X52455525Y-21883135D01*
X52458718Y-21894327D01*
X52462154Y-21905197D01*
X52465836Y-21915745D01*
X52469762Y-21925971D01*
X52473933Y-21935875D01*
X52478349Y-21945457D01*
X52483009Y-21954717D01*
X52486252Y-21960711D01*
X52491335Y-21969365D01*
X52496693Y-21977650D01*
X52504265Y-21988122D01*
X52512325Y-21997937D01*
X52520874Y-22007096D01*
X52529911Y-22015599D01*
X52539436Y-22023445D01*
X52549450Y-22030635D01*
X52554640Y-22033984D01*
X52565406Y-22040109D01*
X52576698Y-22045418D01*
X52588517Y-22049910D01*
X52600863Y-22053585D01*
X52610468Y-22055805D01*
X52620369Y-22057566D01*
X52630566Y-22058868D01*
X52641060Y-22059710D01*
X52651850Y-22060093D01*
X52655512Y-22060118D01*
X52666224Y-22059873D01*
X52676653Y-22059139D01*
X52686798Y-22057916D01*
X52696660Y-22056203D01*
X52706238Y-22054000D01*
X52718569Y-22050302D01*
X52730395Y-22045734D01*
X52741718Y-22040296D01*
X52752537Y-22033987D01*
X52755163Y-22032274D01*
X52765433Y-22024943D01*
X52775237Y-22016994D01*
X52784576Y-22008426D01*
X52793449Y-21999241D01*
X52801856Y-21989437D01*
X52807856Y-21981678D01*
X52813594Y-21973571D01*
X52819070Y-21965117D01*
X52824284Y-21956315D01*
X52829243Y-21947197D01*
X52833953Y-21937796D01*
X52838414Y-21928112D01*
X52842625Y-21918144D01*
X52846588Y-21907893D01*
X52850302Y-21897359D01*
X52853767Y-21886541D01*
X52856982Y-21875440D01*
X52859949Y-21864056D01*
X52862667Y-21852388D01*
X52864340Y-21844452D01*
X52866697Y-21832330D01*
X52868822Y-21820054D01*
X52870716Y-21807624D01*
X52872377Y-21795038D01*
X52873807Y-21782299D01*
X52875005Y-21769404D01*
X52875971Y-21756355D01*
X52876705Y-21743152D01*
X52877207Y-21729794D01*
X52877478Y-21716281D01*
X52877529Y-21707187D01*
X52877481Y-21697348D01*
X52877231Y-21682786D01*
X52876766Y-21668459D01*
X52876086Y-21654369D01*
X52875192Y-21640516D01*
X52874083Y-21626898D01*
X52872759Y-21613516D01*
X52871220Y-21600371D01*
X52869467Y-21587461D01*
X52867499Y-21574788D01*
X52865317Y-21562351D01*
X52862942Y-21550147D01*
X52860305Y-21538266D01*
X52857407Y-21526706D01*
X52854246Y-21515468D01*
X52850823Y-21504552D01*
X52847139Y-21493958D01*
X52843193Y-21483687D01*
X52838985Y-21473737D01*
X52834515Y-21464109D01*
X52829783Y-21454803D01*
X52826482Y-21448778D01*
X52821353Y-21440037D01*
X52815949Y-21431674D01*
X52810271Y-21423688D01*
X52802272Y-21413628D01*
X52793784Y-21404240D01*
X52784808Y-21395524D01*
X52775344Y-21387479D01*
X52765391Y-21380106D01*
X52757606Y-21375017D01*
X52746768Y-21368892D01*
X52735380Y-21363583D01*
X52723442Y-21359092D01*
X52710956Y-21355416D01*
X52701230Y-21353196D01*
X52691195Y-21351435D01*
X52680851Y-21350134D01*
X52670198Y-21349291D01*
X52659235Y-21348908D01*
X52655512Y-21348883D01*
X52644846Y-21349130D01*
X52634464Y-21349870D01*
X52624364Y-21351105D01*
X52614548Y-21352833D01*
X52605016Y-21355055D01*
X52592746Y-21358785D01*
X52580981Y-21363393D01*
X52569719Y-21368879D01*
X52558961Y-21375243D01*
X52556350Y-21376971D01*
X52546198Y-21384245D01*
X52536505Y-21392144D01*
X52527270Y-21400670D01*
X52518492Y-21409822D01*
X52510173Y-21419599D01*
X52502311Y-21430002D01*
X52496715Y-21438215D01*
X52491377Y-21446780D01*
X52487962Y-21452686D01*
X52483088Y-21461808D01*
X52478451Y-21471222D01*
X52474049Y-21480928D01*
X52469884Y-21490925D01*
X52465955Y-21501215D01*
X52462262Y-21511797D01*
X52458805Y-21522670D01*
X52455584Y-21533836D01*
X52452600Y-21545293D01*
X52449851Y-21557043D01*
X52448150Y-21565038D01*
X52445837Y-21577155D01*
X52443751Y-21589418D01*
X52441893Y-21601827D01*
X52440262Y-21614383D01*
X52438859Y-21627084D01*
X52437683Y-21639931D01*
X52436735Y-21652924D01*
X52436014Y-21666063D01*
X52435521Y-21679348D01*
X52435256Y-21692779D01*
X52435205Y-21701814D01*
X52308008Y-21701814D01*
X52308065Y-21694091D01*
X52308394Y-21679531D01*
X52308942Y-21665217D01*
X52309710Y-21651149D01*
X52310698Y-21637327D01*
X52311905Y-21623752D01*
X52313331Y-21610422D01*
X52314977Y-21597339D01*
X52316842Y-21584502D01*
X52318927Y-21571911D01*
X52321231Y-21559566D01*
X52323754Y-21547468D01*
X52326497Y-21535615D01*
X52329460Y-21524009D01*
X52332641Y-21512649D01*
X52336043Y-21501535D01*
X52339663Y-21490664D01*
X52343439Y-21480034D01*
X52347371Y-21469644D01*
X52351461Y-21459494D01*
X52355706Y-21449585D01*
X52360108Y-21439917D01*
X52364667Y-21430489D01*
X52369382Y-21421301D01*
X52374253Y-21412354D01*
X52379281Y-21403647D01*
X52384466Y-21395180D01*
X52389807Y-21386954D01*
X52398111Y-21375066D01*
X52406768Y-21363719D01*
X52412735Y-21356454D01*
X52421988Y-21345952D01*
X52431520Y-21335970D01*
X52441331Y-21326506D01*
X52451421Y-21317563D01*
X52461790Y-21309138D01*
X52472438Y-21301234D01*
X52483365Y-21293848D01*
X52494572Y-21286983D01*
X52506057Y-21280636D01*
X52517821Y-21274810D01*
X52525819Y-21271214D01*
X52537978Y-21266238D01*
X52550274Y-21261751D01*
X52562708Y-21257754D01*
X52575279Y-21254246D01*
X52587987Y-21251228D01*
X52600833Y-21248700D01*
X52613816Y-21246660D01*
X52626936Y-21245110D01*
X52640194Y-21244050D01*
X52653589Y-21243479D01*
X52662595Y-21243370D01*
X52673316Y-21243494D01*
G37*
G36*
X53409541Y-21259150D02*
G01*
X53423616Y-21259594D01*
X53437305Y-21260335D01*
X53450607Y-21261372D01*
X53463523Y-21262705D01*
X53476052Y-21264334D01*
X53488195Y-21266259D01*
X53499952Y-21268481D01*
X53511322Y-21270999D01*
X53522305Y-21273814D01*
X53529413Y-21275854D01*
X53539814Y-21279132D01*
X53549858Y-21282646D01*
X53559546Y-21286397D01*
X53568878Y-21290383D01*
X53577853Y-21294605D01*
X53589265Y-21300603D01*
X53600045Y-21307020D01*
X53610190Y-21313857D01*
X53619702Y-21321113D01*
X53621981Y-21322993D01*
X53630717Y-21330759D01*
X53638849Y-21338915D01*
X53646379Y-21347459D01*
X53653306Y-21356393D01*
X53659629Y-21365717D01*
X53665350Y-21375429D01*
X53670467Y-21385531D01*
X53674982Y-21396022D01*
X53678932Y-21406849D01*
X53682355Y-21417958D01*
X53685252Y-21429350D01*
X53687622Y-21441024D01*
X53689465Y-21452980D01*
X53690782Y-21465219D01*
X53691571Y-21477740D01*
X53691835Y-21490544D01*
X53691640Y-21500737D01*
X53691056Y-21510801D01*
X53690083Y-21520735D01*
X53688721Y-21530539D01*
X53686969Y-21540213D01*
X53684828Y-21549757D01*
X53681605Y-21561506D01*
X53679378Y-21568457D01*
X53675194Y-21579745D01*
X53670424Y-21590711D01*
X53665071Y-21601355D01*
X53659133Y-21611677D01*
X53652611Y-21621677D01*
X53645504Y-21631355D01*
X53642498Y-21635136D01*
X53634649Y-21644257D01*
X53626216Y-21652996D01*
X53619049Y-21659713D01*
X53611508Y-21666185D01*
X53603593Y-21672413D01*
X53595305Y-21678397D01*
X53586642Y-21684137D01*
X53582170Y-21686915D01*
X53572969Y-21692178D01*
X53563439Y-21697097D01*
X53553582Y-21701673D01*
X53543396Y-21705905D01*
X53532882Y-21709794D01*
X53522040Y-21713339D01*
X53510870Y-21716541D01*
X53499371Y-21719399D01*
X53508656Y-21723006D01*
X53517583Y-21727230D01*
X53526150Y-21732073D01*
X53534359Y-21737534D01*
X53542209Y-21743614D01*
X53549701Y-21750311D01*
X53556833Y-21757627D01*
X53563607Y-21765561D01*
X53570221Y-21774087D01*
X53576873Y-21783299D01*
X53583563Y-21793199D01*
X53590291Y-21803785D01*
X53595362Y-21812176D01*
X53600455Y-21820953D01*
X53605569Y-21830116D01*
X53610704Y-21839666D01*
X53615861Y-21849602D01*
X53617585Y-21853000D01*
X53759734Y-22150000D01*
X53621737Y-22150000D01*
X53487648Y-21860816D01*
X53482898Y-21850716D01*
X53478112Y-21841176D01*
X53473290Y-21832197D01*
X53467457Y-21822162D01*
X53461572Y-21812935D01*
X53456629Y-21805861D01*
X53450673Y-21798027D01*
X53443485Y-21789691D01*
X53436040Y-21782219D01*
X53428338Y-21775613D01*
X53422679Y-21771423D01*
X53413413Y-21765424D01*
X53403689Y-21760371D01*
X53393507Y-21756265D01*
X53382868Y-21753105D01*
X53373207Y-21750916D01*
X53363032Y-21749265D01*
X53352343Y-21748151D01*
X53341140Y-21747575D01*
X53334508Y-21747487D01*
X53276866Y-21747487D01*
X53276866Y-22150000D01*
X53154501Y-22150000D01*
X53154501Y-21360607D01*
X53276866Y-21360607D01*
X53276866Y-21649790D01*
X53375785Y-21649790D01*
X53386459Y-21649641D01*
X53396866Y-21649195D01*
X53407006Y-21648451D01*
X53416878Y-21647409D01*
X53428844Y-21645688D01*
X53440392Y-21643502D01*
X53451522Y-21640851D01*
X53453698Y-21640265D01*
X53464286Y-21636985D01*
X53474373Y-21633252D01*
X53483959Y-21629066D01*
X53493044Y-21624427D01*
X53501628Y-21619335D01*
X53509712Y-21613789D01*
X53512805Y-21611444D01*
X53521569Y-21603916D01*
X53529543Y-21595805D01*
X53536727Y-21587109D01*
X53543121Y-21577830D01*
X53548726Y-21567967D01*
X53550418Y-21564549D01*
X53554983Y-21553816D01*
X53558066Y-21544426D01*
X53560493Y-21534630D01*
X53562264Y-21524428D01*
X53563379Y-21513821D01*
X53563838Y-21502809D01*
X53563852Y-21500558D01*
X53563457Y-21487682D01*
X53562272Y-21475433D01*
X53560297Y-21463811D01*
X53557532Y-21452816D01*
X53553977Y-21442448D01*
X53549632Y-21432706D01*
X53544497Y-21423591D01*
X53538572Y-21415103D01*
X53531858Y-21407242D01*
X53524353Y-21400008D01*
X53518911Y-21395533D01*
X53510160Y-21389292D01*
X53500762Y-21383664D01*
X53490714Y-21378650D01*
X53480019Y-21374250D01*
X53468675Y-21370464D01*
X53456683Y-21367292D01*
X53444043Y-21364734D01*
X53430754Y-21362790D01*
X53416818Y-21361459D01*
X53402232Y-21360743D01*
X53392149Y-21360607D01*
X53276866Y-21360607D01*
X53154501Y-21360607D01*
X53154501Y-21259002D01*
X53395080Y-21259002D01*
X53409541Y-21259150D01*
G37*
G36*
X54131472Y-21360607D02*
G01*
X53924842Y-21360607D01*
X53924842Y-21259002D01*
X54461933Y-21259002D01*
X54461933Y-21360607D01*
X54255303Y-21360607D01*
X54255303Y-22044487D01*
X54461933Y-22044487D01*
X54461933Y-22150000D01*
X53924842Y-22150000D01*
X53924842Y-22044487D01*
X54131472Y-22044487D01*
X54131472Y-21360607D01*
G37*
G36*
X55258897Y-22126552D02*
G01*
X55245392Y-22131284D01*
X55231805Y-22135711D01*
X55218136Y-22139833D01*
X55204385Y-22143649D01*
X55190552Y-22147160D01*
X55176637Y-22150366D01*
X55162639Y-22153266D01*
X55148560Y-22155861D01*
X55134399Y-22158151D01*
X55120156Y-22160136D01*
X55105830Y-22161815D01*
X55091423Y-22163189D01*
X55076933Y-22164257D01*
X55062362Y-22165020D01*
X55047708Y-22165478D01*
X55032972Y-22165631D01*
X55021167Y-22165520D01*
X55009534Y-22165186D01*
X54998073Y-22164631D01*
X54986784Y-22163853D01*
X54975667Y-22162852D01*
X54964723Y-22161630D01*
X54953950Y-22160185D01*
X54943350Y-22158517D01*
X54932923Y-22156628D01*
X54922667Y-22154516D01*
X54912584Y-22152182D01*
X54902673Y-22149626D01*
X54892934Y-22146847D01*
X54883367Y-22143846D01*
X54873972Y-22140622D01*
X54864750Y-22137177D01*
X54846822Y-22129619D01*
X54829583Y-22121171D01*
X54813033Y-22111835D01*
X54797171Y-22101609D01*
X54781998Y-22090494D01*
X54767515Y-22078490D01*
X54753720Y-22065596D01*
X54740614Y-22051814D01*
X54728280Y-22037130D01*
X54716743Y-22021593D01*
X54706001Y-22005203D01*
X54700928Y-21996688D01*
X54696055Y-21987960D01*
X54691380Y-21979018D01*
X54686904Y-21969864D01*
X54682627Y-21960496D01*
X54678549Y-21950915D01*
X54674670Y-21941121D01*
X54670990Y-21931113D01*
X54667509Y-21920892D01*
X54664227Y-21910458D01*
X54661143Y-21899811D01*
X54658259Y-21888951D01*
X54655573Y-21877877D01*
X54653087Y-21866590D01*
X54650799Y-21855090D01*
X54648711Y-21843376D01*
X54646821Y-21831450D01*
X54645130Y-21819310D01*
X54643638Y-21806957D01*
X54642345Y-21794391D01*
X54641251Y-21781611D01*
X54640356Y-21768618D01*
X54639659Y-21755412D01*
X54639162Y-21741993D01*
X54638864Y-21728360D01*
X54638764Y-21714515D01*
X54638874Y-21701071D01*
X54639203Y-21687789D01*
X54639752Y-21674670D01*
X54640520Y-21661712D01*
X54641507Y-21648917D01*
X54642714Y-21636284D01*
X54644141Y-21623814D01*
X54645786Y-21611505D01*
X54647652Y-21599359D01*
X54649736Y-21587375D01*
X54652040Y-21575553D01*
X54654564Y-21563893D01*
X54657307Y-21552395D01*
X54660269Y-21541060D01*
X54663451Y-21529887D01*
X54666852Y-21518876D01*
X54670458Y-21508050D01*
X54674252Y-21497432D01*
X54678235Y-21487022D01*
X54682407Y-21476820D01*
X54686769Y-21466826D01*
X54691319Y-21457041D01*
X54696057Y-21447463D01*
X54700985Y-21438093D01*
X54706102Y-21428931D01*
X54711407Y-21419977D01*
X54716902Y-21411231D01*
X54722585Y-21402693D01*
X54728458Y-21394363D01*
X54734519Y-21386241D01*
X54740769Y-21378327D01*
X54747208Y-21370621D01*
X54753827Y-21363098D01*
X54760615Y-21355794D01*
X54767573Y-21348710D01*
X54774701Y-21341846D01*
X54781998Y-21335201D01*
X54789466Y-21328775D01*
X54797103Y-21322569D01*
X54804911Y-21316582D01*
X54812888Y-21310814D01*
X54821034Y-21305267D01*
X54829351Y-21299938D01*
X54837838Y-21294829D01*
X54846494Y-21289939D01*
X54855320Y-21285269D01*
X54864316Y-21280818D01*
X54873482Y-21276587D01*
X54882833Y-21272565D01*
X54892323Y-21268802D01*
X54901952Y-21265298D01*
X54911721Y-21262055D01*
X54921629Y-21259070D01*
X54931676Y-21256345D01*
X54941863Y-21253880D01*
X54952189Y-21251674D01*
X54962654Y-21249728D01*
X54973259Y-21248041D01*
X54984003Y-21246614D01*
X54994886Y-21245446D01*
X55005908Y-21244538D01*
X55017070Y-21243889D01*
X55028371Y-21243500D01*
X55039811Y-21243370D01*
X55051455Y-21243480D01*
X55062941Y-21243808D01*
X55074267Y-21244355D01*
X55085435Y-21245122D01*
X55096444Y-21246107D01*
X55107294Y-21247311D01*
X55117985Y-21248735D01*
X55128517Y-21250377D01*
X55138890Y-21252238D01*
X55149105Y-21254318D01*
X55155826Y-21255826D01*
X55165863Y-21258280D01*
X55175822Y-21260970D01*
X55185704Y-21263896D01*
X55195508Y-21267058D01*
X55205236Y-21270456D01*
X55214886Y-21274090D01*
X55224458Y-21277961D01*
X55233954Y-21282067D01*
X55243372Y-21286410D01*
X55252713Y-21290989D01*
X55258897Y-21294173D01*
X55258897Y-21415317D01*
X55249751Y-21409721D01*
X55240541Y-21404383D01*
X55231267Y-21399303D01*
X55221928Y-21394480D01*
X55212525Y-21389915D01*
X55203058Y-21385607D01*
X55193526Y-21381557D01*
X55183930Y-21377765D01*
X55174269Y-21374230D01*
X55164544Y-21370953D01*
X55158025Y-21368911D01*
X55148141Y-21366030D01*
X55138089Y-21363433D01*
X55127870Y-21361118D01*
X55117484Y-21359088D01*
X55106930Y-21357340D01*
X55096209Y-21355876D01*
X55085321Y-21354696D01*
X55074265Y-21353798D01*
X55063041Y-21353184D01*
X55051650Y-21352854D01*
X55043963Y-21352791D01*
X55032207Y-21352999D01*
X55020662Y-21353624D01*
X55009327Y-21354665D01*
X54998202Y-21356122D01*
X54987288Y-21357997D01*
X54976584Y-21360287D01*
X54966090Y-21362994D01*
X54955807Y-21366117D01*
X54945734Y-21369657D01*
X54935871Y-21373614D01*
X54929413Y-21376482D01*
X54919977Y-21381113D01*
X54910812Y-21386122D01*
X54901917Y-21391509D01*
X54893292Y-21397274D01*
X54884938Y-21403416D01*
X54876854Y-21409936D01*
X54869041Y-21416834D01*
X54861499Y-21424110D01*
X54854226Y-21431763D01*
X54847225Y-21439795D01*
X54842707Y-21445359D01*
X54836165Y-21454005D01*
X54829910Y-21462999D01*
X54823943Y-21472340D01*
X54818264Y-21482030D01*
X54812872Y-21492067D01*
X54807768Y-21502452D01*
X54802952Y-21513184D01*
X54798423Y-21524265D01*
X54794182Y-21535693D01*
X54790228Y-21547469D01*
X54787752Y-21555512D01*
X54784304Y-21567855D01*
X54781195Y-21580520D01*
X54778425Y-21593506D01*
X54775994Y-21606815D01*
X54773903Y-21620445D01*
X54772150Y-21634398D01*
X54770737Y-21648673D01*
X54769663Y-21663269D01*
X54769136Y-21673179D01*
X54768759Y-21683232D01*
X54768533Y-21693429D01*
X54768457Y-21703768D01*
X54768526Y-21714614D01*
X54768734Y-21725292D01*
X54769080Y-21735802D01*
X54769564Y-21746144D01*
X54770187Y-21756318D01*
X54770947Y-21766325D01*
X54771847Y-21776163D01*
X54774060Y-21795336D01*
X54776827Y-21813837D01*
X54780147Y-21831667D01*
X54784021Y-21848825D01*
X54788448Y-21865312D01*
X54793428Y-21881126D01*
X54798961Y-21896269D01*
X54805048Y-21910741D01*
X54811689Y-21924540D01*
X54818882Y-21937669D01*
X54826630Y-21950125D01*
X54834930Y-21961910D01*
X54839288Y-21967550D01*
X54848398Y-21978286D01*
X54858022Y-21988330D01*
X54868159Y-21997681D01*
X54878809Y-22006339D01*
X54889973Y-22014304D01*
X54901650Y-22021577D01*
X54913840Y-22028158D01*
X54926543Y-22034045D01*
X54939760Y-22039240D01*
X54953490Y-22043742D01*
X54967734Y-22047552D01*
X54982490Y-22050669D01*
X54997760Y-22053093D01*
X55013544Y-22054825D01*
X55029840Y-22055864D01*
X55046650Y-22056210D01*
X55057458Y-22056103D01*
X55068177Y-22055781D01*
X55078805Y-22055244D01*
X55089343Y-22054493D01*
X55099791Y-22053527D01*
X55110148Y-22052346D01*
X55120416Y-22050951D01*
X55130593Y-22049341D01*
X55140680Y-22047516D01*
X55150677Y-22045477D01*
X55157292Y-22043998D01*
X55167191Y-22041577D01*
X55177013Y-22038983D01*
X55186757Y-22036219D01*
X55196424Y-22033282D01*
X55206014Y-22030174D01*
X55215527Y-22026893D01*
X55224962Y-22023442D01*
X55234320Y-22019818D01*
X55243601Y-22016023D01*
X55252804Y-22012056D01*
X55258897Y-22009316D01*
X55258897Y-22126552D01*
G37*
G36*
X56111060Y-22150000D02*
G01*
X55977704Y-22150000D01*
X55915177Y-21962421D01*
X55541486Y-21962421D01*
X55478227Y-22150000D01*
X55351221Y-22150000D01*
X55450628Y-21853000D01*
X55576657Y-21853000D01*
X55880251Y-21853000D01*
X55728332Y-21371842D01*
X55576657Y-21853000D01*
X55450628Y-21853000D01*
X55649441Y-21259002D01*
X55816992Y-21259002D01*
X56111060Y-22150000D01*
G37*
G36*
X56705303Y-21837369D02*
G01*
X56294731Y-21837369D01*
X56294731Y-21724040D01*
X56705303Y-21724040D01*
X56705303Y-21837369D01*
G37*
G36*
X57574563Y-22150000D02*
G01*
X56983007Y-22150000D01*
X56983007Y-22043510D01*
X57215282Y-21813433D01*
X57222342Y-21806470D01*
X57232618Y-21796248D01*
X57242515Y-21786291D01*
X57252035Y-21776601D01*
X57261177Y-21767177D01*
X57269941Y-21758020D01*
X57278327Y-21749128D01*
X57286336Y-21740503D01*
X57293966Y-21732144D01*
X57301219Y-21724051D01*
X57308094Y-21716224D01*
X57314641Y-21708593D01*
X57320909Y-21701086D01*
X57328831Y-21691270D01*
X57336258Y-21681676D01*
X57343188Y-21672303D01*
X57349622Y-21663152D01*
X57355561Y-21654222D01*
X57361003Y-21645513D01*
X57363538Y-21641242D01*
X57369474Y-21630728D01*
X57374767Y-21620405D01*
X57379416Y-21610272D01*
X57383420Y-21600331D01*
X57386781Y-21590580D01*
X57389498Y-21581021D01*
X57390404Y-21577250D01*
X57392728Y-21565813D01*
X57394298Y-21556019D01*
X57395533Y-21545987D01*
X57396435Y-21535716D01*
X57397003Y-21525207D01*
X57397236Y-21514460D01*
X57397243Y-21512281D01*
X57397022Y-21502125D01*
X57396361Y-21492112D01*
X57395257Y-21482242D01*
X57393713Y-21472516D01*
X57391727Y-21462932D01*
X57388762Y-21451620D01*
X57388206Y-21449755D01*
X57384565Y-21438839D01*
X57380238Y-21428437D01*
X57375223Y-21418551D01*
X57369521Y-21409180D01*
X57363133Y-21400325D01*
X57360851Y-21397487D01*
X57353504Y-21389313D01*
X57345383Y-21381825D01*
X57336490Y-21375025D01*
X57326825Y-21368911D01*
X57318180Y-21364341D01*
X57312735Y-21361828D01*
X57303284Y-21358099D01*
X57293248Y-21355001D01*
X57282628Y-21352536D01*
X57271424Y-21350703D01*
X57259635Y-21349502D01*
X57249783Y-21348997D01*
X57242149Y-21348883D01*
X57231525Y-21349113D01*
X57221086Y-21349802D01*
X57210831Y-21350950D01*
X57200761Y-21352558D01*
X57190876Y-21354625D01*
X57181175Y-21357152D01*
X57171659Y-21360138D01*
X57162327Y-21363583D01*
X57153180Y-21367488D01*
X57144218Y-21371852D01*
X57138346Y-21375017D01*
X57129665Y-21380052D01*
X57121118Y-21385358D01*
X57112704Y-21390934D01*
X57104423Y-21396781D01*
X57096275Y-21402899D01*
X57088260Y-21409286D01*
X57080378Y-21415945D01*
X57072629Y-21422873D01*
X57065013Y-21430072D01*
X57057531Y-21437542D01*
X57052616Y-21442672D01*
X56986671Y-21362805D01*
X56996332Y-21352829D01*
X57006263Y-21343236D01*
X57016464Y-21334024D01*
X57026937Y-21325195D01*
X57037679Y-21316748D01*
X57048692Y-21308683D01*
X57059976Y-21301000D01*
X57071530Y-21293699D01*
X57083354Y-21286781D01*
X57095450Y-21280244D01*
X57103663Y-21276099D01*
X57116265Y-21270250D01*
X57129249Y-21264976D01*
X57142614Y-21260278D01*
X57156362Y-21256155D01*
X57170492Y-21252607D01*
X57180125Y-21250561D01*
X57189927Y-21248772D01*
X57199899Y-21247237D01*
X57210041Y-21245959D01*
X57220352Y-21244936D01*
X57230834Y-21244169D01*
X57241485Y-21243658D01*
X57252306Y-21243402D01*
X57257780Y-21243370D01*
X57268906Y-21243527D01*
X57279842Y-21243997D01*
X57290590Y-21244780D01*
X57301149Y-21245877D01*
X57311519Y-21247288D01*
X57321699Y-21249011D01*
X57331692Y-21251049D01*
X57341495Y-21253399D01*
X57351109Y-21256063D01*
X57360534Y-21259041D01*
X57366713Y-21261200D01*
X57378776Y-21265901D01*
X57390420Y-21271092D01*
X57401643Y-21276770D01*
X57412447Y-21282937D01*
X57422831Y-21289593D01*
X57432796Y-21296737D01*
X57442340Y-21304370D01*
X57451465Y-21312491D01*
X57460185Y-21321093D01*
X57468394Y-21330168D01*
X57476092Y-21339716D01*
X57483278Y-21349738D01*
X57489952Y-21360233D01*
X57496116Y-21371201D01*
X57501768Y-21382642D01*
X57506908Y-21394556D01*
X57510400Y-21403779D01*
X57513548Y-21413221D01*
X57516353Y-21422882D01*
X57518815Y-21432761D01*
X57520933Y-21442860D01*
X57522708Y-21453178D01*
X57524139Y-21463714D01*
X57525226Y-21474470D01*
X57525970Y-21485444D01*
X57526371Y-21496637D01*
X57526448Y-21504221D01*
X57526234Y-21516930D01*
X57525593Y-21529409D01*
X57524524Y-21541659D01*
X57523028Y-21553681D01*
X57521105Y-21565473D01*
X57518754Y-21577036D01*
X57515976Y-21588371D01*
X57512770Y-21599476D01*
X57509129Y-21610402D01*
X57505046Y-21621321D01*
X57500520Y-21632231D01*
X57495551Y-21643135D01*
X57490139Y-21654030D01*
X57484285Y-21664918D01*
X57477988Y-21675798D01*
X57471249Y-21686671D01*
X57465901Y-21694850D01*
X57460301Y-21703086D01*
X57454447Y-21711377D01*
X57448339Y-21719724D01*
X57441979Y-21728127D01*
X57435365Y-21736585D01*
X57428498Y-21745099D01*
X57421377Y-21753670D01*
X57414003Y-21762296D01*
X57406376Y-21770978D01*
X57401151Y-21776796D01*
X57393093Y-21785577D01*
X57384765Y-21794516D01*
X57376166Y-21803615D01*
X57367297Y-21812872D01*
X57358157Y-21822288D01*
X57348747Y-21831863D01*
X57339066Y-21841596D01*
X57329115Y-21851489D01*
X57318893Y-21861540D01*
X57308401Y-21871751D01*
X57301256Y-21878646D01*
X57138346Y-22036671D01*
X57574563Y-22036671D01*
X57574563Y-22150000D01*
G37*
G36*
X58234996Y-21841277D02*
G01*
X58388136Y-21841277D01*
X58388136Y-21946789D01*
X58234996Y-21946789D01*
X58234996Y-22150000D01*
X58112630Y-22150000D01*
X58112630Y-21946789D01*
X57680565Y-21946789D01*
X57680565Y-21841277D01*
X57800000Y-21841277D01*
X58112630Y-21841277D01*
X58112630Y-21372575D01*
X57800000Y-21841277D01*
X57680565Y-21841277D01*
X58063293Y-21259002D01*
X58234996Y-21259002D01*
X58234996Y-21841277D01*
G37*
G36*
X59085450Y-22150000D02*
G01*
X59075272Y-22152003D01*
X59065010Y-22153862D01*
X59054664Y-22155575D01*
X59044234Y-22157144D01*
X59033720Y-22158567D01*
X59023122Y-22159846D01*
X59012440Y-22160979D01*
X59001674Y-22161967D01*
X58990844Y-22162826D01*
X58979967Y-22163570D01*
X58969045Y-22164200D01*
X58958077Y-22164715D01*
X58947063Y-22165116D01*
X58936004Y-22165402D01*
X58924898Y-22165574D01*
X58913747Y-22165631D01*
X58897792Y-22165401D01*
X58882350Y-22164711D01*
X58867422Y-22163562D01*
X58853007Y-22161952D01*
X58839105Y-22159883D01*
X58825716Y-22157353D01*
X58812841Y-22154364D01*
X58800479Y-22150915D01*
X58788631Y-22147007D01*
X58777295Y-22142638D01*
X58766473Y-22137809D01*
X58756164Y-22132521D01*
X58746369Y-22126773D01*
X58737087Y-22120564D01*
X58728318Y-22113896D01*
X58720062Y-22106769D01*
X58712343Y-22099134D01*
X58705122Y-22091007D01*
X58698398Y-22082388D01*
X58692173Y-22073277D01*
X58686446Y-22063673D01*
X58681216Y-22053577D01*
X58676485Y-22042989D01*
X58672252Y-22031908D01*
X58668517Y-22020335D01*
X58665279Y-22008270D01*
X58662540Y-21995712D01*
X58660299Y-21982663D01*
X58658556Y-21969120D01*
X58657311Y-21955086D01*
X58656564Y-21940559D01*
X58656315Y-21925540D01*
X58656315Y-21563817D01*
X58463119Y-21563817D01*
X58463119Y-21462212D01*
X58656315Y-21462212D01*
X58656315Y-21274145D01*
X58775750Y-21243370D01*
X58775750Y-21462212D01*
X59085450Y-21462212D01*
X59085450Y-21563817D01*
X58775750Y-21563817D01*
X58775750Y-21915771D01*
X58776095Y-21929408D01*
X58777132Y-21942384D01*
X58778860Y-21954698D01*
X58781279Y-21966352D01*
X58784390Y-21977344D01*
X58788192Y-21987675D01*
X58792685Y-21997345D01*
X58797869Y-22006354D01*
X58803744Y-22014702D01*
X58810311Y-22022388D01*
X58815073Y-22027145D01*
X58822820Y-22033736D01*
X58831224Y-22039679D01*
X58840285Y-22044973D01*
X58850003Y-22049620D01*
X58860378Y-22053617D01*
X58871410Y-22056967D01*
X58883098Y-22059668D01*
X58895444Y-22061721D01*
X58908446Y-22063126D01*
X58922106Y-22063882D01*
X58931577Y-22064026D01*
X58942030Y-22063937D01*
X58952781Y-22063668D01*
X58963830Y-22063221D01*
X58975178Y-22062595D01*
X58986823Y-22061790D01*
X58998767Y-22060806D01*
X59003628Y-22060362D01*
X59013509Y-22059321D01*
X59023488Y-22058149D01*
X59033567Y-22056848D01*
X59043745Y-22055416D01*
X59054022Y-22053856D01*
X59064399Y-22052165D01*
X59074875Y-22050345D01*
X59085450Y-22048394D01*
X59085450Y-22150000D01*
G37*
G36*
X59853105Y-22150000D02*
G01*
X59733426Y-22150000D01*
X59733426Y-21707676D01*
X59733309Y-21697820D01*
X59732698Y-21683631D01*
X59731564Y-21670154D01*
X59729905Y-21657390D01*
X59727722Y-21645338D01*
X59725016Y-21634000D01*
X59721786Y-21623374D01*
X59718032Y-21613460D01*
X59713755Y-21604260D01*
X59707237Y-21593101D01*
X59703628Y-21587997D01*
X59695774Y-21578666D01*
X59687111Y-21570579D01*
X59677639Y-21563737D01*
X59667358Y-21558138D01*
X59656268Y-21553784D01*
X59644369Y-21550673D01*
X59631661Y-21548807D01*
X59621598Y-21548224D01*
X59618143Y-21548185D01*
X59607716Y-21548501D01*
X59597593Y-21549447D01*
X59587774Y-21551025D01*
X59576925Y-21553601D01*
X59572958Y-21554780D01*
X59562456Y-21558672D01*
X59553066Y-21563055D01*
X59543489Y-21568349D01*
X59535131Y-21573613D01*
X59529483Y-21577494D01*
X59520819Y-21583951D01*
X59511863Y-21591233D01*
X59504177Y-21597931D01*
X59496288Y-21605201D01*
X59488196Y-21613043D01*
X59479902Y-21621458D01*
X59473113Y-21628572D01*
X59466056Y-21636113D01*
X59458733Y-21644081D01*
X59451142Y-21652477D01*
X59443284Y-21661300D01*
X59435160Y-21670551D01*
X59426768Y-21680229D01*
X59420298Y-21687768D01*
X59418108Y-21690334D01*
X59418108Y-22150000D01*
X59298674Y-22150000D01*
X59298674Y-21180844D01*
X59418108Y-21180844D01*
X59418108Y-21460013D01*
X59414200Y-21567725D01*
X59421207Y-21559466D01*
X59428183Y-21551543D01*
X59435129Y-21543957D01*
X59442044Y-21536706D01*
X59450645Y-21528114D01*
X59459198Y-21520048D01*
X59467704Y-21512506D01*
X59469399Y-21511060D01*
X59477872Y-21504024D01*
X59486344Y-21497417D01*
X59494816Y-21491239D01*
X59503288Y-21485491D01*
X59511760Y-21480172D01*
X59520232Y-21475282D01*
X59523621Y-21473447D01*
X59533822Y-21468335D01*
X59544092Y-21463807D01*
X59554430Y-21459863D01*
X59564837Y-21456502D01*
X59575313Y-21453726D01*
X59578820Y-21452930D01*
X59589513Y-21450772D01*
X59600344Y-21449061D01*
X59611312Y-21447796D01*
X59622418Y-21446977D01*
X59633660Y-21446605D01*
X59637438Y-21446580D01*
X59650110Y-21446826D01*
X59662420Y-21447565D01*
X59674367Y-21448795D01*
X59685951Y-21450519D01*
X59697173Y-21452734D01*
X59708032Y-21455442D01*
X59718529Y-21458641D01*
X59728663Y-21462334D01*
X59738435Y-21466518D01*
X59747844Y-21471195D01*
X59756890Y-21476364D01*
X59765574Y-21482026D01*
X59773896Y-21488180D01*
X59781855Y-21494826D01*
X59789451Y-21501964D01*
X59796685Y-21509595D01*
X59803517Y-21517720D01*
X59809908Y-21526341D01*
X59815859Y-21535458D01*
X59821369Y-21545071D01*
X59826438Y-21555180D01*
X59831066Y-21565786D01*
X59835253Y-21576887D01*
X59839000Y-21588485D01*
X59842306Y-21600579D01*
X59845171Y-21613169D01*
X59847595Y-21626255D01*
X59849579Y-21639837D01*
X59851121Y-21653916D01*
X59852223Y-21668490D01*
X59852884Y-21683561D01*
X59853105Y-21699127D01*
X59853105Y-22150000D01*
G37*
G36*
X52266678Y-23830000D02*
G01*
X52133321Y-23830000D01*
X52070795Y-23642421D01*
X51697103Y-23642421D01*
X51633845Y-23830000D01*
X51506838Y-23830000D01*
X51606245Y-23533000D01*
X51732274Y-23533000D01*
X52035868Y-23533000D01*
X51883949Y-23051842D01*
X51732274Y-23533000D01*
X51606245Y-23533000D01*
X51805059Y-22939002D01*
X51972609Y-22939002D01*
X52266678Y-23830000D01*
G37*
G36*
X52924912Y-23643886D02*
G01*
X52924608Y-23655150D01*
X52923696Y-23666045D01*
X52922175Y-23676569D01*
X52920046Y-23686724D01*
X52917309Y-23696510D01*
X52913964Y-23705925D01*
X52912456Y-23709588D01*
X52907550Y-23720172D01*
X52901992Y-23730310D01*
X52895781Y-23740002D01*
X52888917Y-23749247D01*
X52881401Y-23758045D01*
X52878750Y-23760879D01*
X52870542Y-23769073D01*
X52861852Y-23776804D01*
X52852681Y-23784071D01*
X52844672Y-23789773D01*
X52836328Y-23795153D01*
X52829413Y-23799225D01*
X52820540Y-23804055D01*
X52811477Y-23808623D01*
X52802222Y-23812928D01*
X52792777Y-23816971D01*
X52783141Y-23820751D01*
X52773314Y-23824269D01*
X52769330Y-23825603D01*
X52759289Y-23828678D01*
X52749165Y-23831490D01*
X52738958Y-23834040D01*
X52728667Y-23836327D01*
X52718293Y-23838352D01*
X52707835Y-23840115D01*
X52703628Y-23840746D01*
X52693195Y-23842153D01*
X52682810Y-23843322D01*
X52672473Y-23844252D01*
X52662183Y-23844944D01*
X52651941Y-23845397D01*
X52641747Y-23845612D01*
X52637683Y-23845631D01*
X52624640Y-23845575D01*
X52611800Y-23845408D01*
X52599161Y-23845129D01*
X52586724Y-23844738D01*
X52574488Y-23844236D01*
X52562455Y-23843622D01*
X52550623Y-23842896D01*
X52538993Y-23842059D01*
X52527565Y-23841110D01*
X52516339Y-23840050D01*
X52508967Y-23839281D01*
X52497995Y-23838067D01*
X52487062Y-23836716D01*
X52476168Y-23835228D01*
X52465312Y-23833602D01*
X52454495Y-23831839D01*
X52443717Y-23829938D01*
X52432977Y-23827901D01*
X52422276Y-23825725D01*
X52411613Y-23823413D01*
X52400989Y-23820963D01*
X52393928Y-23819253D01*
X52393928Y-23709099D01*
X52405236Y-23712234D01*
X52416534Y-23715227D01*
X52427824Y-23718079D01*
X52439106Y-23720789D01*
X52450378Y-23723357D01*
X52461643Y-23725783D01*
X52472898Y-23728068D01*
X52484146Y-23730211D01*
X52495384Y-23732212D01*
X52506614Y-23734072D01*
X52514096Y-23735233D01*
X52525309Y-23736805D01*
X52536510Y-23738221D01*
X52547698Y-23739484D01*
X52558872Y-23740591D01*
X52570034Y-23741544D01*
X52581183Y-23742343D01*
X52592320Y-23742987D01*
X52603443Y-23743476D01*
X52614553Y-23743811D01*
X52625651Y-23743992D01*
X52633042Y-23744026D01*
X52643585Y-23743934D01*
X52653780Y-23743660D01*
X52663628Y-23743202D01*
X52677749Y-23742171D01*
X52691088Y-23740729D01*
X52703646Y-23738874D01*
X52715423Y-23736607D01*
X52726418Y-23733928D01*
X52736632Y-23730837D01*
X52746064Y-23727334D01*
X52757425Y-23722021D01*
X52760048Y-23720579D01*
X52769723Y-23714347D01*
X52778107Y-23707496D01*
X52785202Y-23700028D01*
X52791006Y-23691941D01*
X52795521Y-23683236D01*
X52798746Y-23673913D01*
X52800680Y-23663972D01*
X52801325Y-23653412D01*
X52800804Y-23643260D01*
X52799001Y-23632661D01*
X52795909Y-23622776D01*
X52794731Y-23619951D01*
X52789584Y-23610782D01*
X52783197Y-23602775D01*
X52776126Y-23595852D01*
X52771039Y-23591618D01*
X52762648Y-23585599D01*
X52754004Y-23580385D01*
X52744020Y-23575118D01*
X52734678Y-23570690D01*
X52724405Y-23566226D01*
X52717794Y-23563531D01*
X52708345Y-23559859D01*
X52698072Y-23556051D01*
X52686974Y-23552105D01*
X52675052Y-23548021D01*
X52665569Y-23544868D01*
X52655623Y-23541638D01*
X52645213Y-23538331D01*
X52634340Y-23534947D01*
X52623002Y-23531485D01*
X52619120Y-23530314D01*
X52607568Y-23526833D01*
X52596238Y-23523230D01*
X52585128Y-23519506D01*
X52574241Y-23515659D01*
X52563574Y-23511690D01*
X52553129Y-23507599D01*
X52542905Y-23503386D01*
X52532903Y-23499050D01*
X52523232Y-23494494D01*
X52513882Y-23489739D01*
X52504853Y-23484785D01*
X52496144Y-23479633D01*
X52487756Y-23474283D01*
X52479688Y-23468734D01*
X52470054Y-23461519D01*
X52464515Y-23457041D01*
X52455806Y-23449282D01*
X52447694Y-23441117D01*
X52440178Y-23432547D01*
X52433259Y-23423572D01*
X52426936Y-23414191D01*
X52421209Y-23404404D01*
X52419085Y-23400376D01*
X52414371Y-23389939D01*
X52410456Y-23378929D01*
X52407339Y-23367346D01*
X52405422Y-23357668D01*
X52404016Y-23347624D01*
X52403121Y-23337213D01*
X52402737Y-23326436D01*
X52402721Y-23323684D01*
X52403193Y-23312596D01*
X52404610Y-23301130D01*
X52406512Y-23291286D01*
X52409070Y-23281180D01*
X52412284Y-23270812D01*
X52416154Y-23260181D01*
X52420811Y-23249462D01*
X52426387Y-23238981D01*
X52432881Y-23228739D01*
X52438737Y-23220718D01*
X52445180Y-23212848D01*
X52452212Y-23205132D01*
X52459831Y-23197568D01*
X52461828Y-23195701D01*
X52470300Y-23188412D01*
X52479474Y-23181443D01*
X52489351Y-23174795D01*
X52499930Y-23168468D01*
X52511211Y-23162461D01*
X52520132Y-23158166D01*
X52529449Y-23154052D01*
X52539160Y-23150118D01*
X52549267Y-23146364D01*
X52559811Y-23142828D01*
X52570836Y-23139640D01*
X52582343Y-23136800D01*
X52594330Y-23134308D01*
X52606797Y-23132164D01*
X52619746Y-23130367D01*
X52633176Y-23128918D01*
X52647086Y-23127817D01*
X52661477Y-23127063D01*
X52671339Y-23126754D01*
X52681414Y-23126599D01*
X52686531Y-23126580D01*
X52696805Y-23126653D01*
X52707353Y-23126870D01*
X52718176Y-23127233D01*
X52729274Y-23127740D01*
X52740646Y-23128393D01*
X52752294Y-23129190D01*
X52764216Y-23130133D01*
X52776413Y-23131221D01*
X52788869Y-23132427D01*
X52801448Y-23133846D01*
X52814148Y-23135480D01*
X52826971Y-23137327D01*
X52836668Y-23138852D01*
X52846434Y-23140498D01*
X52856269Y-23142264D01*
X52866172Y-23144150D01*
X52876144Y-23146157D01*
X52879483Y-23146852D01*
X52879483Y-23255052D01*
X52869000Y-23252550D01*
X52858615Y-23250172D01*
X52848329Y-23247918D01*
X52838141Y-23245790D01*
X52828053Y-23243785D01*
X52818063Y-23241906D01*
X52808172Y-23240150D01*
X52798379Y-23238520D01*
X52788686Y-23237013D01*
X52775914Y-23235199D01*
X52772749Y-23234780D01*
X52760319Y-23233234D01*
X52748309Y-23231895D01*
X52736719Y-23230761D01*
X52725549Y-23229834D01*
X52714799Y-23229112D01*
X52704468Y-23228597D01*
X52694557Y-23228288D01*
X52685066Y-23228185D01*
X52674166Y-23228292D01*
X52663695Y-23228613D01*
X52653650Y-23229147D01*
X52641696Y-23230115D01*
X52630409Y-23231418D01*
X52619790Y-23233054D01*
X52609839Y-23235024D01*
X52598802Y-23237769D01*
X52588590Y-23240874D01*
X52579202Y-23244340D01*
X52569291Y-23248840D01*
X52560502Y-23253831D01*
X52551755Y-23259967D01*
X52544321Y-23266653D01*
X52537527Y-23274832D01*
X52533391Y-23281674D01*
X52529377Y-23290916D01*
X52526676Y-23300505D01*
X52525289Y-23310442D01*
X52525087Y-23316113D01*
X52525647Y-23326303D01*
X52527328Y-23335991D01*
X52530510Y-23346166D01*
X52532170Y-23350062D01*
X52537257Y-23358503D01*
X52544277Y-23366789D01*
X52552139Y-23374025D01*
X52559036Y-23379371D01*
X52568321Y-23385569D01*
X52577452Y-23390881D01*
X52587664Y-23396194D01*
X52597001Y-23400621D01*
X52607089Y-23405047D01*
X52613503Y-23407704D01*
X52622627Y-23411283D01*
X52632416Y-23414939D01*
X52642869Y-23418672D01*
X52653986Y-23422480D01*
X52665767Y-23426365D01*
X52678212Y-23430327D01*
X52687981Y-23433348D01*
X52698124Y-23436412D01*
X52705094Y-23438478D01*
X52716373Y-23441882D01*
X52727313Y-23445316D01*
X52737914Y-23448780D01*
X52748176Y-23452274D01*
X52758098Y-23455798D01*
X52767682Y-23459352D01*
X52776926Y-23462937D01*
X52788724Y-23467762D01*
X52799919Y-23472641D01*
X52807920Y-23476336D01*
X52818174Y-23481293D01*
X52827933Y-23486396D01*
X52837195Y-23491643D01*
X52845961Y-23497035D01*
X52854231Y-23502573D01*
X52863870Y-23509699D01*
X52872735Y-23517051D01*
X52876064Y-23520055D01*
X52883867Y-23527767D01*
X52890942Y-23535788D01*
X52897291Y-23544119D01*
X52902911Y-23552761D01*
X52907805Y-23561713D01*
X52911970Y-23570974D01*
X52913433Y-23574766D01*
X52916740Y-23584439D01*
X52919486Y-23594529D01*
X52921672Y-23605037D01*
X52923298Y-23615963D01*
X52924363Y-23627305D01*
X52924867Y-23639066D01*
X52924912Y-23643886D01*
G37*
G36*
X53703314Y-23830000D02*
G01*
X53693136Y-23832003D01*
X53682874Y-23833862D01*
X53672528Y-23835575D01*
X53662098Y-23837144D01*
X53651584Y-23838567D01*
X53640987Y-23839846D01*
X53630305Y-23840979D01*
X53619539Y-23841967D01*
X53608708Y-23842826D01*
X53597832Y-23843570D01*
X53586910Y-23844200D01*
X53575942Y-23844715D01*
X53564928Y-23845116D01*
X53553868Y-23845402D01*
X53542763Y-23845574D01*
X53531612Y-23845631D01*
X53515657Y-23845401D01*
X53500215Y-23844711D01*
X53485286Y-23843562D01*
X53470871Y-23841952D01*
X53456970Y-23839883D01*
X53443581Y-23837353D01*
X53430706Y-23834364D01*
X53418344Y-23830915D01*
X53406495Y-23827007D01*
X53395160Y-23822638D01*
X53384338Y-23817809D01*
X53374029Y-23812521D01*
X53364234Y-23806773D01*
X53354951Y-23800564D01*
X53346183Y-23793896D01*
X53337927Y-23786769D01*
X53330208Y-23779134D01*
X53322986Y-23771007D01*
X53316263Y-23762388D01*
X53310037Y-23753277D01*
X53304310Y-23743673D01*
X53299081Y-23733577D01*
X53294350Y-23722989D01*
X53290116Y-23711908D01*
X53286381Y-23700335D01*
X53283144Y-23688270D01*
X53280405Y-23675712D01*
X53278164Y-23662663D01*
X53276421Y-23649120D01*
X53275176Y-23635086D01*
X53274429Y-23620559D01*
X53274180Y-23605540D01*
X53274180Y-23243817D01*
X53080983Y-23243817D01*
X53080983Y-23142212D01*
X53274180Y-23142212D01*
X53274180Y-22954145D01*
X53393614Y-22923370D01*
X53393614Y-23142212D01*
X53703314Y-23142212D01*
X53703314Y-23243817D01*
X53393614Y-23243817D01*
X53393614Y-23595771D01*
X53393960Y-23609408D01*
X53394997Y-23622384D01*
X53396725Y-23634698D01*
X53399144Y-23646352D01*
X53402255Y-23657344D01*
X53406056Y-23667675D01*
X53410549Y-23677345D01*
X53415734Y-23686354D01*
X53421609Y-23694702D01*
X53428176Y-23702388D01*
X53432937Y-23707145D01*
X53440685Y-23713736D01*
X53449089Y-23719679D01*
X53458150Y-23724973D01*
X53467868Y-23729620D01*
X53478243Y-23733617D01*
X53489274Y-23736967D01*
X53500963Y-23739668D01*
X53513309Y-23741721D01*
X53526311Y-23743126D01*
X53539970Y-23743882D01*
X53549441Y-23744026D01*
X53559894Y-23743937D01*
X53570646Y-23743668D01*
X53581695Y-23743221D01*
X53593042Y-23742595D01*
X53604688Y-23741790D01*
X53616632Y-23740806D01*
X53621493Y-23740362D01*
X53631373Y-23739321D01*
X53641353Y-23738149D01*
X53651432Y-23736848D01*
X53661610Y-23735416D01*
X53671887Y-23733856D01*
X53682264Y-23732165D01*
X53692739Y-23730345D01*
X53703314Y-23728394D01*
X53703314Y-23830000D01*
G37*
G36*
X54209032Y-23126702D02*
G01*
X54220427Y-23127070D01*
X54231603Y-23127681D01*
X54242560Y-23128538D01*
X54253299Y-23129639D01*
X54263818Y-23130985D01*
X54274119Y-23132576D01*
X54284200Y-23134411D01*
X54294063Y-23136491D01*
X54303706Y-23138816D01*
X54310013Y-23140502D01*
X54322348Y-23144150D01*
X54334193Y-23148257D01*
X54345551Y-23152821D01*
X54356420Y-23157843D01*
X54366800Y-23163323D01*
X54376692Y-23169262D01*
X54386095Y-23175658D01*
X54395010Y-23182512D01*
X54403429Y-23189763D01*
X54411344Y-23197472D01*
X54418755Y-23205638D01*
X54425662Y-23214263D01*
X54432066Y-23223346D01*
X54437966Y-23232887D01*
X54443362Y-23242885D01*
X54448255Y-23253342D01*
X54452605Y-23264207D01*
X54456376Y-23275553D01*
X54459566Y-23287380D01*
X54462177Y-23299687D01*
X54464207Y-23312476D01*
X54465349Y-23322382D01*
X54466165Y-23332560D01*
X54466654Y-23343008D01*
X54466817Y-23353726D01*
X54466817Y-23830000D01*
X54359595Y-23830000D01*
X54356908Y-23737676D01*
X54349849Y-23744696D01*
X54342776Y-23751468D01*
X54332142Y-23761161D01*
X54321479Y-23770295D01*
X54310785Y-23778872D01*
X54300061Y-23786891D01*
X54289306Y-23794351D01*
X54278522Y-23801253D01*
X54267708Y-23807597D01*
X54256864Y-23813383D01*
X54245990Y-23818611D01*
X54242358Y-23820230D01*
X54231451Y-23824769D01*
X54220436Y-23828862D01*
X54209315Y-23832509D01*
X54198085Y-23835709D01*
X54186749Y-23838462D01*
X54175305Y-23840769D01*
X54163754Y-23842630D01*
X54152095Y-23844043D01*
X54140329Y-23845011D01*
X54128456Y-23845532D01*
X54120481Y-23845631D01*
X54109549Y-23845498D01*
X54098917Y-23845099D01*
X54088586Y-23844433D01*
X54078555Y-23843502D01*
X54068825Y-23842304D01*
X54056319Y-23840293D01*
X54044347Y-23837808D01*
X54032910Y-23834850D01*
X54022007Y-23831420D01*
X54019364Y-23830488D01*
X54009152Y-23826527D01*
X53999398Y-23822214D01*
X53990101Y-23817551D01*
X53981263Y-23812536D01*
X53972882Y-23807170D01*
X53964959Y-23801454D01*
X53955700Y-23793814D01*
X53950488Y-23788967D01*
X53942368Y-23780427D01*
X53934951Y-23771445D01*
X53928238Y-23762022D01*
X53922228Y-23752159D01*
X53916922Y-23741853D01*
X53912320Y-23731107D01*
X53910676Y-23726685D01*
X53907018Y-23715322D01*
X53903979Y-23703673D01*
X53901560Y-23691737D01*
X53900072Y-23681983D01*
X53898980Y-23672045D01*
X53898286Y-23661924D01*
X53897988Y-23651620D01*
X53897976Y-23649016D01*
X53898114Y-23643154D01*
X54024494Y-23643154D01*
X54024875Y-23652954D01*
X54026217Y-23663760D01*
X54028525Y-23674335D01*
X54030600Y-23681256D01*
X54034633Y-23691113D01*
X54039865Y-23700352D01*
X54046294Y-23708973D01*
X54050383Y-23713496D01*
X54057848Y-23720212D01*
X54066320Y-23726196D01*
X54075800Y-23731448D01*
X54084921Y-23735441D01*
X54086287Y-23735966D01*
X54096360Y-23739107D01*
X54107344Y-23741476D01*
X54117485Y-23742893D01*
X54128296Y-23743743D01*
X54139776Y-23744026D01*
X54150282Y-23743637D01*
X54161163Y-23742469D01*
X54172417Y-23740523D01*
X54184045Y-23737798D01*
X54196047Y-23734294D01*
X54208424Y-23730013D01*
X54217951Y-23726290D01*
X54227689Y-23722130D01*
X54234298Y-23719113D01*
X54244333Y-23714141D01*
X54254471Y-23708658D01*
X54264712Y-23702663D01*
X54275056Y-23696158D01*
X54285503Y-23689142D01*
X54296053Y-23681615D01*
X54306707Y-23673577D01*
X54317463Y-23665029D01*
X54328322Y-23655969D01*
X54339284Y-23646399D01*
X54346650Y-23639734D01*
X54346650Y-23517369D01*
X54194731Y-23517369D01*
X54183751Y-23517510D01*
X54173161Y-23517933D01*
X54162960Y-23518639D01*
X54153148Y-23519628D01*
X54141431Y-23521261D01*
X54130322Y-23523334D01*
X54119822Y-23525850D01*
X54117794Y-23526406D01*
X54108000Y-23529344D01*
X54098765Y-23532664D01*
X54088424Y-23537152D01*
X54078890Y-23542190D01*
X54070163Y-23547777D01*
X54064794Y-23551807D01*
X54056320Y-23559294D01*
X54048852Y-23567435D01*
X54042389Y-23576230D01*
X54036931Y-23585680D01*
X54034263Y-23591374D01*
X54030457Y-23601699D01*
X54027585Y-23612585D01*
X54025867Y-23622363D01*
X54024837Y-23632552D01*
X54024494Y-23643154D01*
X53898114Y-23643154D01*
X53898277Y-23636187D01*
X53899182Y-23623714D01*
X53900689Y-23611595D01*
X53902800Y-23599831D01*
X53905513Y-23588422D01*
X53908829Y-23577368D01*
X53912749Y-23566669D01*
X53917271Y-23556325D01*
X53922396Y-23546336D01*
X53928125Y-23536702D01*
X53934456Y-23527423D01*
X53941390Y-23518498D01*
X53948927Y-23509929D01*
X53957067Y-23501714D01*
X53965810Y-23493855D01*
X53975157Y-23486350D01*
X53985123Y-23479222D01*
X53995665Y-23472554D01*
X54006784Y-23466346D01*
X54018479Y-23460597D01*
X54030750Y-23455309D01*
X54043598Y-23450480D01*
X54057022Y-23446112D01*
X54071022Y-23442203D01*
X54085598Y-23438754D01*
X54100751Y-23435765D01*
X54116480Y-23433236D01*
X54132785Y-23431166D01*
X54149666Y-23429557D01*
X54167124Y-23428407D01*
X54185158Y-23427717D01*
X54203768Y-23427487D01*
X54346650Y-23427487D01*
X54346650Y-23365694D01*
X54346304Y-23354191D01*
X54345267Y-23343131D01*
X54343539Y-23332513D01*
X54341120Y-23322337D01*
X54338010Y-23312603D01*
X54334208Y-23303312D01*
X54329715Y-23294462D01*
X54324531Y-23286055D01*
X54318655Y-23278091D01*
X54312089Y-23270568D01*
X54307327Y-23265799D01*
X54299637Y-23259077D01*
X54291221Y-23253016D01*
X54282080Y-23247616D01*
X54272213Y-23242878D01*
X54261621Y-23238801D01*
X54250303Y-23235385D01*
X54238259Y-23232630D01*
X54225490Y-23230536D01*
X54211996Y-23229103D01*
X54197775Y-23228332D01*
X54187892Y-23228185D01*
X54176962Y-23228292D01*
X54166062Y-23228614D01*
X54155192Y-23229151D01*
X54144352Y-23229902D01*
X54133542Y-23230868D01*
X54122762Y-23232049D01*
X54112012Y-23233444D01*
X54101293Y-23235054D01*
X54090603Y-23236879D01*
X54079943Y-23238918D01*
X54072854Y-23240397D01*
X54062195Y-23242777D01*
X54051467Y-23245337D01*
X54040671Y-23248078D01*
X54029806Y-23250999D01*
X54018872Y-23254100D01*
X54007870Y-23257382D01*
X53996799Y-23260844D01*
X53985659Y-23264486D01*
X53974450Y-23268308D01*
X53963173Y-23272311D01*
X53955617Y-23275080D01*
X53955617Y-23165659D01*
X53965800Y-23162465D01*
X53976474Y-23159294D01*
X53986014Y-23156595D01*
X53995914Y-23153913D01*
X54006175Y-23151249D01*
X54016720Y-23148653D01*
X54027470Y-23146177D01*
X54038427Y-23143821D01*
X54049590Y-23141586D01*
X54060958Y-23139471D01*
X54064794Y-23138792D01*
X54074553Y-23137096D01*
X54084443Y-23135520D01*
X54094464Y-23134062D01*
X54104617Y-23132724D01*
X54114900Y-23131506D01*
X54125315Y-23130406D01*
X54129518Y-23130000D01*
X54140063Y-23129014D01*
X54150632Y-23128196D01*
X54161224Y-23127545D01*
X54171841Y-23127061D01*
X54182481Y-23126744D01*
X54193145Y-23126593D01*
X54197418Y-23126580D01*
X54209032Y-23126702D01*
G37*
G36*
X54804849Y-23127313D02*
G01*
X54799476Y-23254563D01*
X54805946Y-23245933D01*
X54812471Y-23237627D01*
X54819051Y-23229645D01*
X54825686Y-23221987D01*
X54832377Y-23214654D01*
X54842517Y-23204263D01*
X54852782Y-23194602D01*
X54863171Y-23185670D01*
X54873685Y-23177468D01*
X54884323Y-23169997D01*
X54895086Y-23163255D01*
X54905973Y-23157243D01*
X54909630Y-23155401D01*
X54920739Y-23150250D01*
X54931995Y-23145606D01*
X54943397Y-23141469D01*
X54954944Y-23137838D01*
X54966638Y-23134714D01*
X54978478Y-23132097D01*
X54990463Y-23129986D01*
X55002595Y-23128381D01*
X55014872Y-23127284D01*
X55027296Y-23126693D01*
X55035659Y-23126580D01*
X55046615Y-23126801D01*
X55057317Y-23127465D01*
X55067767Y-23128570D01*
X55077963Y-23130118D01*
X55087905Y-23132108D01*
X55097595Y-23134540D01*
X55107031Y-23137414D01*
X55119218Y-23141935D01*
X55130955Y-23147241D01*
X55139462Y-23151737D01*
X55150407Y-23158290D01*
X55160894Y-23165491D01*
X55170924Y-23173341D01*
X55180495Y-23181840D01*
X55189608Y-23190988D01*
X55196143Y-23198274D01*
X55202420Y-23205926D01*
X55208439Y-23213942D01*
X55214200Y-23222323D01*
X55219746Y-23231009D01*
X55225025Y-23240029D01*
X55230039Y-23249384D01*
X55234786Y-23259074D01*
X55239266Y-23269099D01*
X55243481Y-23279459D01*
X55247429Y-23290154D01*
X55251112Y-23301183D01*
X55254528Y-23312548D01*
X55257678Y-23324247D01*
X55259630Y-23332233D01*
X55262336Y-23344408D01*
X55264776Y-23356845D01*
X55266950Y-23369544D01*
X55268857Y-23382505D01*
X55270499Y-23395727D01*
X55271874Y-23409212D01*
X55272983Y-23422959D01*
X55273826Y-23436967D01*
X55274403Y-23451237D01*
X55274714Y-23465769D01*
X55274773Y-23475603D01*
X55274680Y-23486400D01*
X55274403Y-23497055D01*
X55273940Y-23507566D01*
X55273292Y-23517933D01*
X55272459Y-23528158D01*
X55271441Y-23538240D01*
X55270238Y-23548179D01*
X55268850Y-23557974D01*
X55267277Y-23567626D01*
X55264570Y-23581837D01*
X55261446Y-23595725D01*
X55257906Y-23609291D01*
X55253950Y-23622535D01*
X55251081Y-23631186D01*
X55246463Y-23643826D01*
X55241493Y-23656101D01*
X55236170Y-23668012D01*
X55230496Y-23679557D01*
X55224470Y-23690738D01*
X55218091Y-23701554D01*
X55211361Y-23712004D01*
X55204278Y-23722090D01*
X55196843Y-23731811D01*
X55189057Y-23741167D01*
X55183670Y-23747201D01*
X55175351Y-23755936D01*
X55166697Y-23764280D01*
X55157708Y-23772233D01*
X55148385Y-23779796D01*
X55138726Y-23786968D01*
X55128733Y-23793749D01*
X55118404Y-23800140D01*
X55107741Y-23806140D01*
X55096743Y-23811749D01*
X55085410Y-23816968D01*
X55077669Y-23820230D01*
X55065806Y-23824769D01*
X55053663Y-23828862D01*
X55041242Y-23832509D01*
X55028542Y-23835709D01*
X55015562Y-23838462D01*
X55002304Y-23840769D01*
X54988766Y-23842630D01*
X54974949Y-23844043D01*
X54960854Y-23845011D01*
X54946479Y-23845532D01*
X54936741Y-23845631D01*
X54925266Y-23845528D01*
X54913740Y-23845219D01*
X54902162Y-23844704D01*
X54890533Y-23843982D01*
X54878852Y-23843055D01*
X54867120Y-23841922D01*
X54855336Y-23840582D01*
X54843501Y-23839036D01*
X54831614Y-23837285D01*
X54819676Y-23835327D01*
X54811688Y-23833907D01*
X54799746Y-23831589D01*
X54787826Y-23829030D01*
X54775927Y-23826231D01*
X54764049Y-23823191D01*
X54752193Y-23819911D01*
X54740359Y-23816391D01*
X54728546Y-23812630D01*
X54716754Y-23808628D01*
X54704984Y-23804386D01*
X54693235Y-23799904D01*
X54685415Y-23796782D01*
X54685415Y-23717892D01*
X54804849Y-23717892D01*
X54815870Y-23722099D01*
X54826951Y-23726021D01*
X54838091Y-23729656D01*
X54849290Y-23733005D01*
X54860549Y-23736067D01*
X54871868Y-23738843D01*
X54876413Y-23739874D01*
X54887702Y-23742196D01*
X54898824Y-23744124D01*
X54909779Y-23745659D01*
X54920567Y-23746800D01*
X54931188Y-23747548D01*
X54941643Y-23747902D01*
X54945778Y-23747934D01*
X54956036Y-23747728D01*
X54966172Y-23747110D01*
X54976186Y-23746079D01*
X54986078Y-23744637D01*
X54995847Y-23742782D01*
X55005495Y-23740515D01*
X55015020Y-23737836D01*
X55024424Y-23734745D01*
X55033629Y-23731169D01*
X55042559Y-23727036D01*
X55051214Y-23722346D01*
X55059595Y-23717098D01*
X55067701Y-23711294D01*
X55075532Y-23704932D01*
X55083088Y-23698013D01*
X55090369Y-23690537D01*
X55097330Y-23682469D01*
X55103925Y-23673776D01*
X55110153Y-23664456D01*
X55116015Y-23654511D01*
X55121510Y-23643940D01*
X55126639Y-23632743D01*
X55131402Y-23620920D01*
X55134734Y-23611642D01*
X55135799Y-23608471D01*
X55138810Y-23598637D01*
X55141526Y-23588370D01*
X55143945Y-23577669D01*
X55146068Y-23566534D01*
X55147895Y-23554966D01*
X55149426Y-23542964D01*
X55150660Y-23530528D01*
X55151598Y-23517659D01*
X55152240Y-23504356D01*
X55152585Y-23490619D01*
X55152651Y-23481221D01*
X55152580Y-23470996D01*
X55152368Y-23460930D01*
X55152014Y-23451024D01*
X55151321Y-23438062D01*
X55150377Y-23425382D01*
X55149180Y-23412985D01*
X55147732Y-23400870D01*
X55146032Y-23389037D01*
X55144591Y-23380348D01*
X55142488Y-23369075D01*
X55140088Y-23358214D01*
X55137390Y-23347765D01*
X55134394Y-23337728D01*
X55131101Y-23328103D01*
X55127510Y-23318891D01*
X55122602Y-23307955D01*
X55119434Y-23301702D01*
X55113853Y-23291826D01*
X55107795Y-23282654D01*
X55101259Y-23274186D01*
X55094247Y-23266421D01*
X55086757Y-23259359D01*
X55078791Y-23253002D01*
X55075471Y-23250655D01*
X55066895Y-23245308D01*
X55057806Y-23240867D01*
X55048204Y-23237332D01*
X55038090Y-23234703D01*
X55027463Y-23232981D01*
X55016323Y-23232166D01*
X55011723Y-23232093D01*
X55001750Y-23232444D01*
X54991708Y-23233495D01*
X54981595Y-23235249D01*
X54971412Y-23237703D01*
X54965561Y-23239420D01*
X54955316Y-23243093D01*
X54944885Y-23247702D01*
X54935794Y-23252396D01*
X54926566Y-23257777D01*
X54917201Y-23263845D01*
X54907756Y-23270642D01*
X54899727Y-23276897D01*
X54891556Y-23283689D01*
X54883241Y-23291018D01*
X54874783Y-23298883D01*
X54866182Y-23307285D01*
X54864445Y-23309030D01*
X54857423Y-23316265D01*
X54850279Y-23323928D01*
X54843012Y-23332019D01*
X54835624Y-23340537D01*
X54828114Y-23349482D01*
X54820481Y-23358855D01*
X54812726Y-23368655D01*
X54804849Y-23378883D01*
X54804849Y-23717892D01*
X54685415Y-23717892D01*
X54685415Y-22860844D01*
X54804849Y-22860844D01*
X54804849Y-23127313D01*
G37*
G36*
X55689253Y-22958541D02*
G01*
X55485310Y-22958541D01*
X55485310Y-22860844D01*
X55810153Y-22860844D01*
X55810153Y-23728394D01*
X56015561Y-23728394D01*
X56015561Y-23830000D01*
X55462595Y-23830000D01*
X55462595Y-23728394D01*
X55689253Y-23728394D01*
X55689253Y-22958541D01*
G37*
G36*
X56520344Y-23126778D02*
G01*
X56533422Y-23127370D01*
X56546212Y-23128358D01*
X56558715Y-23129740D01*
X56570931Y-23131517D01*
X56582858Y-23133690D01*
X56594498Y-23136257D01*
X56605850Y-23139220D01*
X56616915Y-23142577D01*
X56627692Y-23146329D01*
X56634717Y-23149050D01*
X56645004Y-23153383D01*
X56654981Y-23158046D01*
X56664650Y-23163040D01*
X56674009Y-23168365D01*
X56683060Y-23174020D01*
X56691801Y-23180005D01*
X56700233Y-23186322D01*
X56708356Y-23192968D01*
X56716170Y-23199946D01*
X56723675Y-23207254D01*
X56728506Y-23212309D01*
X56735487Y-23220160D01*
X56742142Y-23228323D01*
X56748470Y-23236801D01*
X56754472Y-23245591D01*
X56760148Y-23254695D01*
X56765497Y-23264113D01*
X56770521Y-23273844D01*
X56775218Y-23283888D01*
X56779588Y-23294245D01*
X56783633Y-23304916D01*
X56786147Y-23312205D01*
X56789639Y-23323318D01*
X56792788Y-23334676D01*
X56795593Y-23346279D01*
X56798054Y-23358126D01*
X56800172Y-23370218D01*
X56801947Y-23382555D01*
X56803378Y-23395137D01*
X56804466Y-23407963D01*
X56805210Y-23421034D01*
X56805611Y-23434350D01*
X56805687Y-23443363D01*
X56805652Y-23453984D01*
X56805547Y-23463833D01*
X56805341Y-23474144D01*
X56804999Y-23484541D01*
X56804954Y-23485617D01*
X56804448Y-23495959D01*
X56803847Y-23505920D01*
X56803076Y-23516436D01*
X56803000Y-23517369D01*
X56318667Y-23517369D01*
X56318898Y-23530848D01*
X56319590Y-23543930D01*
X56320745Y-23556615D01*
X56322361Y-23568904D01*
X56324439Y-23580795D01*
X56326979Y-23592290D01*
X56329980Y-23603388D01*
X56333443Y-23614089D01*
X56337368Y-23624393D01*
X56341755Y-23634300D01*
X56346604Y-23643810D01*
X56351914Y-23652923D01*
X56357686Y-23661640D01*
X56363920Y-23669959D01*
X56370616Y-23677882D01*
X56377773Y-23685408D01*
X56385365Y-23692506D01*
X56393363Y-23699146D01*
X56401767Y-23705329D01*
X56410578Y-23711053D01*
X56419796Y-23716320D01*
X56429419Y-23721128D01*
X56439449Y-23725479D01*
X56449886Y-23729371D01*
X56460729Y-23732806D01*
X56471979Y-23735783D01*
X56483635Y-23738302D01*
X56495697Y-23740362D01*
X56508166Y-23741965D01*
X56521041Y-23743110D01*
X56534323Y-23743797D01*
X56548011Y-23744026D01*
X56559368Y-23743940D01*
X56570725Y-23743683D01*
X56582083Y-23743253D01*
X56593440Y-23742652D01*
X56604797Y-23741879D01*
X56608583Y-23741584D01*
X56619863Y-23740516D01*
X56630988Y-23739328D01*
X56641959Y-23738020D01*
X56652776Y-23736592D01*
X56663437Y-23735043D01*
X56666957Y-23734501D01*
X56677404Y-23732818D01*
X56687679Y-23731066D01*
X56697783Y-23729246D01*
X56707715Y-23727356D01*
X56717475Y-23725399D01*
X56720690Y-23724731D01*
X56730262Y-23722673D01*
X56741081Y-23720163D01*
X56751526Y-23717537D01*
X56761597Y-23714794D01*
X56768562Y-23712763D01*
X56768562Y-23810460D01*
X56756151Y-23814276D01*
X56746583Y-23817018D01*
X56736791Y-23819657D01*
X56726776Y-23822193D01*
X56716538Y-23824626D01*
X56706077Y-23826956D01*
X56695392Y-23829183D01*
X56684484Y-23831307D01*
X56673353Y-23833327D01*
X56661999Y-23835245D01*
X56658164Y-23835861D01*
X56646629Y-23837607D01*
X56635012Y-23839182D01*
X56623313Y-23840584D01*
X56611533Y-23841815D01*
X56599671Y-23842874D01*
X56587728Y-23843761D01*
X56575703Y-23844477D01*
X56563596Y-23845020D01*
X56551408Y-23845393D01*
X56539139Y-23845593D01*
X56530914Y-23845631D01*
X56519928Y-23845537D01*
X56509134Y-23845253D01*
X56498533Y-23844781D01*
X56488125Y-23844120D01*
X56477910Y-23843270D01*
X56467888Y-23842231D01*
X56458058Y-23841003D01*
X56443674Y-23838807D01*
X56429725Y-23836186D01*
X56416208Y-23833140D01*
X56403126Y-23829668D01*
X56390477Y-23825772D01*
X56378262Y-23821451D01*
X56366509Y-23816726D01*
X56355155Y-23811619D01*
X56344201Y-23806130D01*
X56333646Y-23800259D01*
X56323490Y-23794006D01*
X56313733Y-23787371D01*
X56304376Y-23780353D01*
X56295418Y-23772954D01*
X56286859Y-23765172D01*
X56278700Y-23757008D01*
X56273482Y-23751353D01*
X56266021Y-23742518D01*
X56258933Y-23733321D01*
X56252219Y-23723764D01*
X56245878Y-23713847D01*
X56239911Y-23703569D01*
X56234318Y-23692930D01*
X56229098Y-23681930D01*
X56224252Y-23670570D01*
X56219779Y-23658849D01*
X56215679Y-23646768D01*
X56213154Y-23638513D01*
X56209662Y-23625856D01*
X56206513Y-23612891D01*
X56203708Y-23599616D01*
X56201247Y-23586031D01*
X56199129Y-23572138D01*
X56197354Y-23557936D01*
X56195923Y-23543424D01*
X56195160Y-23533578D01*
X56194549Y-23523595D01*
X56194091Y-23513474D01*
X56193786Y-23503216D01*
X56193633Y-23492820D01*
X56193614Y-23487571D01*
X56193799Y-23473903D01*
X56194353Y-23460377D01*
X56195276Y-23446993D01*
X56196568Y-23433750D01*
X56197858Y-23423579D01*
X56318667Y-23423579D01*
X56681367Y-23423579D01*
X56681653Y-23412466D01*
X56681535Y-23401598D01*
X56681012Y-23390973D01*
X56680085Y-23380593D01*
X56678753Y-23370457D01*
X56677017Y-23360565D01*
X56674876Y-23350917D01*
X56672330Y-23341514D01*
X56668603Y-23330098D01*
X56664292Y-23319208D01*
X56659397Y-23308842D01*
X56653917Y-23299000D01*
X56647852Y-23289684D01*
X56641204Y-23280892D01*
X56638381Y-23277522D01*
X56630926Y-23269413D01*
X56622910Y-23261875D01*
X56614334Y-23254911D01*
X56605198Y-23248518D01*
X56595501Y-23242698D01*
X56585243Y-23237451D01*
X56580983Y-23235512D01*
X56570024Y-23231150D01*
X56558515Y-23227527D01*
X56548913Y-23225161D01*
X56538960Y-23223268D01*
X56528656Y-23221848D01*
X56518001Y-23220902D01*
X56506995Y-23220429D01*
X56501360Y-23220369D01*
X56489309Y-23220733D01*
X56477580Y-23221824D01*
X56466173Y-23223643D01*
X56455088Y-23226189D01*
X56444325Y-23229463D01*
X56433883Y-23233464D01*
X56429797Y-23235268D01*
X56419937Y-23240146D01*
X56410506Y-23245620D01*
X56401504Y-23251690D01*
X56392932Y-23258357D01*
X56384789Y-23265620D01*
X56377075Y-23273479D01*
X56374110Y-23276789D01*
X56367073Y-23285377D01*
X56360467Y-23294502D01*
X56354289Y-23304163D01*
X56348541Y-23314361D01*
X56343222Y-23325095D01*
X56339276Y-23334069D01*
X56336496Y-23341025D01*
X56333066Y-23350543D01*
X56329978Y-23360290D01*
X56327234Y-23370266D01*
X56324834Y-23380471D01*
X56322777Y-23390904D01*
X56321063Y-23401567D01*
X56319693Y-23412459D01*
X56318667Y-23423579D01*
X56197858Y-23423579D01*
X56198230Y-23420649D01*
X56200260Y-23407689D01*
X56202660Y-23394872D01*
X56205430Y-23382196D01*
X56208568Y-23369661D01*
X56212076Y-23357268D01*
X56214619Y-23349085D01*
X56218725Y-23336954D01*
X56223166Y-23325106D01*
X56227941Y-23313541D01*
X56233052Y-23302259D01*
X56238497Y-23291261D01*
X56244278Y-23280547D01*
X56250393Y-23270115D01*
X56256843Y-23259967D01*
X56263628Y-23250103D01*
X56270747Y-23240521D01*
X56275680Y-23234291D01*
X56283395Y-23225175D01*
X56291428Y-23216419D01*
X56299778Y-23208025D01*
X56308447Y-23199990D01*
X56317433Y-23192317D01*
X56326736Y-23185004D01*
X56336358Y-23178051D01*
X56346297Y-23171460D01*
X56356553Y-23165229D01*
X56367128Y-23159358D01*
X56374354Y-23155645D01*
X56385439Y-23150451D01*
X56396802Y-23145767D01*
X56408445Y-23141595D01*
X56420367Y-23137934D01*
X56432568Y-23134783D01*
X56445048Y-23132143D01*
X56457807Y-23130015D01*
X56470845Y-23128397D01*
X56484162Y-23127290D01*
X56497759Y-23126694D01*
X56506978Y-23126580D01*
X56520344Y-23126778D01*
G37*
G36*
X58252826Y-23830000D02*
G01*
X58252826Y-23335163D01*
X58252766Y-23325375D01*
X58252537Y-23314384D01*
X58252136Y-23304217D01*
X58251452Y-23293398D01*
X58250383Y-23282407D01*
X58248994Y-23272683D01*
X58247030Y-23263021D01*
X58244052Y-23253048D01*
X58242812Y-23249923D01*
X58238161Y-23241250D01*
X58231108Y-23234007D01*
X58229623Y-23233070D01*
X58220216Y-23229258D01*
X58210083Y-23228185D01*
X58200100Y-23229353D01*
X58190666Y-23232856D01*
X58184682Y-23236489D01*
X58176559Y-23243272D01*
X58169569Y-23250667D01*
X58163097Y-23258635D01*
X58159769Y-23263112D01*
X58153764Y-23271806D01*
X58148411Y-23280169D01*
X58142870Y-23289374D01*
X58137140Y-23299420D01*
X58132220Y-23308435D01*
X58130216Y-23312205D01*
X58125035Y-23322091D01*
X58119568Y-23332670D01*
X58114989Y-23341630D01*
X58110226Y-23351034D01*
X58105280Y-23360880D01*
X58100151Y-23371168D01*
X58094839Y-23381900D01*
X58092114Y-23387431D01*
X58092114Y-23830000D01*
X57982693Y-23830000D01*
X57982693Y-23348353D01*
X57982634Y-23336880D01*
X57982455Y-23326123D01*
X57982156Y-23316081D01*
X57981641Y-23304976D01*
X57980954Y-23294901D01*
X57980251Y-23287292D01*
X57979149Y-23277536D01*
X57977546Y-23267618D01*
X57975305Y-23258029D01*
X57972923Y-23250900D01*
X57968232Y-23241594D01*
X57961517Y-23234364D01*
X57959490Y-23233070D01*
X57950331Y-23229406D01*
X57940192Y-23228190D01*
X57939462Y-23228185D01*
X57929741Y-23229314D01*
X57920424Y-23232700D01*
X57916259Y-23235024D01*
X57908414Y-23241024D01*
X57900782Y-23248733D01*
X57894332Y-23256446D01*
X57891835Y-23259692D01*
X57885806Y-23268124D01*
X57880396Y-23276356D01*
X57874763Y-23285515D01*
X57868907Y-23295601D01*
X57863857Y-23304715D01*
X57861793Y-23308541D01*
X57856524Y-23318581D01*
X57850945Y-23329469D01*
X57846259Y-23338788D01*
X57841374Y-23348649D01*
X57836291Y-23359053D01*
X57831009Y-23369998D01*
X57825529Y-23381485D01*
X57822714Y-23387431D01*
X57822714Y-23830000D01*
X57712805Y-23830000D01*
X57712805Y-23142212D01*
X57804152Y-23142212D01*
X57809769Y-23273126D01*
X57814211Y-23263303D01*
X57818623Y-23253861D01*
X57823004Y-23244801D01*
X57828438Y-23234013D01*
X57833823Y-23223821D01*
X57839161Y-23214226D01*
X57844452Y-23205226D01*
X57849742Y-23196717D01*
X57856153Y-23187215D01*
X57862633Y-23178485D01*
X57869182Y-23170528D01*
X57876909Y-23162221D01*
X57879134Y-23160041D01*
X57887052Y-23152899D01*
X57895203Y-23146644D01*
X57903588Y-23141278D01*
X57913457Y-23136233D01*
X57917236Y-23134640D01*
X57927647Y-23131114D01*
X57937207Y-23128855D01*
X57947188Y-23127367D01*
X57957590Y-23126651D01*
X57962177Y-23126580D01*
X57972382Y-23126906D01*
X57982115Y-23127885D01*
X57994358Y-23130206D01*
X58005761Y-23133686D01*
X58016324Y-23138327D01*
X58026048Y-23144127D01*
X58034932Y-23151088D01*
X58042977Y-23159209D01*
X58046685Y-23163705D01*
X58053440Y-23173620D01*
X58059294Y-23184801D01*
X58063093Y-23194019D01*
X58066386Y-23203950D01*
X58069173Y-23214593D01*
X58071453Y-23225949D01*
X58073226Y-23238017D01*
X58074492Y-23250799D01*
X58075252Y-23264293D01*
X58075505Y-23278499D01*
X58079642Y-23269527D01*
X58084770Y-23258666D01*
X58089851Y-23248199D01*
X58094884Y-23238125D01*
X58099869Y-23228445D01*
X58104806Y-23219158D01*
X58107745Y-23213775D01*
X58112760Y-23205142D01*
X58118920Y-23195364D01*
X58125234Y-23186222D01*
X58131703Y-23177716D01*
X58138326Y-23169845D01*
X58141695Y-23166147D01*
X58148693Y-23159238D01*
X58157183Y-23152002D01*
X58166024Y-23145654D01*
X58175215Y-23140194D01*
X58181995Y-23136838D01*
X58191940Y-23132841D01*
X58202538Y-23129826D01*
X58212144Y-23128023D01*
X58222231Y-23126941D01*
X58232798Y-23126580D01*
X58248532Y-23127362D01*
X58263252Y-23129709D01*
X58276956Y-23133621D01*
X58289645Y-23139098D01*
X58301319Y-23146139D01*
X58311978Y-23154744D01*
X58321622Y-23164915D01*
X58330251Y-23176650D01*
X58337864Y-23189950D01*
X58344463Y-23204814D01*
X58350046Y-23221243D01*
X58354614Y-23239237D01*
X58356517Y-23248821D01*
X58358167Y-23258796D01*
X58359563Y-23269162D01*
X58360705Y-23279919D01*
X58361593Y-23291067D01*
X58362227Y-23302607D01*
X58362608Y-23314537D01*
X58362735Y-23326859D01*
X58362735Y-23830000D01*
X58252826Y-23830000D01*
G37*
G36*
X59084228Y-23830000D02*
G01*
X58977006Y-23830000D01*
X58972854Y-23719113D01*
X58965206Y-23728078D01*
X58957650Y-23736653D01*
X58950185Y-23744839D01*
X58942812Y-23752636D01*
X58935530Y-23760043D01*
X58928340Y-23767061D01*
X58919482Y-23775286D01*
X58914235Y-23779930D01*
X58905540Y-23787259D01*
X58896857Y-23794136D01*
X58888186Y-23800559D01*
X58879526Y-23806529D01*
X58870879Y-23812046D01*
X58862243Y-23817110D01*
X58858792Y-23819009D01*
X58848517Y-23824195D01*
X58838207Y-23828763D01*
X58827863Y-23832713D01*
X58817485Y-23836045D01*
X58807072Y-23838758D01*
X58803593Y-23839525D01*
X58793040Y-23841600D01*
X58782264Y-23843246D01*
X58771265Y-23844462D01*
X58760042Y-23845249D01*
X58748596Y-23845607D01*
X58744731Y-23845631D01*
X58731624Y-23845387D01*
X58718925Y-23844654D01*
X58706635Y-23843433D01*
X58694753Y-23841723D01*
X58683279Y-23839525D01*
X58672214Y-23836838D01*
X58661557Y-23833663D01*
X58651308Y-23830000D01*
X58641468Y-23825847D01*
X58632036Y-23821207D01*
X58623012Y-23816078D01*
X58614397Y-23810460D01*
X58606190Y-23804354D01*
X58598391Y-23797759D01*
X58591001Y-23790676D01*
X58584019Y-23783105D01*
X58577453Y-23775010D01*
X58571311Y-23766416D01*
X58565592Y-23757325D01*
X58560297Y-23747735D01*
X58555425Y-23737648D01*
X58550978Y-23727063D01*
X58546953Y-23715979D01*
X58543353Y-23704398D01*
X58540176Y-23692318D01*
X58537422Y-23679741D01*
X58535092Y-23666665D01*
X58533186Y-23653091D01*
X58531703Y-23639020D01*
X58530644Y-23624450D01*
X58530009Y-23609382D01*
X58529797Y-23593817D01*
X58529797Y-23142212D01*
X58649232Y-23142212D01*
X58649232Y-23584780D01*
X58649349Y-23594577D01*
X58650284Y-23613239D01*
X58652154Y-23630656D01*
X58654959Y-23646830D01*
X58658699Y-23661759D01*
X58663374Y-23675444D01*
X58668984Y-23687885D01*
X58675529Y-23699082D01*
X58683008Y-23709035D01*
X58691423Y-23717744D01*
X58700773Y-23725209D01*
X58711058Y-23731429D01*
X58722278Y-23736406D01*
X58734433Y-23740138D01*
X58747523Y-23742626D01*
X58761548Y-23743871D01*
X58768911Y-23744026D01*
X58779825Y-23743614D01*
X58790587Y-23742377D01*
X58801197Y-23740317D01*
X58811653Y-23737431D01*
X58820937Y-23734091D01*
X58830407Y-23729838D01*
X58840064Y-23724674D01*
X58848490Y-23719522D01*
X58855617Y-23714717D01*
X58864430Y-23708268D01*
X58873466Y-23701013D01*
X58881166Y-23694350D01*
X58889022Y-23687126D01*
X58897033Y-23679342D01*
X58905198Y-23670997D01*
X58911896Y-23663872D01*
X58918800Y-23656297D01*
X58925909Y-23648271D01*
X58933225Y-23639795D01*
X58940747Y-23630869D01*
X58948475Y-23621492D01*
X58956409Y-23611665D01*
X58962495Y-23604000D01*
X58964549Y-23601388D01*
X58964549Y-23142212D01*
X59084228Y-23142212D01*
X59084228Y-23830000D01*
G37*
G36*
X59533635Y-22958541D02*
G01*
X59329692Y-22958541D01*
X59329692Y-22860844D01*
X59654535Y-22860844D01*
X59654535Y-23728394D01*
X59859944Y-23728394D01*
X59859944Y-23830000D01*
X59306978Y-23830000D01*
X59306978Y-23728394D01*
X59533635Y-23728394D01*
X59533635Y-22958541D01*
G37*
G36*
X60623203Y-23830000D02*
G01*
X60613025Y-23832003D01*
X60602762Y-23833862D01*
X60592417Y-23835575D01*
X60581987Y-23837144D01*
X60571473Y-23838567D01*
X60560875Y-23839846D01*
X60550193Y-23840979D01*
X60539427Y-23841967D01*
X60528597Y-23842826D01*
X60517720Y-23843570D01*
X60506798Y-23844200D01*
X60495830Y-23844715D01*
X60484816Y-23845116D01*
X60473756Y-23845402D01*
X60462651Y-23845574D01*
X60451500Y-23845631D01*
X60435545Y-23845401D01*
X60420103Y-23844711D01*
X60405175Y-23843562D01*
X60390760Y-23841952D01*
X60376858Y-23839883D01*
X60363469Y-23837353D01*
X60350594Y-23834364D01*
X60338232Y-23830915D01*
X60326384Y-23827007D01*
X60315048Y-23822638D01*
X60304226Y-23817809D01*
X60293917Y-23812521D01*
X60284122Y-23806773D01*
X60274840Y-23800564D01*
X60266071Y-23793896D01*
X60257815Y-23786769D01*
X60250096Y-23779134D01*
X60242874Y-23771007D01*
X60236151Y-23762388D01*
X60229926Y-23753277D01*
X60224198Y-23743673D01*
X60218969Y-23733577D01*
X60214238Y-23722989D01*
X60210005Y-23711908D01*
X60206270Y-23700335D01*
X60203032Y-23688270D01*
X60200293Y-23675712D01*
X60198052Y-23662663D01*
X60196309Y-23649120D01*
X60195064Y-23635086D01*
X60194317Y-23620559D01*
X60194068Y-23605540D01*
X60194068Y-23243817D01*
X60000872Y-23243817D01*
X60000872Y-23142212D01*
X60194068Y-23142212D01*
X60194068Y-22954145D01*
X60313503Y-22923370D01*
X60313503Y-23142212D01*
X60623203Y-23142212D01*
X60623203Y-23243817D01*
X60313503Y-23243817D01*
X60313503Y-23595771D01*
X60313848Y-23609408D01*
X60314885Y-23622384D01*
X60316613Y-23634698D01*
X60319032Y-23646352D01*
X60322143Y-23657344D01*
X60325945Y-23667675D01*
X60330438Y-23677345D01*
X60335622Y-23686354D01*
X60341497Y-23694702D01*
X60348064Y-23702388D01*
X60352826Y-23707145D01*
X60360573Y-23713736D01*
X60368977Y-23719679D01*
X60378038Y-23724973D01*
X60387756Y-23729620D01*
X60398131Y-23733617D01*
X60409163Y-23736967D01*
X60420851Y-23739668D01*
X60433197Y-23741721D01*
X60446199Y-23743126D01*
X60459858Y-23743882D01*
X60469330Y-23744026D01*
X60479783Y-23743937D01*
X60490534Y-23743668D01*
X60501583Y-23743221D01*
X60512931Y-23742595D01*
X60524576Y-23741790D01*
X60536520Y-23740806D01*
X60541381Y-23740362D01*
X60551262Y-23739321D01*
X60561241Y-23738149D01*
X60571320Y-23736848D01*
X60581498Y-23735416D01*
X60591775Y-23733856D01*
X60602152Y-23732165D01*
X60612628Y-23730345D01*
X60623203Y-23728394D01*
X60623203Y-23830000D01*
G37*
G36*
X61071388Y-23239909D02*
G01*
X60867445Y-23239909D01*
X60867445Y-23142212D01*
X61192288Y-23142212D01*
X61192288Y-23728394D01*
X61397697Y-23728394D01*
X61397697Y-23830000D01*
X60844731Y-23830000D01*
X60844731Y-23728394D01*
X61071388Y-23728394D01*
X61071388Y-23239909D01*
G37*
G36*
X61113154Y-22860844D02*
G01*
X61122984Y-22861302D01*
X61133606Y-22862912D01*
X61143764Y-22865681D01*
X61150279Y-22868171D01*
X61159666Y-22872619D01*
X61168319Y-22877994D01*
X61176238Y-22884297D01*
X61180321Y-22888199D01*
X61187020Y-22895790D01*
X61192831Y-22903999D01*
X61197754Y-22912826D01*
X61200104Y-22917997D01*
X61203646Y-22927708D01*
X61206029Y-22937883D01*
X61207253Y-22948522D01*
X61207431Y-22954633D01*
X61206852Y-22965214D01*
X61205113Y-22975524D01*
X61202215Y-22985564D01*
X61200104Y-22991025D01*
X61195676Y-23000314D01*
X61190358Y-23008946D01*
X61184152Y-23016921D01*
X61180321Y-23021067D01*
X61172809Y-23027904D01*
X61164564Y-23033853D01*
X61155584Y-23038912D01*
X61150279Y-23041339D01*
X61140430Y-23044763D01*
X61130117Y-23047067D01*
X61119341Y-23048249D01*
X61113154Y-23048422D01*
X61102219Y-23047862D01*
X61091670Y-23046181D01*
X61081508Y-23043380D01*
X61076029Y-23041339D01*
X61066760Y-23036773D01*
X61058186Y-23031319D01*
X61050307Y-23024975D01*
X61046231Y-23021067D01*
X61039512Y-23013457D01*
X61033643Y-23005190D01*
X61028624Y-22996267D01*
X61026203Y-22991025D01*
X61022779Y-22981136D01*
X61020476Y-22970975D01*
X61019293Y-22960545D01*
X61019120Y-22954633D01*
X61019681Y-22943737D01*
X61021361Y-22933304D01*
X61024163Y-22923335D01*
X61026203Y-22917997D01*
X61030750Y-22908826D01*
X61036147Y-22900274D01*
X61042393Y-22892340D01*
X61046231Y-22888199D01*
X61053723Y-22881381D01*
X61061910Y-22875491D01*
X61070793Y-22870528D01*
X61076029Y-22868171D01*
X61085976Y-22864629D01*
X61096311Y-22862246D01*
X61107031Y-22861023D01*
X61113154Y-22860844D01*
G37*
G36*
X61540823Y-23142212D02*
G01*
X61676866Y-23142212D01*
X61845638Y-23597236D01*
X61882030Y-23708122D01*
X61919888Y-23594305D01*
X62087438Y-23142212D01*
X62218841Y-23142212D01*
X61947976Y-23830000D01*
X61810711Y-23830000D01*
X61540823Y-23142212D01*
G37*
G36*
X62609141Y-23239909D02*
G01*
X62405198Y-23239909D01*
X62405198Y-23142212D01*
X62730041Y-23142212D01*
X62730041Y-23728394D01*
X62935450Y-23728394D01*
X62935450Y-23830000D01*
X62382484Y-23830000D01*
X62382484Y-23728394D01*
X62609141Y-23728394D01*
X62609141Y-23239909D01*
G37*
G36*
X62650907Y-22860844D02*
G01*
X62660737Y-22861302D01*
X62671359Y-22862912D01*
X62681517Y-22865681D01*
X62688032Y-22868171D01*
X62697419Y-22872619D01*
X62706072Y-22877994D01*
X62713991Y-22884297D01*
X62718073Y-22888199D01*
X62724773Y-22895790D01*
X62730584Y-22903999D01*
X62735507Y-22912826D01*
X62737857Y-22917997D01*
X62741399Y-22927708D01*
X62743782Y-22937883D01*
X62745006Y-22948522D01*
X62745184Y-22954633D01*
X62744605Y-22965214D01*
X62742866Y-22975524D01*
X62739968Y-22985564D01*
X62737857Y-22991025D01*
X62733429Y-23000314D01*
X62728111Y-23008946D01*
X62721905Y-23016921D01*
X62718073Y-23021067D01*
X62710562Y-23027904D01*
X62702317Y-23033853D01*
X62693337Y-23038912D01*
X62688032Y-23041339D01*
X62678183Y-23044763D01*
X62667870Y-23047067D01*
X62657094Y-23048249D01*
X62650907Y-23048422D01*
X62639972Y-23047862D01*
X62629423Y-23046181D01*
X62619261Y-23043380D01*
X62613782Y-23041339D01*
X62604512Y-23036773D01*
X62595939Y-23031319D01*
X62588060Y-23024975D01*
X62583984Y-23021067D01*
X62577265Y-23013457D01*
X62571396Y-23005190D01*
X62566377Y-22996267D01*
X62563956Y-22991025D01*
X62560532Y-22981136D01*
X62558229Y-22970975D01*
X62557046Y-22960545D01*
X62556873Y-22954633D01*
X62557433Y-22943737D01*
X62559114Y-22933304D01*
X62561916Y-22923335D01*
X62563956Y-22917997D01*
X62568503Y-22908826D01*
X62573900Y-22900274D01*
X62580146Y-22892340D01*
X62583984Y-22888199D01*
X62591476Y-22881381D01*
X62599663Y-22875491D01*
X62608546Y-22870528D01*
X62613782Y-22868171D01*
X62623729Y-22864629D01*
X62634063Y-22862246D01*
X62644784Y-22861023D01*
X62650907Y-22860844D01*
G37*
G36*
X63262491Y-23127313D02*
G01*
X63257117Y-23254563D01*
X63263587Y-23245933D01*
X63270112Y-23237627D01*
X63276692Y-23229645D01*
X63283328Y-23221987D01*
X63290019Y-23214654D01*
X63300159Y-23204263D01*
X63310423Y-23194602D01*
X63320813Y-23185670D01*
X63331326Y-23177468D01*
X63341964Y-23169997D01*
X63352727Y-23163255D01*
X63363614Y-23157243D01*
X63367271Y-23155401D01*
X63378381Y-23150250D01*
X63389636Y-23145606D01*
X63401038Y-23141469D01*
X63412586Y-23137838D01*
X63424279Y-23134714D01*
X63436119Y-23132097D01*
X63448104Y-23129986D01*
X63460236Y-23128381D01*
X63472513Y-23127284D01*
X63484937Y-23126693D01*
X63493300Y-23126580D01*
X63504256Y-23126801D01*
X63514959Y-23127465D01*
X63525408Y-23128570D01*
X63535604Y-23130118D01*
X63545547Y-23132108D01*
X63555236Y-23134540D01*
X63564672Y-23137414D01*
X63576859Y-23141935D01*
X63588596Y-23147241D01*
X63597103Y-23151737D01*
X63608049Y-23158290D01*
X63618536Y-23165491D01*
X63628565Y-23173341D01*
X63638136Y-23181840D01*
X63647250Y-23190988D01*
X63653784Y-23198274D01*
X63660061Y-23205926D01*
X63666080Y-23213942D01*
X63671842Y-23222323D01*
X63677387Y-23231009D01*
X63682667Y-23240029D01*
X63687680Y-23249384D01*
X63692427Y-23259074D01*
X63696908Y-23269099D01*
X63701122Y-23279459D01*
X63705071Y-23290154D01*
X63708753Y-23301183D01*
X63712169Y-23312548D01*
X63715319Y-23324247D01*
X63717271Y-23332233D01*
X63719977Y-23344408D01*
X63722417Y-23356845D01*
X63724591Y-23369544D01*
X63726499Y-23382505D01*
X63728140Y-23395727D01*
X63729516Y-23409212D01*
X63730625Y-23422959D01*
X63731468Y-23436967D01*
X63732044Y-23451237D01*
X63732355Y-23465769D01*
X63732414Y-23475603D01*
X63732321Y-23486400D01*
X63732044Y-23497055D01*
X63731581Y-23507566D01*
X63730933Y-23517933D01*
X63730100Y-23528158D01*
X63729082Y-23538240D01*
X63727879Y-23548179D01*
X63726491Y-23557974D01*
X63724918Y-23567626D01*
X63722211Y-23581837D01*
X63719088Y-23595725D01*
X63715548Y-23609291D01*
X63711591Y-23622535D01*
X63708722Y-23631186D01*
X63704104Y-23643826D01*
X63699134Y-23656101D01*
X63693812Y-23668012D01*
X63688137Y-23679557D01*
X63682111Y-23690738D01*
X63675733Y-23701554D01*
X63669002Y-23712004D01*
X63661919Y-23722090D01*
X63654485Y-23731811D01*
X63646698Y-23741167D01*
X63641311Y-23747201D01*
X63632992Y-23755936D01*
X63624338Y-23764280D01*
X63615350Y-23772233D01*
X63606026Y-23779796D01*
X63596367Y-23786968D01*
X63586374Y-23793749D01*
X63576046Y-23800140D01*
X63565382Y-23806140D01*
X63554384Y-23811749D01*
X63543051Y-23816968D01*
X63535310Y-23820230D01*
X63523447Y-23824769D01*
X63511305Y-23828862D01*
X63498883Y-23832509D01*
X63486183Y-23835709D01*
X63473203Y-23838462D01*
X63459945Y-23840769D01*
X63446407Y-23842630D01*
X63432591Y-23844043D01*
X63418495Y-23845011D01*
X63404120Y-23845532D01*
X63394382Y-23845631D01*
X63382907Y-23845528D01*
X63371381Y-23845219D01*
X63359803Y-23844704D01*
X63348174Y-23843982D01*
X63336493Y-23843055D01*
X63324761Y-23841922D01*
X63312977Y-23840582D01*
X63301142Y-23839036D01*
X63289255Y-23837285D01*
X63277317Y-23835327D01*
X63269330Y-23833907D01*
X63257388Y-23831589D01*
X63245467Y-23829030D01*
X63233568Y-23826231D01*
X63221691Y-23823191D01*
X63209835Y-23819911D01*
X63198000Y-23816391D01*
X63186187Y-23812630D01*
X63174395Y-23808628D01*
X63162625Y-23804386D01*
X63150877Y-23799904D01*
X63143056Y-23796782D01*
X63143056Y-23717892D01*
X63262491Y-23717892D01*
X63273512Y-23722099D01*
X63284592Y-23726021D01*
X63295732Y-23729656D01*
X63306932Y-23733005D01*
X63318191Y-23736067D01*
X63329510Y-23738843D01*
X63334054Y-23739874D01*
X63345343Y-23742196D01*
X63356465Y-23744124D01*
X63367420Y-23745659D01*
X63378208Y-23746800D01*
X63388830Y-23747548D01*
X63399284Y-23747902D01*
X63403419Y-23747934D01*
X63413677Y-23747728D01*
X63423813Y-23747110D01*
X63433827Y-23746079D01*
X63443719Y-23744637D01*
X63453489Y-23742782D01*
X63463136Y-23740515D01*
X63472662Y-23737836D01*
X63482065Y-23734745D01*
X63491270Y-23731169D01*
X63500200Y-23727036D01*
X63508855Y-23722346D01*
X63517236Y-23717098D01*
X63525342Y-23711294D01*
X63533173Y-23704932D01*
X63540729Y-23698013D01*
X63548011Y-23690537D01*
X63554972Y-23682469D01*
X63561566Y-23673776D01*
X63567794Y-23664456D01*
X63573656Y-23654511D01*
X63579152Y-23643940D01*
X63584281Y-23632743D01*
X63589043Y-23620920D01*
X63592375Y-23611642D01*
X63593440Y-23608471D01*
X63596452Y-23598637D01*
X63599167Y-23588370D01*
X63601586Y-23577669D01*
X63603709Y-23566534D01*
X63605536Y-23554966D01*
X63607067Y-23542964D01*
X63608301Y-23530528D01*
X63609239Y-23517659D01*
X63609881Y-23504356D01*
X63610227Y-23490619D01*
X63610293Y-23481221D01*
X63610222Y-23470996D01*
X63610009Y-23460930D01*
X63609655Y-23451024D01*
X63608962Y-23438062D01*
X63608018Y-23425382D01*
X63606821Y-23412985D01*
X63605373Y-23400870D01*
X63603673Y-23389037D01*
X63602233Y-23380348D01*
X63600130Y-23369075D01*
X63597729Y-23358214D01*
X63595031Y-23347765D01*
X63592035Y-23337728D01*
X63588742Y-23328103D01*
X63585151Y-23318891D01*
X63580243Y-23307955D01*
X63577076Y-23301702D01*
X63571494Y-23291826D01*
X63565436Y-23282654D01*
X63558900Y-23274186D01*
X63551888Y-23266421D01*
X63544399Y-23259359D01*
X63536432Y-23253002D01*
X63533112Y-23250655D01*
X63524536Y-23245308D01*
X63515447Y-23240867D01*
X63505846Y-23237332D01*
X63495731Y-23234703D01*
X63485104Y-23232981D01*
X63473964Y-23232166D01*
X63469364Y-23232093D01*
X63459392Y-23232444D01*
X63449349Y-23233495D01*
X63439236Y-23235249D01*
X63429053Y-23237703D01*
X63423203Y-23239420D01*
X63412958Y-23243093D01*
X63402526Y-23247702D01*
X63393435Y-23252396D01*
X63384208Y-23257777D01*
X63374842Y-23263845D01*
X63365397Y-23270642D01*
X63357369Y-23276897D01*
X63349197Y-23283689D01*
X63340882Y-23291018D01*
X63332424Y-23298883D01*
X63323823Y-23307285D01*
X63322086Y-23309030D01*
X63315064Y-23316265D01*
X63307920Y-23323928D01*
X63300654Y-23332019D01*
X63293265Y-23340537D01*
X63285755Y-23349482D01*
X63278122Y-23358855D01*
X63270368Y-23368655D01*
X63262491Y-23378883D01*
X63262491Y-23717892D01*
X63143056Y-23717892D01*
X63143056Y-22860844D01*
X63262491Y-22860844D01*
X63262491Y-23127313D01*
G37*
G36*
X63940020Y-23142212D02*
G01*
X64049441Y-23142212D01*
X64052861Y-23270683D01*
X64060487Y-23261353D01*
X64068099Y-23252350D01*
X64075698Y-23243675D01*
X64083284Y-23235329D01*
X64090857Y-23227311D01*
X64098416Y-23219621D01*
X64105962Y-23212260D01*
X64113494Y-23205226D01*
X64121013Y-23198521D01*
X64128519Y-23192144D01*
X64139752Y-23183194D01*
X64150956Y-23174982D01*
X64162129Y-23167509D01*
X64173272Y-23160774D01*
X64184411Y-23154663D01*
X64195572Y-23149153D01*
X64206754Y-23144245D01*
X64217957Y-23139937D01*
X64229182Y-23136231D01*
X64240429Y-23133125D01*
X64251696Y-23130621D01*
X64262986Y-23128717D01*
X64274297Y-23127415D01*
X64285629Y-23126714D01*
X64293196Y-23126580D01*
X64306395Y-23126857D01*
X64319188Y-23127687D01*
X64331575Y-23129070D01*
X64343555Y-23131007D01*
X64355129Y-23133497D01*
X64366297Y-23136541D01*
X64377058Y-23140137D01*
X64387412Y-23144288D01*
X64397360Y-23148991D01*
X64406902Y-23154248D01*
X64416037Y-23160059D01*
X64424766Y-23166422D01*
X64433089Y-23173339D01*
X64441004Y-23180810D01*
X64448514Y-23188833D01*
X64455617Y-23197411D01*
X64462315Y-23206533D01*
X64468547Y-23216194D01*
X64474313Y-23226393D01*
X64479614Y-23237131D01*
X64484449Y-23248406D01*
X64488819Y-23260219D01*
X64492723Y-23272571D01*
X64496161Y-23285460D01*
X64499134Y-23298888D01*
X64501642Y-23312853D01*
X64503683Y-23327357D01*
X64505259Y-23342399D01*
X64506370Y-23357979D01*
X64507015Y-23374097D01*
X64507194Y-23390754D01*
X64506908Y-23407948D01*
X64386008Y-23407948D01*
X64386133Y-23396336D01*
X64386019Y-23385130D01*
X64385667Y-23374331D01*
X64385077Y-23363938D01*
X64384248Y-23353952D01*
X64382557Y-23339735D01*
X64380329Y-23326432D01*
X64377565Y-23314043D01*
X64374264Y-23302569D01*
X64370427Y-23292010D01*
X64366052Y-23282365D01*
X64361142Y-23273635D01*
X64359385Y-23270928D01*
X64351886Y-23260910D01*
X64343555Y-23252228D01*
X64334392Y-23244881D01*
X64324398Y-23238871D01*
X64313571Y-23234196D01*
X64301912Y-23230857D01*
X64289421Y-23228853D01*
X64279507Y-23228227D01*
X64276099Y-23228185D01*
X64265508Y-23228618D01*
X64254894Y-23229915D01*
X64244257Y-23232077D01*
X64233597Y-23235104D01*
X64227494Y-23237222D01*
X64218367Y-23240989D01*
X64209119Y-23245511D01*
X64199751Y-23250789D01*
X64190262Y-23256823D01*
X64180654Y-23263612D01*
X64177424Y-23266043D01*
X64169327Y-23272429D01*
X64161062Y-23279376D01*
X64152630Y-23286883D01*
X64144032Y-23294951D01*
X64137033Y-23301809D01*
X64129927Y-23309026D01*
X64122714Y-23316601D01*
X64115444Y-23324501D01*
X64108044Y-23332813D01*
X64100515Y-23341537D01*
X64092855Y-23350673D01*
X64085066Y-23360221D01*
X64077148Y-23370182D01*
X64071123Y-23377923D01*
X64065026Y-23385895D01*
X64060921Y-23391339D01*
X64060921Y-23830000D01*
X63940020Y-23830000D01*
X63940020Y-23142212D01*
G37*
G36*
X64973302Y-23126702D02*
G01*
X64984698Y-23127070D01*
X64995874Y-23127681D01*
X65006831Y-23128538D01*
X65017570Y-23129639D01*
X65028089Y-23130985D01*
X65038389Y-23132576D01*
X65048471Y-23134411D01*
X65058333Y-23136491D01*
X65067977Y-23138816D01*
X65074284Y-23140502D01*
X65086618Y-23144150D01*
X65098464Y-23148257D01*
X65109822Y-23152821D01*
X65120690Y-23157843D01*
X65131071Y-23163323D01*
X65140963Y-23169262D01*
X65150366Y-23175658D01*
X65159281Y-23182512D01*
X65167699Y-23189763D01*
X65175614Y-23197472D01*
X65183026Y-23205638D01*
X65189933Y-23214263D01*
X65196337Y-23223346D01*
X65202237Y-23232887D01*
X65207633Y-23242885D01*
X65212526Y-23253342D01*
X65216876Y-23264207D01*
X65220647Y-23275553D01*
X65223837Y-23287380D01*
X65226448Y-23299687D01*
X65228478Y-23312476D01*
X65229620Y-23322382D01*
X65230436Y-23332560D01*
X65230925Y-23343008D01*
X65231088Y-23353726D01*
X65231088Y-23830000D01*
X65123866Y-23830000D01*
X65121179Y-23737676D01*
X65114120Y-23744696D01*
X65107047Y-23751468D01*
X65096413Y-23761161D01*
X65085749Y-23770295D01*
X65075055Y-23778872D01*
X65064331Y-23786891D01*
X65053577Y-23794351D01*
X65042793Y-23801253D01*
X65031979Y-23807597D01*
X65021135Y-23813383D01*
X65010260Y-23818611D01*
X65006629Y-23820230D01*
X64995722Y-23824769D01*
X64984707Y-23828862D01*
X64973585Y-23832509D01*
X64962356Y-23835709D01*
X64951020Y-23838462D01*
X64939576Y-23840769D01*
X64928024Y-23842630D01*
X64916366Y-23844043D01*
X64904600Y-23845011D01*
X64892727Y-23845532D01*
X64884752Y-23845631D01*
X64873820Y-23845498D01*
X64863188Y-23845099D01*
X64852857Y-23844433D01*
X64842826Y-23843502D01*
X64833096Y-23842304D01*
X64820590Y-23840293D01*
X64808618Y-23837808D01*
X64797181Y-23834850D01*
X64786278Y-23831420D01*
X64783635Y-23830488D01*
X64773423Y-23826527D01*
X64763668Y-23822214D01*
X64754372Y-23817551D01*
X64745533Y-23812536D01*
X64737153Y-23807170D01*
X64729230Y-23801454D01*
X64719971Y-23793814D01*
X64714759Y-23788967D01*
X64706638Y-23780427D01*
X64699222Y-23771445D01*
X64692509Y-23762022D01*
X64686499Y-23752159D01*
X64681193Y-23741853D01*
X64676591Y-23731107D01*
X64674947Y-23726685D01*
X64671288Y-23715322D01*
X64668250Y-23703673D01*
X64665831Y-23691737D01*
X64664343Y-23681983D01*
X64663251Y-23672045D01*
X64662557Y-23661924D01*
X64662259Y-23651620D01*
X64662247Y-23649016D01*
X64662385Y-23643154D01*
X64788764Y-23643154D01*
X64789146Y-23652954D01*
X64790488Y-23663760D01*
X64792795Y-23674335D01*
X64794870Y-23681256D01*
X64798904Y-23691113D01*
X64804135Y-23700352D01*
X64810565Y-23708973D01*
X64814654Y-23713496D01*
X64822119Y-23720212D01*
X64830591Y-23726196D01*
X64840071Y-23731448D01*
X64849192Y-23735441D01*
X64850558Y-23735966D01*
X64860631Y-23739107D01*
X64871615Y-23741476D01*
X64881756Y-23742893D01*
X64892567Y-23743743D01*
X64904047Y-23744026D01*
X64914553Y-23743637D01*
X64925433Y-23742469D01*
X64936688Y-23740523D01*
X64948316Y-23737798D01*
X64960318Y-23734294D01*
X64972694Y-23730013D01*
X64982222Y-23726290D01*
X64991960Y-23722130D01*
X64998569Y-23719113D01*
X65008604Y-23714141D01*
X65018742Y-23708658D01*
X65028983Y-23702663D01*
X65039327Y-23696158D01*
X65049774Y-23689142D01*
X65060324Y-23681615D01*
X65070977Y-23673577D01*
X65081734Y-23665029D01*
X65092593Y-23655969D01*
X65103555Y-23646399D01*
X65110921Y-23639734D01*
X65110921Y-23517369D01*
X64959002Y-23517369D01*
X64948022Y-23517510D01*
X64937432Y-23517933D01*
X64927231Y-23518639D01*
X64917419Y-23519628D01*
X64905702Y-23521261D01*
X64894593Y-23523334D01*
X64884092Y-23525850D01*
X64882065Y-23526406D01*
X64872270Y-23529344D01*
X64863036Y-23532664D01*
X64852695Y-23537152D01*
X64843161Y-23542190D01*
X64834434Y-23547777D01*
X64829064Y-23551807D01*
X64820591Y-23559294D01*
X64813123Y-23567435D01*
X64806660Y-23576230D01*
X64801202Y-23585680D01*
X64798534Y-23591374D01*
X64794727Y-23601699D01*
X64791856Y-23612585D01*
X64790138Y-23622363D01*
X64789108Y-23632552D01*
X64788764Y-23643154D01*
X64662385Y-23643154D01*
X64662548Y-23636187D01*
X64663452Y-23623714D01*
X64664960Y-23611595D01*
X64667070Y-23599831D01*
X64669784Y-23588422D01*
X64673100Y-23577368D01*
X64677019Y-23566669D01*
X64681542Y-23556325D01*
X64686667Y-23546336D01*
X64692395Y-23536702D01*
X64698726Y-23527423D01*
X64705661Y-23518498D01*
X64713198Y-23509929D01*
X64721338Y-23501714D01*
X64730081Y-23493855D01*
X64739427Y-23486350D01*
X64749394Y-23479222D01*
X64759936Y-23472554D01*
X64771055Y-23466346D01*
X64782750Y-23460597D01*
X64795021Y-23455309D01*
X64807869Y-23450480D01*
X64821293Y-23446112D01*
X64835293Y-23442203D01*
X64849869Y-23438754D01*
X64865022Y-23435765D01*
X64880750Y-23433236D01*
X64897056Y-23431166D01*
X64913937Y-23429557D01*
X64931395Y-23428407D01*
X64949428Y-23427717D01*
X64968039Y-23427487D01*
X65110921Y-23427487D01*
X65110921Y-23365694D01*
X65110575Y-23354191D01*
X65109538Y-23343131D01*
X65107810Y-23332513D01*
X65105391Y-23322337D01*
X65102280Y-23312603D01*
X65098479Y-23303312D01*
X65093986Y-23294462D01*
X65088801Y-23286055D01*
X65082926Y-23278091D01*
X65076359Y-23270568D01*
X65071598Y-23265799D01*
X65063907Y-23259077D01*
X65055492Y-23253016D01*
X65046351Y-23247616D01*
X65036484Y-23242878D01*
X65025891Y-23238801D01*
X65014574Y-23235385D01*
X65002530Y-23232630D01*
X64989761Y-23230536D01*
X64976266Y-23229103D01*
X64962046Y-23228332D01*
X64952163Y-23228185D01*
X64941233Y-23228292D01*
X64930333Y-23228614D01*
X64919463Y-23229151D01*
X64908623Y-23229902D01*
X64897813Y-23230868D01*
X64887033Y-23232049D01*
X64876283Y-23233444D01*
X64865563Y-23235054D01*
X64854874Y-23236879D01*
X64844214Y-23238918D01*
X64837124Y-23240397D01*
X64826466Y-23242777D01*
X64815738Y-23245337D01*
X64804942Y-23248078D01*
X64794077Y-23250999D01*
X64783143Y-23254100D01*
X64772141Y-23257382D01*
X64761069Y-23260844D01*
X64749930Y-23264486D01*
X64738721Y-23268308D01*
X64727444Y-23272311D01*
X64719888Y-23275080D01*
X64719888Y-23165659D01*
X64730071Y-23162465D01*
X64740745Y-23159294D01*
X64750285Y-23156595D01*
X64760185Y-23153913D01*
X64770446Y-23151249D01*
X64780991Y-23148653D01*
X64791741Y-23146177D01*
X64802698Y-23143821D01*
X64813860Y-23141586D01*
X64825229Y-23139471D01*
X64829064Y-23138792D01*
X64838823Y-23137096D01*
X64848714Y-23135520D01*
X64858735Y-23134062D01*
X64868887Y-23132724D01*
X64879171Y-23131506D01*
X64889586Y-23130406D01*
X64893789Y-23130000D01*
X64904334Y-23129014D01*
X64914902Y-23128196D01*
X64925495Y-23127545D01*
X64936111Y-23127061D01*
X64946752Y-23126744D01*
X64957416Y-23126593D01*
X64961688Y-23126580D01*
X64973302Y-23126702D01*
G37*
G36*
X66005338Y-23830000D02*
G01*
X65995160Y-23832003D01*
X65984898Y-23833862D01*
X65974552Y-23835575D01*
X65964122Y-23837144D01*
X65953608Y-23838567D01*
X65943010Y-23839846D01*
X65932328Y-23840979D01*
X65921563Y-23841967D01*
X65910732Y-23842826D01*
X65899856Y-23843570D01*
X65888933Y-23844200D01*
X65877965Y-23844715D01*
X65866951Y-23845116D01*
X65855892Y-23845402D01*
X65844786Y-23845574D01*
X65833635Y-23845631D01*
X65817680Y-23845401D01*
X65802239Y-23844711D01*
X65787310Y-23843562D01*
X65772895Y-23841952D01*
X65758993Y-23839883D01*
X65745605Y-23837353D01*
X65732730Y-23834364D01*
X65720368Y-23830915D01*
X65708519Y-23827007D01*
X65697184Y-23822638D01*
X65686362Y-23817809D01*
X65676053Y-23812521D01*
X65666257Y-23806773D01*
X65656975Y-23800564D01*
X65648206Y-23793896D01*
X65639951Y-23786769D01*
X65632231Y-23779134D01*
X65625010Y-23771007D01*
X65618287Y-23762388D01*
X65612061Y-23753277D01*
X65606334Y-23743673D01*
X65601105Y-23733577D01*
X65596373Y-23722989D01*
X65592140Y-23711908D01*
X65588405Y-23700335D01*
X65585168Y-23688270D01*
X65582429Y-23675712D01*
X65580187Y-23662663D01*
X65578444Y-23649120D01*
X65577199Y-23635086D01*
X65576452Y-23620559D01*
X65576203Y-23605540D01*
X65576203Y-23243817D01*
X65383007Y-23243817D01*
X65383007Y-23142212D01*
X65576203Y-23142212D01*
X65576203Y-22954145D01*
X65695638Y-22923370D01*
X65695638Y-23142212D01*
X66005338Y-23142212D01*
X66005338Y-23243817D01*
X65695638Y-23243817D01*
X65695638Y-23595771D01*
X65695984Y-23609408D01*
X65697020Y-23622384D01*
X65698749Y-23634698D01*
X65701168Y-23646352D01*
X65704278Y-23657344D01*
X65708080Y-23667675D01*
X65712573Y-23677345D01*
X65717757Y-23686354D01*
X65723633Y-23694702D01*
X65730199Y-23702388D01*
X65734961Y-23707145D01*
X65742708Y-23713736D01*
X65751113Y-23719679D01*
X65760174Y-23724973D01*
X65769892Y-23729620D01*
X65780266Y-23733617D01*
X65791298Y-23736967D01*
X65802987Y-23739668D01*
X65815332Y-23741721D01*
X65828335Y-23743126D01*
X65841994Y-23743882D01*
X65851465Y-23744026D01*
X65861918Y-23743937D01*
X65872669Y-23743668D01*
X65883719Y-23743221D01*
X65895066Y-23742595D01*
X65906712Y-23741790D01*
X65918656Y-23740806D01*
X65923517Y-23740362D01*
X65933397Y-23739321D01*
X65943377Y-23738149D01*
X65953455Y-23736848D01*
X65963633Y-23735416D01*
X65973911Y-23733856D01*
X65984287Y-23732165D01*
X65994763Y-23730345D01*
X66005338Y-23728394D01*
X66005338Y-23830000D01*
G37*
G36*
X66516113Y-23126784D02*
G01*
X66529583Y-23127396D01*
X66542783Y-23128415D01*
X66555712Y-23129843D01*
X66568371Y-23131678D01*
X66580760Y-23133922D01*
X66592878Y-23136573D01*
X66604725Y-23139632D01*
X66616302Y-23143099D01*
X66627609Y-23146973D01*
X66634996Y-23149783D01*
X66645874Y-23154323D01*
X66656434Y-23159240D01*
X66666677Y-23164535D01*
X66676601Y-23170208D01*
X66686208Y-23176259D01*
X66695498Y-23182687D01*
X66704469Y-23189494D01*
X66713123Y-23196678D01*
X66721459Y-23204240D01*
X66729478Y-23212180D01*
X66734647Y-23217683D01*
X66742169Y-23226211D01*
X66749347Y-23235125D01*
X66756182Y-23244426D01*
X66762674Y-23254113D01*
X66768822Y-23264187D01*
X66774627Y-23274647D01*
X66780088Y-23285493D01*
X66785205Y-23296726D01*
X66789980Y-23308345D01*
X66794410Y-23320351D01*
X66797173Y-23328569D01*
X66801058Y-23341151D01*
X66804561Y-23354077D01*
X66807681Y-23367346D01*
X66810420Y-23380959D01*
X66812776Y-23394915D01*
X66814750Y-23409215D01*
X66815854Y-23418939D01*
X66816788Y-23428815D01*
X66817552Y-23438845D01*
X66818147Y-23449026D01*
X66818571Y-23459361D01*
X66818826Y-23469848D01*
X66818911Y-23480488D01*
X66818822Y-23490571D01*
X66818556Y-23500546D01*
X66818112Y-23510415D01*
X66817491Y-23520177D01*
X66816227Y-23534620D01*
X66814563Y-23548823D01*
X66812500Y-23562784D01*
X66810038Y-23576506D01*
X66807176Y-23589987D01*
X66803916Y-23603228D01*
X66800256Y-23616228D01*
X66796196Y-23628988D01*
X66791805Y-23641458D01*
X66787057Y-23653588D01*
X66781953Y-23665380D01*
X66776493Y-23676833D01*
X66770676Y-23687946D01*
X66764503Y-23698720D01*
X66757973Y-23709155D01*
X66751088Y-23719251D01*
X66743846Y-23729007D01*
X66736247Y-23738425D01*
X66730983Y-23744515D01*
X66722850Y-23753304D01*
X66714385Y-23761719D01*
X66705591Y-23769761D01*
X66696465Y-23777430D01*
X66687009Y-23784725D01*
X66677222Y-23791647D01*
X66667105Y-23798195D01*
X66656657Y-23804369D01*
X66645879Y-23810170D01*
X66634770Y-23815598D01*
X66627180Y-23819009D01*
X66615585Y-23823766D01*
X66603699Y-23828056D01*
X66591520Y-23831878D01*
X66579049Y-23835232D01*
X66566286Y-23838117D01*
X66553232Y-23840535D01*
X66539885Y-23842485D01*
X66526247Y-23843967D01*
X66512316Y-23844981D01*
X66498094Y-23845527D01*
X66488450Y-23845631D01*
X66474707Y-23845427D01*
X66461231Y-23844815D01*
X66448020Y-23843796D01*
X66435076Y-23842368D01*
X66422397Y-23840533D01*
X66409985Y-23838289D01*
X66397840Y-23835638D01*
X66385960Y-23832579D01*
X66374346Y-23829112D01*
X66362999Y-23825238D01*
X66355582Y-23822428D01*
X66344746Y-23817886D01*
X66334219Y-23812963D01*
X66324000Y-23807657D01*
X66314091Y-23801969D01*
X66304492Y-23795899D01*
X66295201Y-23789447D01*
X66286219Y-23782612D01*
X66277547Y-23775396D01*
X66269183Y-23767797D01*
X66261129Y-23759817D01*
X66255931Y-23754284D01*
X66248451Y-23745671D01*
X66241305Y-23736684D01*
X66234495Y-23727324D01*
X66228019Y-23717591D01*
X66221878Y-23707483D01*
X66216072Y-23697003D01*
X66210601Y-23686148D01*
X66205464Y-23674921D01*
X66200663Y-23663319D01*
X66196197Y-23651344D01*
X66193405Y-23643154D01*
X66189564Y-23630521D01*
X66186101Y-23617537D01*
X66183015Y-23604200D01*
X66180307Y-23590512D01*
X66177978Y-23576471D01*
X66176026Y-23562078D01*
X66174934Y-23552288D01*
X66174011Y-23542341D01*
X66173255Y-23532237D01*
X66172667Y-23521977D01*
X66172247Y-23511560D01*
X66171996Y-23500987D01*
X66171912Y-23490258D01*
X66171950Y-23485861D01*
X66294033Y-23485861D01*
X66294158Y-23497768D01*
X66294531Y-23509400D01*
X66295154Y-23520758D01*
X66296025Y-23531840D01*
X66297146Y-23542648D01*
X66298515Y-23553181D01*
X66300134Y-23563439D01*
X66302001Y-23573422D01*
X66304118Y-23583131D01*
X66307328Y-23595648D01*
X66308199Y-23598702D01*
X66311924Y-23610540D01*
X66316015Y-23621874D01*
X66320472Y-23632705D01*
X66325296Y-23643032D01*
X66330486Y-23652855D01*
X66336043Y-23662174D01*
X66341966Y-23670990D01*
X66348255Y-23679302D01*
X66354960Y-23687114D01*
X66362009Y-23694429D01*
X66369401Y-23701249D01*
X66377137Y-23707573D01*
X66385216Y-23713400D01*
X66393638Y-23718732D01*
X66402404Y-23723567D01*
X66411514Y-23727906D01*
X66420944Y-23731684D01*
X66430672Y-23734959D01*
X66440697Y-23737729D01*
X66451020Y-23739996D01*
X66461641Y-23741759D01*
X66472559Y-23743019D01*
X66483775Y-23743774D01*
X66495289Y-23744026D01*
X66505227Y-23743841D01*
X66518049Y-23743021D01*
X66530384Y-23741544D01*
X66542230Y-23739411D01*
X66553587Y-23736621D01*
X66564456Y-23733175D01*
X66574836Y-23729072D01*
X66584728Y-23724313D01*
X66587124Y-23723021D01*
X66596436Y-23717491D01*
X66605321Y-23711526D01*
X66613777Y-23705127D01*
X66621807Y-23698292D01*
X66629409Y-23691022D01*
X66636584Y-23683316D01*
X66643331Y-23675176D01*
X66649651Y-23666601D01*
X66655551Y-23657572D01*
X66661038Y-23648191D01*
X66666114Y-23638460D01*
X66670778Y-23628377D01*
X66675029Y-23617943D01*
X66678868Y-23607158D01*
X66682295Y-23596022D01*
X66685310Y-23584535D01*
X66688001Y-23572735D01*
X66690332Y-23560783D01*
X66692305Y-23548678D01*
X66693920Y-23536420D01*
X66695175Y-23524009D01*
X66696072Y-23511446D01*
X66696610Y-23498730D01*
X66696789Y-23485861D01*
X66696665Y-23473915D01*
X66696291Y-23462257D01*
X66695669Y-23450886D01*
X66694797Y-23439802D01*
X66693677Y-23429007D01*
X66692307Y-23418499D01*
X66690689Y-23408279D01*
X66688821Y-23398346D01*
X66686704Y-23388701D01*
X66683495Y-23376289D01*
X66682623Y-23373265D01*
X66678895Y-23361484D01*
X66674792Y-23350200D01*
X66670316Y-23339411D01*
X66665465Y-23329118D01*
X66660241Y-23319322D01*
X66654642Y-23310022D01*
X66648670Y-23301218D01*
X66642323Y-23292909D01*
X66635614Y-23285101D01*
X66628554Y-23277797D01*
X66621143Y-23270996D01*
X66613381Y-23264699D01*
X66605267Y-23258906D01*
X66596803Y-23253617D01*
X66587987Y-23248831D01*
X66578820Y-23244549D01*
X66569340Y-23240714D01*
X66559586Y-23237390D01*
X66549557Y-23234577D01*
X66539253Y-23232276D01*
X66528674Y-23230486D01*
X66517821Y-23229208D01*
X66506692Y-23228441D01*
X66495289Y-23228185D01*
X66485395Y-23228372D01*
X66472624Y-23229202D01*
X66460334Y-23230696D01*
X66448524Y-23232854D01*
X66437195Y-23235676D01*
X66426348Y-23239162D01*
X66415981Y-23243313D01*
X66406094Y-23248127D01*
X66403698Y-23249434D01*
X66394386Y-23254911D01*
X66385502Y-23260837D01*
X66377045Y-23267214D01*
X66369016Y-23274042D01*
X66361413Y-23281319D01*
X66354239Y-23289047D01*
X66347492Y-23297226D01*
X66341172Y-23305854D01*
X66335268Y-23314830D01*
X66329769Y-23324173D01*
X66324674Y-23333881D01*
X66319984Y-23343956D01*
X66315698Y-23354398D01*
X66311817Y-23365205D01*
X66308340Y-23376379D01*
X66305268Y-23387920D01*
X66302635Y-23399655D01*
X66300353Y-23411535D01*
X66298422Y-23423560D01*
X66296842Y-23435730D01*
X66295613Y-23448046D01*
X66294735Y-23460506D01*
X66294209Y-23473111D01*
X66294033Y-23485861D01*
X66171950Y-23485861D01*
X66171999Y-23480207D01*
X66172263Y-23470268D01*
X66172702Y-23460439D01*
X66173689Y-23445903D01*
X66175071Y-23431617D01*
X66176849Y-23417579D01*
X66179021Y-23403790D01*
X66181589Y-23390250D01*
X66184551Y-23376960D01*
X66187909Y-23363918D01*
X66191661Y-23351125D01*
X66194382Y-23342735D01*
X66198815Y-23330354D01*
X66203595Y-23318309D01*
X66208724Y-23306598D01*
X66214200Y-23295222D01*
X66220024Y-23284181D01*
X66226195Y-23273475D01*
X66232715Y-23263104D01*
X66239582Y-23253067D01*
X66246797Y-23243366D01*
X66254360Y-23233999D01*
X66259595Y-23227941D01*
X66267770Y-23219108D01*
X66276267Y-23210653D01*
X66285086Y-23202576D01*
X66294228Y-23194877D01*
X66303691Y-23187555D01*
X66313476Y-23180611D01*
X66323583Y-23174045D01*
X66334012Y-23167857D01*
X66344764Y-23162047D01*
X66355837Y-23156614D01*
X66363398Y-23153203D01*
X66375036Y-23148445D01*
X66386963Y-23144155D01*
X66399176Y-23140333D01*
X66411678Y-23136980D01*
X66424467Y-23134094D01*
X66437544Y-23131676D01*
X66450908Y-23129726D01*
X66464560Y-23128244D01*
X66478500Y-23127230D01*
X66492727Y-23126684D01*
X66502372Y-23126580D01*
X66516113Y-23126784D01*
G37*
G36*
X67015526Y-23142212D02*
G01*
X67124947Y-23142212D01*
X67128367Y-23270683D01*
X67135992Y-23261353D01*
X67143605Y-23252350D01*
X67151204Y-23243675D01*
X67158790Y-23235329D01*
X67166363Y-23227311D01*
X67173922Y-23219621D01*
X67181467Y-23212260D01*
X67189000Y-23205226D01*
X67196519Y-23198521D01*
X67204025Y-23192144D01*
X67215258Y-23183194D01*
X67226462Y-23174982D01*
X67237635Y-23167509D01*
X67248778Y-23160774D01*
X67259917Y-23154663D01*
X67271078Y-23149153D01*
X67282260Y-23144245D01*
X67293463Y-23139937D01*
X67304688Y-23136231D01*
X67315935Y-23133125D01*
X67327202Y-23130621D01*
X67338492Y-23128717D01*
X67349803Y-23127415D01*
X67361135Y-23126714D01*
X67368702Y-23126580D01*
X67381901Y-23126857D01*
X67394694Y-23127687D01*
X67407081Y-23129070D01*
X67419061Y-23131007D01*
X67430635Y-23133497D01*
X67441803Y-23136541D01*
X67452564Y-23140137D01*
X67462918Y-23144288D01*
X67472866Y-23148991D01*
X67482408Y-23154248D01*
X67491543Y-23160059D01*
X67500272Y-23166422D01*
X67508594Y-23173339D01*
X67516510Y-23180810D01*
X67524020Y-23188833D01*
X67531123Y-23197411D01*
X67537821Y-23206533D01*
X67544053Y-23216194D01*
X67549819Y-23226393D01*
X67555120Y-23237131D01*
X67559955Y-23248406D01*
X67564325Y-23260219D01*
X67568229Y-23272571D01*
X67571667Y-23285460D01*
X67574640Y-23298888D01*
X67577148Y-23312853D01*
X67579189Y-23327357D01*
X67580765Y-23342399D01*
X67581876Y-23357979D01*
X67582521Y-23374097D01*
X67582700Y-23390754D01*
X67582414Y-23407948D01*
X67461514Y-23407948D01*
X67461639Y-23396336D01*
X67461525Y-23385130D01*
X67461173Y-23374331D01*
X67460583Y-23363938D01*
X67459754Y-23353952D01*
X67458063Y-23339735D01*
X67455835Y-23326432D01*
X67453071Y-23314043D01*
X67449770Y-23302569D01*
X67445933Y-23292010D01*
X67441558Y-23282365D01*
X67436648Y-23273635D01*
X67434891Y-23270928D01*
X67427392Y-23260910D01*
X67419061Y-23252228D01*
X67409898Y-23244881D01*
X67399904Y-23238871D01*
X67389077Y-23234196D01*
X67377418Y-23230857D01*
X67364927Y-23228853D01*
X67355013Y-23228227D01*
X67351605Y-23228185D01*
X67341014Y-23228618D01*
X67330400Y-23229915D01*
X67319763Y-23232077D01*
X67309102Y-23235104D01*
X67303000Y-23237222D01*
X67293873Y-23240989D01*
X67284625Y-23245511D01*
X67275257Y-23250789D01*
X67265768Y-23256823D01*
X67256160Y-23263612D01*
X67252930Y-23266043D01*
X67244833Y-23272429D01*
X67236568Y-23279376D01*
X67228136Y-23286883D01*
X67219538Y-23294951D01*
X67212539Y-23301809D01*
X67205433Y-23309026D01*
X67198220Y-23316601D01*
X67190950Y-23324501D01*
X67183550Y-23332813D01*
X67176021Y-23341537D01*
X67168361Y-23350673D01*
X67160572Y-23360221D01*
X67152653Y-23370182D01*
X67146629Y-23377923D01*
X67140532Y-23385895D01*
X67136427Y-23391339D01*
X67136427Y-23830000D01*
X67015526Y-23830000D01*
X67015526Y-23142212D01*
G37*
X73866011Y-65350057D02*
X73770773Y-65302438D01*
X73770773Y-65302438D02*
X73675535Y-65207200D01*
X73675535Y-65207200D02*
X73532678Y-65064342D01*
X73532678Y-65064342D02*
X73437440Y-65016723D01*
X73437440Y-65016723D02*
X73342202Y-65016723D01*
X73389821Y-65254819D02*
X73294583Y-65207200D01*
X73294583Y-65207200D02*
X73199345Y-65111961D01*
X73199345Y-65111961D02*
X73151726Y-64921485D01*
X73151726Y-64921485D02*
X73151726Y-64588152D01*
X73151726Y-64588152D02*
X73199345Y-64397676D01*
X73199345Y-64397676D02*
X73294583Y-64302438D01*
X73294583Y-64302438D02*
X73389821Y-64254819D01*
X73389821Y-64254819D02*
X73580297Y-64254819D01*
X73580297Y-64254819D02*
X73675535Y-64302438D01*
X73675535Y-64302438D02*
X73770773Y-64397676D01*
X73770773Y-64397676D02*
X73818392Y-64588152D01*
X73818392Y-64588152D02*
X73818392Y-64921485D01*
X73818392Y-64921485D02*
X73770773Y-65111961D01*
X73770773Y-65111961D02*
X73675535Y-65207200D01*
X73675535Y-65207200D02*
X73580297Y-65254819D01*
X73580297Y-65254819D02*
X73389821Y-65254819D01*
X74199345Y-64350057D02*
X74246964Y-64302438D01*
X74246964Y-64302438D02*
X74342202Y-64254819D01*
X74342202Y-64254819D02*
X74580297Y-64254819D01*
X74580297Y-64254819D02*
X74675535Y-64302438D01*
X74675535Y-64302438D02*
X74723154Y-64350057D01*
X74723154Y-64350057D02*
X74770773Y-64445295D01*
X74770773Y-64445295D02*
X74770773Y-64540533D01*
X74770773Y-64540533D02*
X74723154Y-64683390D01*
X74723154Y-64683390D02*
X74151726Y-65254819D01*
X74151726Y-65254819D02*
X74770773Y-65254819D01*
X60646069Y-75468094D02*
X59646069Y-75468094D01*
X59646069Y-75468094D02*
X59646069Y-75229999D01*
X59646069Y-75229999D02*
X59693688Y-75087142D01*
X59693688Y-75087142D02*
X59788926Y-74991904D01*
X59788926Y-74991904D02*
X59884164Y-74944285D01*
X59884164Y-74944285D02*
X60074640Y-74896666D01*
X60074640Y-74896666D02*
X60217497Y-74896666D01*
X60217497Y-74896666D02*
X60407973Y-74944285D01*
X60407973Y-74944285D02*
X60503211Y-74991904D01*
X60503211Y-74991904D02*
X60598450Y-75087142D01*
X60598450Y-75087142D02*
X60646069Y-75229999D01*
X60646069Y-75229999D02*
X60646069Y-75468094D01*
X60646069Y-73944285D02*
X60646069Y-74515713D01*
X60646069Y-74229999D02*
X59646069Y-74229999D01*
X59646069Y-74229999D02*
X59788926Y-74325237D01*
X59788926Y-74325237D02*
X59884164Y-74420475D01*
X59884164Y-74420475D02*
X59931783Y-74515713D01*
X77056069Y-57166666D02*
X76579878Y-57499999D01*
X77056069Y-57738094D02*
X76056069Y-57738094D01*
X76056069Y-57738094D02*
X76056069Y-57357142D01*
X76056069Y-57357142D02*
X76103688Y-57261904D01*
X76103688Y-57261904D02*
X76151307Y-57214285D01*
X76151307Y-57214285D02*
X76246545Y-57166666D01*
X76246545Y-57166666D02*
X76389402Y-57166666D01*
X76389402Y-57166666D02*
X76484640Y-57214285D01*
X76484640Y-57214285D02*
X76532259Y-57261904D01*
X76532259Y-57261904D02*
X76579878Y-57357142D01*
X76579878Y-57357142D02*
X76579878Y-57738094D01*
X77056069Y-56214285D02*
X77056069Y-56785713D01*
X77056069Y-56499999D02*
X76056069Y-56499999D01*
X76056069Y-56499999D02*
X76198926Y-56595237D01*
X76198926Y-56595237D02*
X76294164Y-56690475D01*
X76294164Y-56690475D02*
X76341783Y-56785713D01*
X65406011Y-65350057D02*
X65310773Y-65302438D01*
X65310773Y-65302438D02*
X65215535Y-65207200D01*
X65215535Y-65207200D02*
X65072678Y-65064342D01*
X65072678Y-65064342D02*
X64977440Y-65016723D01*
X64977440Y-65016723D02*
X64882202Y-65016723D01*
X64929821Y-65254819D02*
X64834583Y-65207200D01*
X64834583Y-65207200D02*
X64739345Y-65111961D01*
X64739345Y-65111961D02*
X64691726Y-64921485D01*
X64691726Y-64921485D02*
X64691726Y-64588152D01*
X64691726Y-64588152D02*
X64739345Y-64397676D01*
X64739345Y-64397676D02*
X64834583Y-64302438D01*
X64834583Y-64302438D02*
X64929821Y-64254819D01*
X64929821Y-64254819D02*
X65120297Y-64254819D01*
X65120297Y-64254819D02*
X65215535Y-64302438D01*
X65215535Y-64302438D02*
X65310773Y-64397676D01*
X65310773Y-64397676D02*
X65358392Y-64588152D01*
X65358392Y-64588152D02*
X65358392Y-64921485D01*
X65358392Y-64921485D02*
X65310773Y-65111961D01*
X65310773Y-65111961D02*
X65215535Y-65207200D01*
X65215535Y-65207200D02*
X65120297Y-65254819D01*
X65120297Y-65254819D02*
X64929821Y-65254819D01*
X66310773Y-65254819D02*
X65739345Y-65254819D01*
X66025059Y-65254819D02*
X66025059Y-64254819D01*
X66025059Y-64254819D02*
X65929821Y-64397676D01*
X65929821Y-64397676D02*
X65834583Y-64492914D01*
X65834583Y-64492914D02*
X65739345Y-64540533D01*
X64568569Y-57166666D02*
X64092378Y-57499999D01*
X64568569Y-57738094D02*
X63568569Y-57738094D01*
X63568569Y-57738094D02*
X63568569Y-57357142D01*
X63568569Y-57357142D02*
X63616188Y-57261904D01*
X63616188Y-57261904D02*
X63663807Y-57214285D01*
X63663807Y-57214285D02*
X63759045Y-57166666D01*
X63759045Y-57166666D02*
X63901902Y-57166666D01*
X63901902Y-57166666D02*
X63997140Y-57214285D01*
X63997140Y-57214285D02*
X64044759Y-57261904D01*
X64044759Y-57261904D02*
X64092378Y-57357142D01*
X64092378Y-57357142D02*
X64092378Y-57738094D01*
X63568569Y-56833332D02*
X63568569Y-56214285D01*
X63568569Y-56214285D02*
X63949521Y-56547618D01*
X63949521Y-56547618D02*
X63949521Y-56404761D01*
X63949521Y-56404761D02*
X63997140Y-56309523D01*
X63997140Y-56309523D02*
X64044759Y-56261904D01*
X64044759Y-56261904D02*
X64139997Y-56214285D01*
X64139997Y-56214285D02*
X64378092Y-56214285D01*
X64378092Y-56214285D02*
X64473330Y-56261904D01*
X64473330Y-56261904D02*
X64520950Y-56309523D01*
X64520950Y-56309523D02*
X64568569Y-56404761D01*
X64568569Y-56404761D02*
X64568569Y-56690475D01*
X64568569Y-56690475D02*
X64520950Y-56785713D01*
X64520950Y-56785713D02*
X64473330Y-56833332D01*
X73834583Y-73219580D02*
X73786964Y-73267200D01*
X73786964Y-73267200D02*
X73644107Y-73314819D01*
X73644107Y-73314819D02*
X73548869Y-73314819D01*
X73548869Y-73314819D02*
X73406012Y-73267200D01*
X73406012Y-73267200D02*
X73310774Y-73171961D01*
X73310774Y-73171961D02*
X73263155Y-73076723D01*
X73263155Y-73076723D02*
X73215536Y-72886247D01*
X73215536Y-72886247D02*
X73215536Y-72743390D01*
X73215536Y-72743390D02*
X73263155Y-72552914D01*
X73263155Y-72552914D02*
X73310774Y-72457676D01*
X73310774Y-72457676D02*
X73406012Y-72362438D01*
X73406012Y-72362438D02*
X73548869Y-72314819D01*
X73548869Y-72314819D02*
X73644107Y-72314819D01*
X73644107Y-72314819D02*
X73786964Y-72362438D01*
X73786964Y-72362438D02*
X73834583Y-72410057D01*
X74215536Y-72410057D02*
X74263155Y-72362438D01*
X74263155Y-72362438D02*
X74358393Y-72314819D01*
X74358393Y-72314819D02*
X74596488Y-72314819D01*
X74596488Y-72314819D02*
X74691726Y-72362438D01*
X74691726Y-72362438D02*
X74739345Y-72410057D01*
X74739345Y-72410057D02*
X74786964Y-72505295D01*
X74786964Y-72505295D02*
X74786964Y-72600533D01*
X74786964Y-72600533D02*
X74739345Y-72743390D01*
X74739345Y-72743390D02*
X74167917Y-73314819D01*
X74167917Y-73314819D02*
X74786964Y-73314819D01*
D11*
X64304318Y-38467619D02*
X65332413Y-38467619D01*
X65332413Y-38467619D02*
X65453365Y-38407142D01*
X65453365Y-38407142D02*
X65513842Y-38346666D01*
X65513842Y-38346666D02*
X65574318Y-38225714D01*
X65574318Y-38225714D02*
X65574318Y-37983809D01*
X65574318Y-37983809D02*
X65513842Y-37862857D01*
X65513842Y-37862857D02*
X65453365Y-37802380D01*
X65453365Y-37802380D02*
X65332413Y-37741904D01*
X65332413Y-37741904D02*
X64304318Y-37741904D01*
X65574318Y-36471904D02*
X65574318Y-37197619D01*
X65574318Y-36834762D02*
X64304318Y-36834762D01*
X64304318Y-36834762D02*
X64485746Y-36955714D01*
X64485746Y-36955714D02*
X64606699Y-37076666D01*
X64606699Y-37076666D02*
X64667175Y-37197619D01*
D10*
X60686069Y-66468094D02*
X59686069Y-66468094D01*
X59686069Y-66468094D02*
X59686069Y-66229999D01*
X59686069Y-66229999D02*
X59733688Y-66087142D01*
X59733688Y-66087142D02*
X59828926Y-65991904D01*
X59828926Y-65991904D02*
X59924164Y-65944285D01*
X59924164Y-65944285D02*
X60114640Y-65896666D01*
X60114640Y-65896666D02*
X60257497Y-65896666D01*
X60257497Y-65896666D02*
X60447973Y-65944285D01*
X60447973Y-65944285D02*
X60543211Y-65991904D01*
X60543211Y-65991904D02*
X60638450Y-66087142D01*
X60638450Y-66087142D02*
X60686069Y-66229999D01*
X60686069Y-66229999D02*
X60686069Y-66468094D01*
X59781307Y-65515713D02*
X59733688Y-65468094D01*
X59733688Y-65468094D02*
X59686069Y-65372856D01*
X59686069Y-65372856D02*
X59686069Y-65134761D01*
X59686069Y-65134761D02*
X59733688Y-65039523D01*
X59733688Y-65039523D02*
X59781307Y-64991904D01*
X59781307Y-64991904D02*
X59876545Y-64944285D01*
X59876545Y-64944285D02*
X59971783Y-64944285D01*
X59971783Y-64944285D02*
X60114640Y-64991904D01*
X60114640Y-64991904D02*
X60686069Y-65563332D01*
X60686069Y-65563332D02*
X60686069Y-64944285D01*
X65402204Y-73319580D02*
X65354585Y-73367200D01*
X65354585Y-73367200D02*
X65211728Y-73414819D01*
X65211728Y-73414819D02*
X65116490Y-73414819D01*
X65116490Y-73414819D02*
X64973633Y-73367200D01*
X64973633Y-73367200D02*
X64878395Y-73271961D01*
X64878395Y-73271961D02*
X64830776Y-73176723D01*
X64830776Y-73176723D02*
X64783157Y-72986247D01*
X64783157Y-72986247D02*
X64783157Y-72843390D01*
X64783157Y-72843390D02*
X64830776Y-72652914D01*
X64830776Y-72652914D02*
X64878395Y-72557676D01*
X64878395Y-72557676D02*
X64973633Y-72462438D01*
X64973633Y-72462438D02*
X65116490Y-72414819D01*
X65116490Y-72414819D02*
X65211728Y-72414819D01*
X65211728Y-72414819D02*
X65354585Y-72462438D01*
X65354585Y-72462438D02*
X65402204Y-72510057D01*
X66354585Y-73414819D02*
X65783157Y-73414819D01*
X66068871Y-73414819D02*
X66068871Y-72414819D01*
X66068871Y-72414819D02*
X65973633Y-72557676D01*
X65973633Y-72557676D02*
X65878395Y-72652914D01*
X65878395Y-72652914D02*
X65783157Y-72700533D01*
X70812319Y-57166666D02*
X70336128Y-57499999D01*
X70812319Y-57738094D02*
X69812319Y-57738094D01*
X69812319Y-57738094D02*
X69812319Y-57357142D01*
X69812319Y-57357142D02*
X69859938Y-57261904D01*
X69859938Y-57261904D02*
X69907557Y-57214285D01*
X69907557Y-57214285D02*
X70002795Y-57166666D01*
X70002795Y-57166666D02*
X70145652Y-57166666D01*
X70145652Y-57166666D02*
X70240890Y-57214285D01*
X70240890Y-57214285D02*
X70288509Y-57261904D01*
X70288509Y-57261904D02*
X70336128Y-57357142D01*
X70336128Y-57357142D02*
X70336128Y-57738094D01*
X69907557Y-56785713D02*
X69859938Y-56738094D01*
X69859938Y-56738094D02*
X69812319Y-56642856D01*
X69812319Y-56642856D02*
X69812319Y-56404761D01*
X69812319Y-56404761D02*
X69859938Y-56309523D01*
X69859938Y-56309523D02*
X69907557Y-56261904D01*
X69907557Y-56261904D02*
X70002795Y-56214285D01*
X70002795Y-56214285D02*
X70098033Y-56214285D01*
X70098033Y-56214285D02*
X70240890Y-56261904D01*
X70240890Y-56261904D02*
X70812319Y-56833332D01*
X70812319Y-56833332D02*
X70812319Y-56214285D01*
X58324819Y-57166666D02*
X57848628Y-57499999D01*
X58324819Y-57738094D02*
X57324819Y-57738094D01*
X57324819Y-57738094D02*
X57324819Y-57357142D01*
X57324819Y-57357142D02*
X57372438Y-57261904D01*
X57372438Y-57261904D02*
X57420057Y-57214285D01*
X57420057Y-57214285D02*
X57515295Y-57166666D01*
X57515295Y-57166666D02*
X57658152Y-57166666D01*
X57658152Y-57166666D02*
X57753390Y-57214285D01*
X57753390Y-57214285D02*
X57801009Y-57261904D01*
X57801009Y-57261904D02*
X57848628Y-57357142D01*
X57848628Y-57357142D02*
X57848628Y-57738094D01*
X57658152Y-56309523D02*
X58324819Y-56309523D01*
X57277200Y-56547618D02*
X57991485Y-56785713D01*
X57991485Y-56785713D02*
X57991485Y-56166666D01*
D12*
%TO.C,Q2*%
X72161250Y-70210000D02*
X75761250Y-70210000D01*
X73961250Y-65760000D02*
G75*
G03*
X72122772Y-70198478I0J-2600000D01*
G01*
X75799728Y-70198478D02*
G75*
G03*
X73961250Y-65760000I-1838478J1838478D01*
G01*
%TO.C,D1*%
X57776250Y-74665000D02*
X54686250Y-74665000D01*
X56230788Y-80214999D02*
G75*
G03*
X57776080Y-74665001I462J2989999D01*
G01*
X54686420Y-74665000D02*
G75*
G03*
X56231712Y-80215000I1544830J-2560000D01*
G01*
X58731250Y-77225000D02*
G75*
G03*
X58731250Y-77225000I-2500000J0D01*
G01*
%TO.C,R1*%
X74231250Y-52960000D02*
X74231250Y-53730000D01*
X75601250Y-53730000D02*
X72861250Y-53730000D01*
X72861250Y-53730000D02*
X72861250Y-60270000D01*
X75601250Y-60270000D02*
X75601250Y-53730000D01*
X72861250Y-60270000D02*
X75601250Y-60270000D01*
X74231250Y-61040000D02*
X74231250Y-60270000D01*
%TO.C,Q1*%
X63701250Y-70210000D02*
X67301250Y-70210000D01*
X65501250Y-65760000D02*
G75*
G03*
X63662772Y-70198478I0J-2600000D01*
G01*
X67339728Y-70198478D02*
G75*
G03*
X65501250Y-65760000I-1838478J1838478D01*
G01*
%TO.C,R3*%
X61743750Y-52960000D02*
X61743750Y-53730000D01*
X63113750Y-53730000D02*
X60373750Y-53730000D01*
X60373750Y-53730000D02*
X60373750Y-60270000D01*
X63113750Y-60270000D02*
X63113750Y-53730000D01*
X60373750Y-60270000D02*
X63113750Y-60270000D01*
X61743750Y-61040000D02*
X61743750Y-60270000D01*
%TO.C,C2*%
X70528630Y-75521000D02*
X71158630Y-75521000D01*
X70843630Y-75206000D02*
X70843630Y-75836000D01*
X74028871Y-74130000D02*
X74028871Y-80590000D01*
X74068871Y-74130000D02*
X74068871Y-80590000D01*
X74108871Y-74130000D02*
X74108871Y-80590000D01*
X74148871Y-74132000D02*
X74148871Y-80588000D01*
X74188871Y-74133000D02*
X74188871Y-80587000D01*
X74228871Y-74136000D02*
X74228871Y-80584000D01*
X74268871Y-74138000D02*
X74268871Y-76320000D01*
X74268871Y-78400000D02*
X74268871Y-80582000D01*
X74308871Y-74142000D02*
X74308871Y-76320000D01*
X74308871Y-78400000D02*
X74308871Y-80578000D01*
X74348871Y-74145000D02*
X74348871Y-76320000D01*
X74348871Y-78400000D02*
X74348871Y-80575000D01*
X74388871Y-74149000D02*
X74388871Y-76320000D01*
X74388871Y-78400000D02*
X74388871Y-80571000D01*
X74428871Y-74154000D02*
X74428871Y-76320000D01*
X74428871Y-78400000D02*
X74428871Y-80566000D01*
X74468871Y-74159000D02*
X74468871Y-76320000D01*
X74468871Y-78400000D02*
X74468871Y-80561000D01*
X74508871Y-74165000D02*
X74508871Y-76320000D01*
X74508871Y-78400000D02*
X74508871Y-80555000D01*
X74548871Y-74171000D02*
X74548871Y-76320000D01*
X74548871Y-78400000D02*
X74548871Y-80549000D01*
X74588871Y-74178000D02*
X74588871Y-76320000D01*
X74588871Y-78400000D02*
X74588871Y-80542000D01*
X74628871Y-74185000D02*
X74628871Y-76320000D01*
X74628871Y-78400000D02*
X74628871Y-80535000D01*
X74668871Y-74193000D02*
X74668871Y-76320000D01*
X74668871Y-78400000D02*
X74668871Y-80527000D01*
X74708871Y-74201000D02*
X74708871Y-76320000D01*
X74708871Y-78400000D02*
X74708871Y-80519000D01*
X74749871Y-74210000D02*
X74749871Y-76320000D01*
X74749871Y-78400000D02*
X74749871Y-80510000D01*
X74789871Y-74219000D02*
X74789871Y-76320000D01*
X74789871Y-78400000D02*
X74789871Y-80501000D01*
X74829871Y-74229000D02*
X74829871Y-76320000D01*
X74829871Y-78400000D02*
X74829871Y-80491000D01*
X74869871Y-74239000D02*
X74869871Y-76320000D01*
X74869871Y-78400000D02*
X74869871Y-80481000D01*
X74909871Y-74250000D02*
X74909871Y-76320000D01*
X74909871Y-78400000D02*
X74909871Y-80470000D01*
X74949871Y-74262000D02*
X74949871Y-76320000D01*
X74949871Y-78400000D02*
X74949871Y-80458000D01*
X74989871Y-74274000D02*
X74989871Y-76320000D01*
X74989871Y-78400000D02*
X74989871Y-80446000D01*
X75029871Y-74286000D02*
X75029871Y-76320000D01*
X75029871Y-78400000D02*
X75029871Y-80434000D01*
X75069871Y-74299000D02*
X75069871Y-76320000D01*
X75069871Y-78400000D02*
X75069871Y-80421000D01*
X75109871Y-74313000D02*
X75109871Y-76320000D01*
X75109871Y-78400000D02*
X75109871Y-80407000D01*
X75149871Y-74327000D02*
X75149871Y-76320000D01*
X75149871Y-78400000D02*
X75149871Y-80393000D01*
X75189871Y-74342000D02*
X75189871Y-76320000D01*
X75189871Y-78400000D02*
X75189871Y-80378000D01*
X75229871Y-74358000D02*
X75229871Y-76320000D01*
X75229871Y-78400000D02*
X75229871Y-80362000D01*
X75269871Y-74374000D02*
X75269871Y-76320000D01*
X75269871Y-78400000D02*
X75269871Y-80346000D01*
X75309871Y-74390000D02*
X75309871Y-76320000D01*
X75309871Y-78400000D02*
X75309871Y-80330000D01*
X75349871Y-74408000D02*
X75349871Y-76320000D01*
X75349871Y-78400000D02*
X75349871Y-80312000D01*
X75389871Y-74426000D02*
X75389871Y-76320000D01*
X75389871Y-78400000D02*
X75389871Y-80294000D01*
X75429871Y-74444000D02*
X75429871Y-76320000D01*
X75429871Y-78400000D02*
X75429871Y-80276000D01*
X75469871Y-74464000D02*
X75469871Y-76320000D01*
X75469871Y-78400000D02*
X75469871Y-80256000D01*
X75509871Y-74484000D02*
X75509871Y-76320000D01*
X75509871Y-78400000D02*
X75509871Y-80236000D01*
X75549871Y-74504000D02*
X75549871Y-76320000D01*
X75549871Y-78400000D02*
X75549871Y-80216000D01*
X75589871Y-74526000D02*
X75589871Y-76320000D01*
X75589871Y-78400000D02*
X75589871Y-80194000D01*
X75629871Y-74548000D02*
X75629871Y-76320000D01*
X75629871Y-78400000D02*
X75629871Y-80172000D01*
X75669871Y-74570000D02*
X75669871Y-76320000D01*
X75669871Y-78400000D02*
X75669871Y-80150000D01*
X75709871Y-74594000D02*
X75709871Y-76320000D01*
X75709871Y-78400000D02*
X75709871Y-80126000D01*
X75749871Y-74618000D02*
X75749871Y-76320000D01*
X75749871Y-78400000D02*
X75749871Y-80102000D01*
X75789871Y-74644000D02*
X75789871Y-76320000D01*
X75789871Y-78400000D02*
X75789871Y-80076000D01*
X75829871Y-74670000D02*
X75829871Y-76320000D01*
X75829871Y-78400000D02*
X75829871Y-80050000D01*
X75869871Y-74696000D02*
X75869871Y-76320000D01*
X75869871Y-78400000D02*
X75869871Y-80024000D01*
X75909871Y-74724000D02*
X75909871Y-76320000D01*
X75909871Y-78400000D02*
X75909871Y-79996000D01*
X75949871Y-74753000D02*
X75949871Y-76320000D01*
X75949871Y-78400000D02*
X75949871Y-79967000D01*
X75989871Y-74782000D02*
X75989871Y-76320000D01*
X75989871Y-78400000D02*
X75989871Y-79938000D01*
X76029871Y-74812000D02*
X76029871Y-76320000D01*
X76029871Y-78400000D02*
X76029871Y-79908000D01*
X76069871Y-74844000D02*
X76069871Y-76320000D01*
X76069871Y-78400000D02*
X76069871Y-79876000D01*
X76109871Y-74876000D02*
X76109871Y-76320000D01*
X76109871Y-78400000D02*
X76109871Y-79844000D01*
X76149871Y-74910000D02*
X76149871Y-76320000D01*
X76149871Y-78400000D02*
X76149871Y-79810000D01*
X76189871Y-74944000D02*
X76189871Y-76320000D01*
X76189871Y-78400000D02*
X76189871Y-79776000D01*
X76229871Y-74980000D02*
X76229871Y-76320000D01*
X76229871Y-78400000D02*
X76229871Y-79740000D01*
X76269871Y-75017000D02*
X76269871Y-76320000D01*
X76269871Y-78400000D02*
X76269871Y-79703000D01*
X76309871Y-75055000D02*
X76309871Y-76320000D01*
X76309871Y-78400000D02*
X76309871Y-79665000D01*
X76349871Y-75095000D02*
X76349871Y-79625000D01*
X76389871Y-75136000D02*
X76389871Y-79584000D01*
X76429871Y-75178000D02*
X76429871Y-79542000D01*
X76469871Y-75223000D02*
X76469871Y-79497000D01*
X76509871Y-75268000D02*
X76509871Y-79452000D01*
X76549871Y-75316000D02*
X76549871Y-79404000D01*
X76589871Y-75365000D02*
X76589871Y-79355000D01*
X76629871Y-75416000D02*
X76629871Y-79304000D01*
X76669871Y-75470000D02*
X76669871Y-79250000D01*
X76709871Y-75526000D02*
X76709871Y-79194000D01*
X76749871Y-75584000D02*
X76749871Y-79136000D01*
X76789871Y-75646000D02*
X76789871Y-79074000D01*
X76829871Y-75710000D02*
X76829871Y-79010000D01*
X76869871Y-75779000D02*
X76869871Y-78941000D01*
X76909871Y-75851000D02*
X76909871Y-78869000D01*
X76949871Y-75928000D02*
X76949871Y-78792000D01*
X76989871Y-76010000D02*
X76989871Y-78710000D01*
X77029871Y-76098000D02*
X77029871Y-78622000D01*
X77069871Y-76195000D02*
X77069871Y-78525000D01*
X77109871Y-76301000D02*
X77109871Y-78419000D01*
X77149871Y-76420000D02*
X77149871Y-78300000D01*
X77189871Y-76558000D02*
X77189871Y-78162000D01*
X77229871Y-76727000D02*
X77229871Y-77993000D01*
X77269871Y-76958000D02*
X77269871Y-77762000D01*
X77298871Y-77360000D02*
G75*
G03*
X77298871Y-77360000I-3270000J0D01*
G01*
D13*
%TO.C,U1*%
X62500000Y-48900000D02*
X62500000Y-48900000D01*
X73400000Y-40800000D02*
X78900000Y-40800000D01*
X78900000Y-40800000D02*
X78900000Y-34200000D01*
X78900000Y-34200000D02*
X73400000Y-34200000D01*
X62500000Y-26100000D02*
X62500000Y-26100000D01*
X62500000Y-26100000D02*
G75*
G03*
X62500000Y-48900000I0J-11400000D01*
G01*
X62500000Y-48900000D02*
G75*
G03*
X62500000Y-26100000I0J11400000D01*
G01*
D12*
%TO.C,D2*%
X54686250Y-70565000D02*
X57776250Y-70565000D01*
X56231712Y-65015001D02*
G75*
G03*
X54686420Y-70564999I-462J-2989999D01*
G01*
X57776080Y-70565000D02*
G75*
G03*
X56230788Y-65015000I-1544830J2560000D01*
G01*
X58731250Y-68005000D02*
G75*
G03*
X58731250Y-68005000I-2500000J0D01*
G01*
%TO.C,C1*%
X62068630Y-75521000D02*
X62698630Y-75521000D01*
X62383630Y-75206000D02*
X62383630Y-75836000D01*
X65568871Y-74130000D02*
X65568871Y-80590000D01*
X65608871Y-74130000D02*
X65608871Y-80590000D01*
X65648871Y-74130000D02*
X65648871Y-80590000D01*
X65688871Y-74132000D02*
X65688871Y-80588000D01*
X65728871Y-74133000D02*
X65728871Y-80587000D01*
X65768871Y-74136000D02*
X65768871Y-80584000D01*
X65808871Y-74138000D02*
X65808871Y-76320000D01*
X65808871Y-78400000D02*
X65808871Y-80582000D01*
X65848871Y-74142000D02*
X65848871Y-76320000D01*
X65848871Y-78400000D02*
X65848871Y-80578000D01*
X65888871Y-74145000D02*
X65888871Y-76320000D01*
X65888871Y-78400000D02*
X65888871Y-80575000D01*
X65928871Y-74149000D02*
X65928871Y-76320000D01*
X65928871Y-78400000D02*
X65928871Y-80571000D01*
X65968871Y-74154000D02*
X65968871Y-76320000D01*
X65968871Y-78400000D02*
X65968871Y-80566000D01*
X66008871Y-74159000D02*
X66008871Y-76320000D01*
X66008871Y-78400000D02*
X66008871Y-80561000D01*
X66048871Y-74165000D02*
X66048871Y-76320000D01*
X66048871Y-78400000D02*
X66048871Y-80555000D01*
X66088871Y-74171000D02*
X66088871Y-76320000D01*
X66088871Y-78400000D02*
X66088871Y-80549000D01*
X66128871Y-74178000D02*
X66128871Y-76320000D01*
X66128871Y-78400000D02*
X66128871Y-80542000D01*
X66168871Y-74185000D02*
X66168871Y-76320000D01*
X66168871Y-78400000D02*
X66168871Y-80535000D01*
X66208871Y-74193000D02*
X66208871Y-76320000D01*
X66208871Y-78400000D02*
X66208871Y-80527000D01*
X66248871Y-74201000D02*
X66248871Y-76320000D01*
X66248871Y-78400000D02*
X66248871Y-80519000D01*
X66289871Y-74210000D02*
X66289871Y-76320000D01*
X66289871Y-78400000D02*
X66289871Y-80510000D01*
X66329871Y-74219000D02*
X66329871Y-76320000D01*
X66329871Y-78400000D02*
X66329871Y-80501000D01*
X66369871Y-74229000D02*
X66369871Y-76320000D01*
X66369871Y-78400000D02*
X66369871Y-80491000D01*
X66409871Y-74239000D02*
X66409871Y-76320000D01*
X66409871Y-78400000D02*
X66409871Y-80481000D01*
X66449871Y-74250000D02*
X66449871Y-76320000D01*
X66449871Y-78400000D02*
X66449871Y-80470000D01*
X66489871Y-74262000D02*
X66489871Y-76320000D01*
X66489871Y-78400000D02*
X66489871Y-80458000D01*
X66529871Y-74274000D02*
X66529871Y-76320000D01*
X66529871Y-78400000D02*
X66529871Y-80446000D01*
X66569871Y-74286000D02*
X66569871Y-76320000D01*
X66569871Y-78400000D02*
X66569871Y-80434000D01*
X66609871Y-74299000D02*
X66609871Y-76320000D01*
X66609871Y-78400000D02*
X66609871Y-80421000D01*
X66649871Y-74313000D02*
X66649871Y-76320000D01*
X66649871Y-78400000D02*
X66649871Y-80407000D01*
X66689871Y-74327000D02*
X66689871Y-76320000D01*
X66689871Y-78400000D02*
X66689871Y-80393000D01*
X66729871Y-74342000D02*
X66729871Y-76320000D01*
X66729871Y-78400000D02*
X66729871Y-80378000D01*
X66769871Y-74358000D02*
X66769871Y-76320000D01*
X66769871Y-78400000D02*
X66769871Y-80362000D01*
X66809871Y-74374000D02*
X66809871Y-76320000D01*
X66809871Y-78400000D02*
X66809871Y-80346000D01*
X66849871Y-74390000D02*
X66849871Y-76320000D01*
X66849871Y-78400000D02*
X66849871Y-80330000D01*
X66889871Y-74408000D02*
X66889871Y-76320000D01*
X66889871Y-78400000D02*
X66889871Y-80312000D01*
X66929871Y-74426000D02*
X66929871Y-76320000D01*
X66929871Y-78400000D02*
X66929871Y-80294000D01*
X66969871Y-74444000D02*
X66969871Y-76320000D01*
X66969871Y-78400000D02*
X66969871Y-80276000D01*
X67009871Y-74464000D02*
X67009871Y-76320000D01*
X67009871Y-78400000D02*
X67009871Y-80256000D01*
X67049871Y-74484000D02*
X67049871Y-76320000D01*
X67049871Y-78400000D02*
X67049871Y-80236000D01*
X67089871Y-74504000D02*
X67089871Y-76320000D01*
X67089871Y-78400000D02*
X67089871Y-80216000D01*
X67129871Y-74526000D02*
X67129871Y-76320000D01*
X67129871Y-78400000D02*
X67129871Y-80194000D01*
X67169871Y-74548000D02*
X67169871Y-76320000D01*
X67169871Y-78400000D02*
X67169871Y-80172000D01*
X67209871Y-74570000D02*
X67209871Y-76320000D01*
X67209871Y-78400000D02*
X67209871Y-80150000D01*
X67249871Y-74594000D02*
X67249871Y-76320000D01*
X67249871Y-78400000D02*
X67249871Y-80126000D01*
X67289871Y-74618000D02*
X67289871Y-76320000D01*
X67289871Y-78400000D02*
X67289871Y-80102000D01*
X67329871Y-74644000D02*
X67329871Y-76320000D01*
X67329871Y-78400000D02*
X67329871Y-80076000D01*
X67369871Y-74670000D02*
X67369871Y-76320000D01*
X67369871Y-78400000D02*
X67369871Y-80050000D01*
X67409871Y-74696000D02*
X67409871Y-76320000D01*
X67409871Y-78400000D02*
X67409871Y-80024000D01*
X67449871Y-74724000D02*
X67449871Y-76320000D01*
X67449871Y-78400000D02*
X67449871Y-79996000D01*
X67489871Y-74753000D02*
X67489871Y-76320000D01*
X67489871Y-78400000D02*
X67489871Y-79967000D01*
X67529871Y-74782000D02*
X67529871Y-76320000D01*
X67529871Y-78400000D02*
X67529871Y-79938000D01*
X67569871Y-74812000D02*
X67569871Y-76320000D01*
X67569871Y-78400000D02*
X67569871Y-79908000D01*
X67609871Y-74844000D02*
X67609871Y-76320000D01*
X67609871Y-78400000D02*
X67609871Y-79876000D01*
X67649871Y-74876000D02*
X67649871Y-76320000D01*
X67649871Y-78400000D02*
X67649871Y-79844000D01*
X67689871Y-74910000D02*
X67689871Y-76320000D01*
X67689871Y-78400000D02*
X67689871Y-79810000D01*
X67729871Y-74944000D02*
X67729871Y-76320000D01*
X67729871Y-78400000D02*
X67729871Y-79776000D01*
X67769871Y-74980000D02*
X67769871Y-76320000D01*
X67769871Y-78400000D02*
X67769871Y-79740000D01*
X67809871Y-75017000D02*
X67809871Y-76320000D01*
X67809871Y-78400000D02*
X67809871Y-79703000D01*
X67849871Y-75055000D02*
X67849871Y-76320000D01*
X67849871Y-78400000D02*
X67849871Y-79665000D01*
X67889871Y-75095000D02*
X67889871Y-79625000D01*
X67929871Y-75136000D02*
X67929871Y-79584000D01*
X67969871Y-75178000D02*
X67969871Y-79542000D01*
X68009871Y-75223000D02*
X68009871Y-79497000D01*
X68049871Y-75268000D02*
X68049871Y-79452000D01*
X68089871Y-75316000D02*
X68089871Y-79404000D01*
X68129871Y-75365000D02*
X68129871Y-79355000D01*
X68169871Y-75416000D02*
X68169871Y-79304000D01*
X68209871Y-75470000D02*
X68209871Y-79250000D01*
X68249871Y-75526000D02*
X68249871Y-79194000D01*
X68289871Y-75584000D02*
X68289871Y-79136000D01*
X68329871Y-75646000D02*
X68329871Y-79074000D01*
X68369871Y-75710000D02*
X68369871Y-79010000D01*
X68409871Y-75779000D02*
X68409871Y-78941000D01*
X68449871Y-75851000D02*
X68449871Y-78869000D01*
X68489871Y-75928000D02*
X68489871Y-78792000D01*
X68529871Y-76010000D02*
X68529871Y-78710000D01*
X68569871Y-76098000D02*
X68569871Y-78622000D01*
X68609871Y-76195000D02*
X68609871Y-78525000D01*
X68649871Y-76301000D02*
X68649871Y-78419000D01*
X68689871Y-76420000D02*
X68689871Y-78300000D01*
X68729871Y-76558000D02*
X68729871Y-78162000D01*
X68769871Y-76727000D02*
X68769871Y-77993000D01*
X68809871Y-76958000D02*
X68809871Y-77762000D01*
X68838871Y-77360000D02*
G75*
G03*
X68838871Y-77360000I-3270000J0D01*
G01*
%TO.C,R2*%
X67987500Y-52960000D02*
X67987500Y-53730000D01*
X69357500Y-53730000D02*
X66617500Y-53730000D01*
X66617500Y-53730000D02*
X66617500Y-60270000D01*
X69357500Y-60270000D02*
X69357500Y-53730000D01*
X66617500Y-60270000D02*
X69357500Y-60270000D01*
X67987500Y-61040000D02*
X67987500Y-60270000D01*
%TO.C,R4*%
X55500000Y-52960000D02*
X55500000Y-53730000D01*
X56870000Y-53730000D02*
X54130000Y-53730000D01*
X54130000Y-53730000D02*
X54130000Y-60270000D01*
X56870000Y-60270000D02*
X56870000Y-53730000D01*
X54130000Y-60270000D02*
X56870000Y-60270000D01*
X55500000Y-61040000D02*
X55500000Y-60270000D01*
%TD*%
M02*
