%TF.GenerationSoftware,KiCad,Pcbnew,7.0.7*%
%TF.CreationDate,2024-04-06T11:31:03+09:00*%
%TF.ProjectId,PCB_AstMul,5043425f-4173-4744-9d75-6c2e6b696361,rev?*%
%TF.SameCoordinates,Original*%
%TF.FileFunction,Copper,L1,Top*%
%TF.FilePolarity,Positive*%
%FSLAX46Y46*%
G04 Gerber Fmt 4.6, Leading zero omitted, Abs format (unit mm)*
G04 Created by KiCad (PCBNEW 7.0.7) date 2024-04-06 11:31:03*
%MOMM*%
%LPD*%
G01*
G04 APERTURE LIST*
G04 Aperture macros list*
%AMRoundRect*
0 Rectangle with rounded corners*
0 $1 Rounding radius*
0 $2 $3 $4 $5 $6 $7 $8 $9 X,Y pos of 4 corners*
0 Add a 4 corners polygon primitive as box body*
4,1,4,$2,$3,$4,$5,$6,$7,$8,$9,$2,$3,0*
0 Add four circle primitives for the rounded corners*
1,1,$1+$1,$2,$3*
1,1,$1+$1,$4,$5*
1,1,$1+$1,$6,$7*
1,1,$1+$1,$8,$9*
0 Add four rect primitives between the rounded corners*
20,1,$1+$1,$2,$3,$4,$5,0*
20,1,$1+$1,$4,$5,$6,$7,0*
20,1,$1+$1,$6,$7,$8,$9,0*
20,1,$1+$1,$8,$9,$2,$3,0*%
G04 Aperture macros list end*
%TA.AperFunction,SMDPad,CuDef*%
%ADD10RoundRect,0.250000X0.750000X-0.250000X0.750000X0.250000X-0.750000X0.250000X-0.750000X-0.250000X0*%
%TD*%
%TA.AperFunction,ComponentPad*%
%ADD11R,1.050000X1.500000*%
%TD*%
%TA.AperFunction,ComponentPad*%
%ADD12O,1.050000X1.500000*%
%TD*%
%TA.AperFunction,ComponentPad*%
%ADD13R,1.800000X1.800000*%
%TD*%
%TA.AperFunction,ComponentPad*%
%ADD14C,1.800000*%
%TD*%
%TA.AperFunction,ComponentPad*%
%ADD15C,1.600000*%
%TD*%
%TA.AperFunction,ComponentPad*%
%ADD16O,1.600000X1.600000*%
%TD*%
%TA.AperFunction,ComponentPad*%
%ADD17R,0.850000X0.850000*%
%TD*%
%TA.AperFunction,ComponentPad*%
%ADD18O,0.850000X0.850000*%
%TD*%
%TA.AperFunction,ComponentPad*%
%ADD19R,1.600000X1.600000*%
%TD*%
%TA.AperFunction,ComponentPad*%
%ADD20C,1.650000*%
%TD*%
%TA.AperFunction,ViaPad*%
%ADD21C,0.800000*%
%TD*%
%TA.AperFunction,Conductor*%
%ADD22C,2.000000*%
%TD*%
%TA.AperFunction,Conductor*%
%ADD23C,0.500000*%
%TD*%
G04 APERTURE END LIST*
D10*
%TO.P,REF\u002A\u002A,1*%
%TO.N,N/C*%
X73000000Y-86500000D03*
%TD*%
%TO.P,REF\u002A\u002A,1*%
%TO.N,N/C*%
X66000000Y-86500000D03*
%TD*%
D11*
%TO.P,Q2,1,E*%
%TO.N,GND*%
X72691250Y-68360000D03*
D12*
%TO.P,Q2,2,C*%
%TO.N,Net-(D2-K)*%
X73961250Y-68360000D03*
%TO.P,Q2,3,B*%
%TO.N,Net-(Q2-B)*%
X75231250Y-68360000D03*
%TD*%
D10*
%TO.P,REF\u002A\u002A,1*%
%TO.N,N/C*%
X69500000Y-86500000D03*
%TD*%
D13*
%TO.P,D1,1,K*%
%TO.N,Net-(D1-K)*%
X56231250Y-75955000D03*
D14*
%TO.P,D1,2,A*%
%TO.N,Net-(D1-A)*%
X56231250Y-78495000D03*
%TD*%
D10*
%TO.P,REF\u002A\u002A,1*%
%TO.N,N/C*%
X76500000Y-86500000D03*
%TD*%
D15*
%TO.P,R1,1*%
%TO.N,+3V0*%
X74231250Y-51920000D03*
D16*
%TO.P,R1,2*%
%TO.N,Net-(D1-A)*%
X74231250Y-62080000D03*
%TD*%
D11*
%TO.P,Q1,1,E*%
%TO.N,GND*%
X64231250Y-68360000D03*
D12*
%TO.P,Q1,2,C*%
%TO.N,Net-(D1-K)*%
X65501250Y-68360000D03*
%TO.P,Q1,3,B*%
%TO.N,Net-(Q1-B)*%
X66771250Y-68360000D03*
%TD*%
D15*
%TO.P,R3,1*%
%TO.N,+3V0*%
X61743750Y-51920000D03*
D16*
%TO.P,R3,2*%
%TO.N,Net-(Q1-B)*%
X61743750Y-62080000D03*
%TD*%
D17*
%TO.P,REF\u002A\u002A,1*%
%TO.N,N/C*%
X53500000Y-86500000D03*
D18*
%TO.P,REF\u002A\u002A,2*%
X54500000Y-86500000D03*
%TO.P,REF\u002A\u002A,3*%
X55500000Y-86500000D03*
%TO.P,REF\u002A\u002A,4*%
X56500000Y-86500000D03*
%TO.P,REF\u002A\u002A,5*%
X57500000Y-86500000D03*
%TO.P,REF\u002A\u002A,6*%
X58500000Y-86500000D03*
%TO.P,REF\u002A\u002A,7*%
X59500000Y-86500000D03*
%TO.P,REF\u002A\u002A,8*%
X60500000Y-86500000D03*
%TO.P,REF\u002A\u002A,9*%
X61500000Y-86500000D03*
%TO.P,REF\u002A\u002A,10*%
X62500000Y-86500000D03*
%TD*%
D19*
%TO.P,C2,1*%
%TO.N,Net-(D2-K)*%
X72778871Y-77360000D03*
D15*
%TO.P,C2,2*%
%TO.N,Net-(Q1-B)*%
X75278871Y-77360000D03*
%TD*%
D20*
%TO.P,U1,1,1*%
%TO.N,GND*%
X56500000Y-37500000D03*
%TO.P,U1,2,2*%
%TO.N,+3V0*%
X76500000Y-37500000D03*
%TD*%
D13*
%TO.P,D2,1,K*%
%TO.N,Net-(D2-K)*%
X56231250Y-69275000D03*
D14*
%TO.P,D2,2,A*%
%TO.N,Net-(D2-A)*%
X56231250Y-66735000D03*
%TD*%
D19*
%TO.P,C1,1*%
%TO.N,Net-(D1-K)*%
X64318871Y-77360000D03*
D15*
%TO.P,C1,2*%
%TO.N,Net-(Q2-B)*%
X66818871Y-77360000D03*
%TD*%
%TO.P,R2,1*%
%TO.N,+3V0*%
X67987500Y-51920000D03*
D16*
%TO.P,R2,2*%
%TO.N,Net-(Q2-B)*%
X67987500Y-62080000D03*
%TD*%
D15*
%TO.P,R4,1*%
%TO.N,+3V0*%
X55500000Y-51920000D03*
D16*
%TO.P,R4,2*%
%TO.N,Net-(D2-A)*%
X55500000Y-62080000D03*
%TD*%
D21*
%TO.N,GND*%
X64500000Y-60500000D03*
X64500000Y-48500000D03*
%TD*%
D22*
%TO.N,+3V0*%
X74231250Y-39768750D02*
X76500000Y-37500000D01*
X74231250Y-51920000D02*
X74231250Y-39768750D01*
X55500000Y-51920000D02*
X74231250Y-51920000D01*
D23*
%TO.N,GND*%
X64731250Y-66500000D02*
X71731250Y-66500000D01*
X72691250Y-67540000D02*
X72691250Y-68360000D01*
X64231250Y-68360000D02*
X64231250Y-67000000D01*
X58000000Y-47500000D02*
X63500000Y-47500000D01*
X64500000Y-66268750D02*
X64731250Y-66500000D01*
X56500000Y-37500000D02*
X56500000Y-46000000D01*
X71731250Y-66500000D02*
X72731250Y-67500000D01*
X56500000Y-46000000D02*
X58000000Y-47500000D01*
X63500000Y-47500000D02*
X64500000Y-48500000D01*
X64231250Y-67000000D02*
X64731250Y-66500000D01*
X64500000Y-60500000D02*
X64500000Y-66268750D01*
X72731250Y-67500000D02*
X72691250Y-67540000D01*
%TO.N,Net-(D1-K)*%
X65501250Y-68360000D02*
X65501250Y-69265000D01*
X64318871Y-70447379D02*
X64318871Y-77360000D01*
X65501250Y-69265000D02*
X64318871Y-70447379D01*
%TO.N,Net-(Q1-B)*%
X74731250Y-83080000D02*
X75278871Y-82532379D01*
X75278871Y-82532379D02*
X75278871Y-77360000D01*
X61743750Y-62080000D02*
X61743750Y-82000000D01*
X61743750Y-82092500D02*
X62731250Y-83080000D01*
X62731250Y-83080000D02*
X74731250Y-83080000D01*
%TO.N,Net-(Q2-B)*%
X67731250Y-73500000D02*
X66818871Y-74412379D01*
X74731250Y-73500000D02*
X67731250Y-73500000D01*
X75231250Y-73000000D02*
X74731250Y-73500000D01*
X66818871Y-74412379D02*
X66818871Y-77360000D01*
X75231250Y-68360000D02*
X75231250Y-73000000D01*
%TD*%
%TA.AperFunction,Conductor*%
%TO.N,GND*%
G36*
X80942539Y-20020185D02*
G01*
X80988294Y-20072989D01*
X80999500Y-20124500D01*
X80999500Y-88875500D01*
X80979815Y-88942539D01*
X80927011Y-88988294D01*
X80875500Y-88999500D01*
X49624500Y-88999500D01*
X49557461Y-88979815D01*
X49511706Y-88927011D01*
X49500500Y-88875500D01*
X49500500Y-86972870D01*
X52574500Y-86972870D01*
X52574501Y-86972876D01*
X52580908Y-87032483D01*
X52631202Y-87167328D01*
X52631206Y-87167335D01*
X52717452Y-87282544D01*
X52717455Y-87282547D01*
X52832664Y-87368793D01*
X52832671Y-87368797D01*
X52967517Y-87419091D01*
X52967516Y-87419091D01*
X52974444Y-87419835D01*
X53027127Y-87425500D01*
X53972872Y-87425499D01*
X54032483Y-87419091D01*
X54124530Y-87384759D01*
X54194218Y-87379776D01*
X54206039Y-87383678D01*
X54206246Y-87383042D01*
X54212426Y-87385049D01*
X54212429Y-87385051D01*
X54402726Y-87425500D01*
X54597274Y-87425500D01*
X54787566Y-87385052D01*
X54787565Y-87385052D01*
X54787571Y-87385051D01*
X54949569Y-87312925D01*
X55018815Y-87303642D01*
X55050425Y-87312922D01*
X55212429Y-87385051D01*
X55212432Y-87385051D01*
X55212433Y-87385052D01*
X55402726Y-87425500D01*
X55597274Y-87425500D01*
X55787566Y-87385052D01*
X55787565Y-87385052D01*
X55787571Y-87385051D01*
X55949569Y-87312925D01*
X56018815Y-87303642D01*
X56050425Y-87312922D01*
X56212429Y-87385051D01*
X56212432Y-87385051D01*
X56212433Y-87385052D01*
X56402726Y-87425500D01*
X56597274Y-87425500D01*
X56787566Y-87385052D01*
X56787565Y-87385052D01*
X56787571Y-87385051D01*
X56949569Y-87312925D01*
X57018815Y-87303642D01*
X57050425Y-87312922D01*
X57212429Y-87385051D01*
X57212432Y-87385051D01*
X57212433Y-87385052D01*
X57402726Y-87425500D01*
X57597274Y-87425500D01*
X57787571Y-87385051D01*
X57949566Y-87312926D01*
X58018813Y-87303642D01*
X58050429Y-87312924D01*
X58212429Y-87385051D01*
X58402726Y-87425500D01*
X58597274Y-87425500D01*
X58787566Y-87385052D01*
X58787565Y-87385052D01*
X58787571Y-87385051D01*
X58949569Y-87312925D01*
X59018815Y-87303642D01*
X59050425Y-87312922D01*
X59212429Y-87385051D01*
X59212432Y-87385051D01*
X59212433Y-87385052D01*
X59402726Y-87425500D01*
X59597274Y-87425500D01*
X59787571Y-87385051D01*
X59949566Y-87312926D01*
X60018813Y-87303642D01*
X60050429Y-87312924D01*
X60212429Y-87385051D01*
X60402726Y-87425500D01*
X60597274Y-87425500D01*
X60787566Y-87385052D01*
X60787565Y-87385052D01*
X60787571Y-87385051D01*
X60949569Y-87312925D01*
X61018815Y-87303642D01*
X61050425Y-87312922D01*
X61212429Y-87385051D01*
X61212432Y-87385051D01*
X61212433Y-87385052D01*
X61402726Y-87425500D01*
X61597274Y-87425500D01*
X61787566Y-87385052D01*
X61787565Y-87385052D01*
X61787571Y-87385051D01*
X61949569Y-87312925D01*
X62018815Y-87303642D01*
X62050425Y-87312922D01*
X62212429Y-87385051D01*
X62212432Y-87385051D01*
X62212433Y-87385052D01*
X62402726Y-87425500D01*
X62597274Y-87425500D01*
X62787571Y-87385051D01*
X62965299Y-87305922D01*
X63122692Y-87191569D01*
X63144513Y-87167335D01*
X63150895Y-87160245D01*
X63252870Y-87046992D01*
X63350144Y-86878508D01*
X63375652Y-86800001D01*
X64499500Y-86800001D01*
X64499501Y-86800019D01*
X64510000Y-86902796D01*
X64510001Y-86902799D01*
X64565185Y-87069331D01*
X64565186Y-87069334D01*
X64657288Y-87218656D01*
X64781344Y-87342712D01*
X64930666Y-87434814D01*
X65097203Y-87489999D01*
X65199991Y-87500500D01*
X66800008Y-87500499D01*
X66902797Y-87489999D01*
X67069334Y-87434814D01*
X67218656Y-87342712D01*
X67342712Y-87218656D01*
X67434814Y-87069334D01*
X67489999Y-86902797D01*
X67500500Y-86800009D01*
X67500500Y-86800001D01*
X67999500Y-86800001D01*
X67999501Y-86800019D01*
X68010000Y-86902796D01*
X68010001Y-86902799D01*
X68065185Y-87069331D01*
X68065186Y-87069334D01*
X68157288Y-87218656D01*
X68281344Y-87342712D01*
X68430666Y-87434814D01*
X68597203Y-87489999D01*
X68699991Y-87500500D01*
X70300008Y-87500499D01*
X70402797Y-87489999D01*
X70569334Y-87434814D01*
X70718656Y-87342712D01*
X70842712Y-87218656D01*
X70934814Y-87069334D01*
X70989999Y-86902797D01*
X71000500Y-86800009D01*
X71000500Y-86800001D01*
X71499500Y-86800001D01*
X71499501Y-86800019D01*
X71510000Y-86902796D01*
X71510001Y-86902799D01*
X71565185Y-87069331D01*
X71565186Y-87069334D01*
X71657288Y-87218656D01*
X71781344Y-87342712D01*
X71930666Y-87434814D01*
X72097203Y-87489999D01*
X72199991Y-87500500D01*
X73800008Y-87500499D01*
X73902797Y-87489999D01*
X74069334Y-87434814D01*
X74218656Y-87342712D01*
X74342712Y-87218656D01*
X74434814Y-87069334D01*
X74489999Y-86902797D01*
X74500500Y-86800009D01*
X74500500Y-86800001D01*
X74999500Y-86800001D01*
X74999501Y-86800019D01*
X75010000Y-86902796D01*
X75010001Y-86902799D01*
X75065185Y-87069331D01*
X75065186Y-87069334D01*
X75157288Y-87218656D01*
X75281344Y-87342712D01*
X75430666Y-87434814D01*
X75597203Y-87489999D01*
X75699991Y-87500500D01*
X77300008Y-87500499D01*
X77402797Y-87489999D01*
X77569334Y-87434814D01*
X77718656Y-87342712D01*
X77842712Y-87218656D01*
X77934814Y-87069334D01*
X77989999Y-86902797D01*
X78000500Y-86800009D01*
X78000499Y-86199992D01*
X77989999Y-86097203D01*
X77934814Y-85930666D01*
X77842712Y-85781344D01*
X77718656Y-85657288D01*
X77584436Y-85574501D01*
X77569336Y-85565187D01*
X77569331Y-85565185D01*
X77567862Y-85564698D01*
X77402797Y-85510001D01*
X77402795Y-85510000D01*
X77300010Y-85499500D01*
X75699998Y-85499500D01*
X75699981Y-85499501D01*
X75597203Y-85510000D01*
X75597200Y-85510001D01*
X75430668Y-85565185D01*
X75430663Y-85565187D01*
X75281342Y-85657289D01*
X75157289Y-85781342D01*
X75065187Y-85930663D01*
X75065185Y-85930668D01*
X75057782Y-85953009D01*
X75010001Y-86097203D01*
X75010001Y-86097204D01*
X75010000Y-86097204D01*
X74999500Y-86199983D01*
X74999500Y-86800001D01*
X74500500Y-86800001D01*
X74500499Y-86199992D01*
X74489999Y-86097203D01*
X74434814Y-85930666D01*
X74342712Y-85781344D01*
X74218656Y-85657288D01*
X74084436Y-85574501D01*
X74069336Y-85565187D01*
X74069331Y-85565185D01*
X74067862Y-85564698D01*
X73902797Y-85510001D01*
X73902795Y-85510000D01*
X73800010Y-85499500D01*
X72199998Y-85499500D01*
X72199981Y-85499501D01*
X72097203Y-85510000D01*
X72097200Y-85510001D01*
X71930668Y-85565185D01*
X71930663Y-85565187D01*
X71781342Y-85657289D01*
X71657289Y-85781342D01*
X71565187Y-85930663D01*
X71565185Y-85930668D01*
X71557782Y-85953009D01*
X71510001Y-86097203D01*
X71510001Y-86097204D01*
X71510000Y-86097204D01*
X71499500Y-86199983D01*
X71499500Y-86800001D01*
X71000500Y-86800001D01*
X71000499Y-86199992D01*
X70989999Y-86097203D01*
X70934814Y-85930666D01*
X70842712Y-85781344D01*
X70718656Y-85657288D01*
X70584436Y-85574501D01*
X70569336Y-85565187D01*
X70569331Y-85565185D01*
X70567862Y-85564698D01*
X70402797Y-85510001D01*
X70402795Y-85510000D01*
X70300010Y-85499500D01*
X68699998Y-85499500D01*
X68699981Y-85499501D01*
X68597203Y-85510000D01*
X68597200Y-85510001D01*
X68430668Y-85565185D01*
X68430663Y-85565187D01*
X68281342Y-85657289D01*
X68157289Y-85781342D01*
X68065187Y-85930663D01*
X68065185Y-85930668D01*
X68057782Y-85953009D01*
X68010001Y-86097203D01*
X68010001Y-86097204D01*
X68010000Y-86097204D01*
X67999500Y-86199983D01*
X67999500Y-86800001D01*
X67500500Y-86800001D01*
X67500499Y-86199992D01*
X67489999Y-86097203D01*
X67434814Y-85930666D01*
X67342712Y-85781344D01*
X67218656Y-85657288D01*
X67084436Y-85574501D01*
X67069336Y-85565187D01*
X67069331Y-85565185D01*
X67067862Y-85564698D01*
X66902797Y-85510001D01*
X66902795Y-85510000D01*
X66800010Y-85499500D01*
X65199998Y-85499500D01*
X65199981Y-85499501D01*
X65097203Y-85510000D01*
X65097200Y-85510001D01*
X64930668Y-85565185D01*
X64930663Y-85565187D01*
X64781342Y-85657289D01*
X64657289Y-85781342D01*
X64565187Y-85930663D01*
X64565185Y-85930668D01*
X64557782Y-85953009D01*
X64510001Y-86097203D01*
X64510001Y-86097204D01*
X64510000Y-86097204D01*
X64499500Y-86199983D01*
X64499500Y-86800001D01*
X63375652Y-86800001D01*
X63410262Y-86693482D01*
X63430598Y-86500000D01*
X63410262Y-86306518D01*
X63350144Y-86121492D01*
X63350143Y-86121491D01*
X63350143Y-86121489D01*
X63350142Y-86121488D01*
X63295667Y-86027135D01*
X63252870Y-85953008D01*
X63201882Y-85896381D01*
X63122697Y-85808435D01*
X63122694Y-85808433D01*
X63122693Y-85808432D01*
X63122692Y-85808431D01*
X62997475Y-85717455D01*
X62965297Y-85694076D01*
X62824076Y-85631202D01*
X62787571Y-85614949D01*
X62787569Y-85614948D01*
X62597274Y-85574500D01*
X62402726Y-85574500D01*
X62212430Y-85614948D01*
X62212427Y-85614949D01*
X62050434Y-85687072D01*
X61981184Y-85696356D01*
X61949566Y-85687072D01*
X61787572Y-85614949D01*
X61787569Y-85614948D01*
X61597274Y-85574500D01*
X61402726Y-85574500D01*
X61212430Y-85614948D01*
X61212427Y-85614949D01*
X61050433Y-85687072D01*
X60981183Y-85696356D01*
X60949564Y-85687072D01*
X60824085Y-85631206D01*
X60787571Y-85614949D01*
X60787569Y-85614948D01*
X60597274Y-85574500D01*
X60402726Y-85574500D01*
X60212430Y-85614948D01*
X60212427Y-85614949D01*
X60050434Y-85687072D01*
X59981184Y-85696356D01*
X59949566Y-85687072D01*
X59787572Y-85614949D01*
X59787569Y-85614948D01*
X59597274Y-85574500D01*
X59402726Y-85574500D01*
X59212430Y-85614948D01*
X59212427Y-85614949D01*
X59050433Y-85687072D01*
X58981183Y-85696356D01*
X58949564Y-85687072D01*
X58824085Y-85631206D01*
X58787571Y-85614949D01*
X58787569Y-85614948D01*
X58597274Y-85574500D01*
X58402726Y-85574500D01*
X58212430Y-85614948D01*
X58212427Y-85614949D01*
X58050433Y-85687072D01*
X57981183Y-85696356D01*
X57949564Y-85687072D01*
X57824085Y-85631206D01*
X57787571Y-85614949D01*
X57787569Y-85614948D01*
X57597274Y-85574500D01*
X57402726Y-85574500D01*
X57212430Y-85614948D01*
X57212427Y-85614949D01*
X57050434Y-85687072D01*
X56981184Y-85696356D01*
X56949566Y-85687072D01*
X56787572Y-85614949D01*
X56787569Y-85614948D01*
X56597274Y-85574500D01*
X56402726Y-85574500D01*
X56212430Y-85614948D01*
X56212427Y-85614949D01*
X56050434Y-85687072D01*
X55981184Y-85696356D01*
X55949566Y-85687072D01*
X55787572Y-85614949D01*
X55787569Y-85614948D01*
X55597274Y-85574500D01*
X55402726Y-85574500D01*
X55212430Y-85614948D01*
X55212427Y-85614949D01*
X55050434Y-85687072D01*
X54981184Y-85696356D01*
X54949566Y-85687072D01*
X54787572Y-85614949D01*
X54787569Y-85614948D01*
X54597274Y-85574500D01*
X54402726Y-85574500D01*
X54212429Y-85614948D01*
X54206245Y-85616958D01*
X54205349Y-85614201D01*
X54148341Y-85621511D01*
X54124527Y-85615239D01*
X54032482Y-85580908D01*
X54032483Y-85580908D01*
X53972883Y-85574501D01*
X53972881Y-85574500D01*
X53972873Y-85574500D01*
X53972864Y-85574500D01*
X53027129Y-85574500D01*
X53027123Y-85574501D01*
X52967516Y-85580908D01*
X52832671Y-85631202D01*
X52832664Y-85631206D01*
X52717455Y-85717452D01*
X52717452Y-85717455D01*
X52631206Y-85832664D01*
X52631202Y-85832671D01*
X52580908Y-85967517D01*
X52574501Y-86027116D01*
X52574500Y-86027135D01*
X52574500Y-86972870D01*
X49500500Y-86972870D01*
X49500500Y-78495006D01*
X54825950Y-78495006D01*
X54845114Y-78726297D01*
X54845116Y-78726308D01*
X54902092Y-78951300D01*
X54995325Y-79163848D01*
X55122266Y-79358147D01*
X55122269Y-79358151D01*
X55122271Y-79358153D01*
X55279466Y-79528913D01*
X55279469Y-79528915D01*
X55279472Y-79528918D01*
X55462615Y-79671464D01*
X55462621Y-79671468D01*
X55462624Y-79671470D01*
X55666747Y-79781936D01*
X55780737Y-79821068D01*
X55886265Y-79857297D01*
X55886267Y-79857297D01*
X55886269Y-79857298D01*
X56115201Y-79895500D01*
X56115202Y-79895500D01*
X56347298Y-79895500D01*
X56347299Y-79895500D01*
X56576231Y-79857298D01*
X56795753Y-79781936D01*
X56999876Y-79671470D01*
X57183034Y-79528913D01*
X57340229Y-79358153D01*
X57467174Y-79163849D01*
X57560407Y-78951300D01*
X57617384Y-78726305D01*
X57623368Y-78654091D01*
X57636550Y-78495006D01*
X57636550Y-78494993D01*
X57617385Y-78263702D01*
X57617383Y-78263691D01*
X57560407Y-78038699D01*
X57467174Y-77826151D01*
X57340233Y-77631852D01*
X57340230Y-77631849D01*
X57340229Y-77631847D01*
X57245445Y-77528884D01*
X57214525Y-77466232D01*
X57222385Y-77396806D01*
X57266533Y-77342651D01*
X57293345Y-77328722D01*
X57373576Y-77298798D01*
X57373576Y-77298797D01*
X57373581Y-77298796D01*
X57488796Y-77212546D01*
X57575046Y-77097331D01*
X57625341Y-76962483D01*
X57631750Y-76902873D01*
X57631749Y-75007128D01*
X57625341Y-74947517D01*
X57575046Y-74812669D01*
X57575045Y-74812668D01*
X57575043Y-74812664D01*
X57488797Y-74697455D01*
X57488794Y-74697452D01*
X57373585Y-74611206D01*
X57373578Y-74611202D01*
X57238732Y-74560908D01*
X57238733Y-74560908D01*
X57179133Y-74554501D01*
X57179131Y-74554500D01*
X57179123Y-74554500D01*
X57179114Y-74554500D01*
X55283379Y-74554500D01*
X55283373Y-74554501D01*
X55223766Y-74560908D01*
X55088921Y-74611202D01*
X55088914Y-74611206D01*
X54973705Y-74697452D01*
X54973702Y-74697455D01*
X54887456Y-74812664D01*
X54887452Y-74812671D01*
X54837158Y-74947517D01*
X54830751Y-75007116D01*
X54830751Y-75007123D01*
X54830750Y-75007135D01*
X54830750Y-76902870D01*
X54830751Y-76902876D01*
X54837158Y-76962483D01*
X54887452Y-77097328D01*
X54887456Y-77097335D01*
X54973702Y-77212544D01*
X54973705Y-77212547D01*
X55088914Y-77298793D01*
X55088923Y-77298798D01*
X55169154Y-77328722D01*
X55225088Y-77370593D01*
X55249506Y-77436057D01*
X55234655Y-77504330D01*
X55217052Y-77528886D01*
X55122269Y-77631849D01*
X54995325Y-77826151D01*
X54902092Y-78038699D01*
X54845116Y-78263691D01*
X54845114Y-78263702D01*
X54825950Y-78494993D01*
X54825950Y-78495006D01*
X49500500Y-78495006D01*
X49500500Y-66735006D01*
X54825950Y-66735006D01*
X54845114Y-66966297D01*
X54845116Y-66966308D01*
X54902092Y-67191300D01*
X54995325Y-67403848D01*
X55122266Y-67598147D01*
X55122269Y-67598151D01*
X55122271Y-67598153D01*
X55217053Y-67701114D01*
X55247974Y-67763767D01*
X55240114Y-67833193D01*
X55195966Y-67887348D01*
X55169156Y-67901277D01*
X55088919Y-67931203D01*
X55088914Y-67931206D01*
X54973705Y-68017452D01*
X54973702Y-68017455D01*
X54887456Y-68132664D01*
X54887452Y-68132671D01*
X54837158Y-68267517D01*
X54830751Y-68327116D01*
X54830751Y-68327123D01*
X54830750Y-68327135D01*
X54830750Y-70222870D01*
X54830751Y-70222876D01*
X54837158Y-70282483D01*
X54887452Y-70417328D01*
X54887456Y-70417335D01*
X54973702Y-70532544D01*
X54973705Y-70532547D01*
X55088914Y-70618793D01*
X55088921Y-70618797D01*
X55223767Y-70669091D01*
X55223766Y-70669091D01*
X55230694Y-70669835D01*
X55283377Y-70675500D01*
X57179122Y-70675499D01*
X57238733Y-70669091D01*
X57373581Y-70618796D01*
X57488796Y-70532546D01*
X57575046Y-70417331D01*
X57625341Y-70282483D01*
X57631750Y-70222873D01*
X57631749Y-68327128D01*
X57625341Y-68267517D01*
X57602874Y-68207281D01*
X57575047Y-68132671D01*
X57575043Y-68132664D01*
X57488797Y-68017455D01*
X57488794Y-68017452D01*
X57373585Y-67931206D01*
X57373578Y-67931202D01*
X57293344Y-67901277D01*
X57237410Y-67859406D01*
X57212993Y-67793941D01*
X57227845Y-67725668D01*
X57245440Y-67701121D01*
X57340229Y-67598153D01*
X57467174Y-67403849D01*
X57560407Y-67191300D01*
X57617384Y-66966305D01*
X57636550Y-66735000D01*
X57636550Y-66734993D01*
X57617385Y-66503702D01*
X57617383Y-66503691D01*
X57560407Y-66278699D01*
X57467174Y-66066151D01*
X57340233Y-65871852D01*
X57340230Y-65871849D01*
X57340229Y-65871847D01*
X57183034Y-65701087D01*
X57183029Y-65701083D01*
X57183027Y-65701081D01*
X56999884Y-65558535D01*
X56999878Y-65558531D01*
X56795754Y-65448064D01*
X56795745Y-65448061D01*
X56576234Y-65372702D01*
X56404531Y-65344050D01*
X56347299Y-65334500D01*
X56115201Y-65334500D01*
X56069414Y-65342140D01*
X55886265Y-65372702D01*
X55666754Y-65448061D01*
X55666745Y-65448064D01*
X55462621Y-65558531D01*
X55462615Y-65558535D01*
X55279472Y-65701081D01*
X55279469Y-65701084D01*
X55122266Y-65871852D01*
X54995325Y-66066151D01*
X54902092Y-66278699D01*
X54845116Y-66503691D01*
X54845114Y-66503702D01*
X54825950Y-66734993D01*
X54825950Y-66735006D01*
X49500500Y-66735006D01*
X49500500Y-62080001D01*
X54194532Y-62080001D01*
X54214364Y-62306686D01*
X54214366Y-62306697D01*
X54273258Y-62526488D01*
X54273261Y-62526497D01*
X54369431Y-62732732D01*
X54369432Y-62732734D01*
X54499954Y-62919141D01*
X54660858Y-63080045D01*
X54660861Y-63080047D01*
X54847266Y-63210568D01*
X55053504Y-63306739D01*
X55273308Y-63365635D01*
X55435230Y-63379801D01*
X55499998Y-63385468D01*
X55500000Y-63385468D01*
X55500002Y-63385468D01*
X55556673Y-63380509D01*
X55726692Y-63365635D01*
X55946496Y-63306739D01*
X56152734Y-63210568D01*
X56339139Y-63080047D01*
X56500047Y-62919139D01*
X56630568Y-62732734D01*
X56726739Y-62526496D01*
X56785635Y-62306692D01*
X56805468Y-62080001D01*
X60438282Y-62080001D01*
X60458114Y-62306686D01*
X60458116Y-62306697D01*
X60517008Y-62526488D01*
X60517011Y-62526497D01*
X60613181Y-62732732D01*
X60613182Y-62732734D01*
X60743704Y-62919141D01*
X60904609Y-63080046D01*
X60940371Y-63105086D01*
X60983997Y-63159662D01*
X60993250Y-63206662D01*
X60993250Y-82028794D01*
X60991941Y-82046763D01*
X60988460Y-82070526D01*
X61003750Y-82245295D01*
X61058935Y-82411831D01*
X61058937Y-82411836D01*
X61151039Y-82561157D01*
X62155520Y-83565638D01*
X62167301Y-83579270D01*
X62181638Y-83598528D01*
X62221659Y-83632111D01*
X62225647Y-83635766D01*
X62231466Y-83641585D01*
X62231470Y-83641588D01*
X62231473Y-83641591D01*
X62257209Y-83661940D01*
X62316036Y-83711302D01*
X62316037Y-83711302D01*
X62316039Y-83711304D01*
X62322068Y-83715270D01*
X62322035Y-83715319D01*
X62328397Y-83719372D01*
X62328429Y-83719321D01*
X62334569Y-83723108D01*
X62334573Y-83723111D01*
X62369382Y-83739343D01*
X62404191Y-83755575D01*
X62422586Y-83764813D01*
X62472817Y-83790040D01*
X62472819Y-83790040D01*
X62479607Y-83792511D01*
X62479586Y-83792567D01*
X62486707Y-83795043D01*
X62486726Y-83794986D01*
X62493572Y-83797254D01*
X62493577Y-83797257D01*
X62493582Y-83797258D01*
X62493585Y-83797259D01*
X62568815Y-83812792D01*
X62643529Y-83830500D01*
X62643532Y-83830500D01*
X62643536Y-83830501D01*
X62650703Y-83831339D01*
X62650696Y-83831398D01*
X62658194Y-83832164D01*
X62658200Y-83832105D01*
X62665389Y-83832734D01*
X62665393Y-83832733D01*
X62665394Y-83832734D01*
X62742167Y-83830500D01*
X74667545Y-83830500D01*
X74685515Y-83831809D01*
X74709273Y-83835289D01*
X74761318Y-83830735D01*
X74766720Y-83830500D01*
X74774954Y-83830500D01*
X74774959Y-83830500D01*
X74786577Y-83829141D01*
X74807526Y-83826693D01*
X74820278Y-83825577D01*
X74884047Y-83819999D01*
X74884055Y-83819996D01*
X74891116Y-83818539D01*
X74891128Y-83818598D01*
X74898493Y-83816965D01*
X74898479Y-83816906D01*
X74905496Y-83815241D01*
X74905505Y-83815241D01*
X74977673Y-83788974D01*
X75050584Y-83764814D01*
X75050593Y-83764807D01*
X75057132Y-83761760D01*
X75057158Y-83761816D01*
X75063940Y-83758532D01*
X75063913Y-83758478D01*
X75070356Y-83755240D01*
X75070367Y-83755237D01*
X75134533Y-83713034D01*
X75199906Y-83672712D01*
X75199912Y-83672705D01*
X75205575Y-83668229D01*
X75205613Y-83668277D01*
X75211450Y-83663522D01*
X75211411Y-83663475D01*
X75216946Y-83658830D01*
X75269635Y-83602983D01*
X75517070Y-83355546D01*
X75764513Y-83108103D01*
X75778142Y-83096326D01*
X75797401Y-83081989D01*
X75830972Y-83041980D01*
X75834632Y-83037985D01*
X75840461Y-83032157D01*
X75860812Y-83006418D01*
X75866819Y-82999258D01*
X75910173Y-82947593D01*
X75910177Y-82947584D01*
X75914145Y-82941554D01*
X75914196Y-82941587D01*
X75918243Y-82935235D01*
X75918191Y-82935203D01*
X75921983Y-82929054D01*
X75954446Y-82859437D01*
X75988907Y-82790819D01*
X75988911Y-82790812D01*
X75988913Y-82790800D01*
X75991380Y-82784025D01*
X75991438Y-82784046D01*
X75993914Y-82776925D01*
X75993857Y-82776907D01*
X75996128Y-82770052D01*
X76011663Y-82694813D01*
X76029369Y-82620107D01*
X76029371Y-82620100D01*
X76029371Y-82620089D01*
X76030209Y-82612927D01*
X76030269Y-82612934D01*
X76031035Y-82605434D01*
X76030976Y-82605429D01*
X76031605Y-82598239D01*
X76029371Y-82521462D01*
X76029371Y-78486662D01*
X76049056Y-78419623D01*
X76082250Y-78385086D01*
X76118011Y-78360046D01*
X76278916Y-78199141D01*
X76278915Y-78199140D01*
X76278918Y-78199139D01*
X76409439Y-78012734D01*
X76505610Y-77806496D01*
X76564506Y-77586692D01*
X76584339Y-77360000D01*
X76564506Y-77133308D01*
X76505610Y-76913504D01*
X76409439Y-76707266D01*
X76296231Y-76545587D01*
X76278916Y-76520858D01*
X76118012Y-76359954D01*
X75931605Y-76229432D01*
X75931603Y-76229431D01*
X75725368Y-76133261D01*
X75725359Y-76133258D01*
X75505568Y-76074366D01*
X75505564Y-76074365D01*
X75505563Y-76074365D01*
X75505562Y-76074364D01*
X75505557Y-76074364D01*
X75278873Y-76054532D01*
X75278869Y-76054532D01*
X75052184Y-76074364D01*
X75052173Y-76074366D01*
X74832382Y-76133258D01*
X74832373Y-76133261D01*
X74626138Y-76229431D01*
X74626136Y-76229432D01*
X74439733Y-76359951D01*
X74282597Y-76517087D01*
X74221274Y-76550571D01*
X74151582Y-76545587D01*
X74095649Y-76503715D01*
X74074240Y-76457923D01*
X74072962Y-76452518D01*
X74022668Y-76317671D01*
X74022664Y-76317664D01*
X73936418Y-76202455D01*
X73936415Y-76202452D01*
X73821206Y-76116206D01*
X73821199Y-76116202D01*
X73686353Y-76065908D01*
X73686354Y-76065908D01*
X73626754Y-76059501D01*
X73626752Y-76059500D01*
X73626744Y-76059500D01*
X73626735Y-76059500D01*
X71931000Y-76059500D01*
X71930994Y-76059501D01*
X71871387Y-76065908D01*
X71736542Y-76116202D01*
X71736535Y-76116206D01*
X71621326Y-76202452D01*
X71621323Y-76202455D01*
X71535077Y-76317664D01*
X71535073Y-76317671D01*
X71484779Y-76452517D01*
X71478372Y-76512116D01*
X71478371Y-76512135D01*
X71478371Y-78207870D01*
X71478372Y-78207876D01*
X71484779Y-78267483D01*
X71535073Y-78402328D01*
X71535077Y-78402335D01*
X71621323Y-78517544D01*
X71621326Y-78517547D01*
X71736535Y-78603793D01*
X71736542Y-78603797D01*
X71871388Y-78654091D01*
X71871387Y-78654091D01*
X71878315Y-78654835D01*
X71930998Y-78660500D01*
X73626743Y-78660499D01*
X73686354Y-78654091D01*
X73821202Y-78603796D01*
X73936417Y-78517546D01*
X74022667Y-78402331D01*
X74072962Y-78267483D01*
X74072963Y-78267472D01*
X74074236Y-78262088D01*
X74108804Y-78201369D01*
X74170712Y-78168978D01*
X74240304Y-78175199D01*
X74282596Y-78202912D01*
X74439730Y-78360046D01*
X74475492Y-78385086D01*
X74519118Y-78439662D01*
X74528371Y-78486662D01*
X74528371Y-82170149D01*
X74508686Y-82237188D01*
X74492052Y-82257830D01*
X74456701Y-82293181D01*
X74395378Y-82326666D01*
X74369020Y-82329500D01*
X63093479Y-82329500D01*
X63026440Y-82309815D01*
X63005798Y-82293181D01*
X62530569Y-81817951D01*
X62497084Y-81756628D01*
X62494250Y-81730270D01*
X62494250Y-78207870D01*
X63018371Y-78207870D01*
X63018372Y-78207876D01*
X63024779Y-78267483D01*
X63075073Y-78402328D01*
X63075077Y-78402335D01*
X63161323Y-78517544D01*
X63161326Y-78517547D01*
X63276535Y-78603793D01*
X63276542Y-78603797D01*
X63411388Y-78654091D01*
X63411387Y-78654091D01*
X63418315Y-78654835D01*
X63470998Y-78660500D01*
X65166743Y-78660499D01*
X65226354Y-78654091D01*
X65361202Y-78603796D01*
X65476417Y-78517546D01*
X65562667Y-78402331D01*
X65612962Y-78267483D01*
X65612963Y-78267472D01*
X65614236Y-78262088D01*
X65648804Y-78201369D01*
X65710712Y-78168978D01*
X65780304Y-78175199D01*
X65822596Y-78202912D01*
X65979729Y-78360045D01*
X65979732Y-78360047D01*
X66166137Y-78490568D01*
X66372375Y-78586739D01*
X66592179Y-78645635D01*
X66754101Y-78659801D01*
X66818869Y-78665468D01*
X66818871Y-78665468D01*
X66818873Y-78665468D01*
X66875678Y-78660498D01*
X67045563Y-78645635D01*
X67265367Y-78586739D01*
X67471605Y-78490568D01*
X67658010Y-78360047D01*
X67818918Y-78199139D01*
X67949439Y-78012734D01*
X68045610Y-77806496D01*
X68104506Y-77586692D01*
X68124339Y-77360000D01*
X68104506Y-77133308D01*
X68045610Y-76913504D01*
X67949439Y-76707266D01*
X67836231Y-76545587D01*
X67818919Y-76520862D01*
X67750574Y-76452517D01*
X67658010Y-76359953D01*
X67653244Y-76356615D01*
X67622246Y-76334910D01*
X67578622Y-76280332D01*
X67569371Y-76233336D01*
X67569371Y-74774609D01*
X67589056Y-74707570D01*
X67605690Y-74686928D01*
X68005799Y-74286819D01*
X68067122Y-74253334D01*
X68093480Y-74250500D01*
X74667545Y-74250500D01*
X74685515Y-74251809D01*
X74709273Y-74255289D01*
X74761318Y-74250735D01*
X74766720Y-74250500D01*
X74774954Y-74250500D01*
X74774959Y-74250500D01*
X74786577Y-74249141D01*
X74807526Y-74246693D01*
X74820278Y-74245577D01*
X74884047Y-74239999D01*
X74884055Y-74239996D01*
X74891116Y-74238539D01*
X74891128Y-74238598D01*
X74898493Y-74236965D01*
X74898479Y-74236906D01*
X74905496Y-74235241D01*
X74905505Y-74235241D01*
X74977673Y-74208974D01*
X75050584Y-74184814D01*
X75050593Y-74184807D01*
X75057132Y-74181760D01*
X75057158Y-74181816D01*
X75063940Y-74178532D01*
X75063913Y-74178478D01*
X75070356Y-74175240D01*
X75070367Y-74175237D01*
X75134533Y-74133034D01*
X75199906Y-74092712D01*
X75199912Y-74092705D01*
X75205575Y-74088229D01*
X75205613Y-74088277D01*
X75211450Y-74083522D01*
X75211411Y-74083475D01*
X75216946Y-74078830D01*
X75269635Y-74022983D01*
X75493260Y-73799356D01*
X75716892Y-73575724D01*
X75730521Y-73563947D01*
X75749780Y-73549610D01*
X75783351Y-73509601D01*
X75787011Y-73505606D01*
X75792840Y-73499778D01*
X75813191Y-73474039D01*
X75819198Y-73466879D01*
X75862552Y-73415214D01*
X75862556Y-73415205D01*
X75866524Y-73409175D01*
X75866575Y-73409208D01*
X75870622Y-73402856D01*
X75870570Y-73402824D01*
X75874362Y-73396675D01*
X75906825Y-73327058D01*
X75941286Y-73258440D01*
X75941290Y-73258433D01*
X75941292Y-73258421D01*
X75943759Y-73251646D01*
X75943817Y-73251667D01*
X75946293Y-73244546D01*
X75946236Y-73244528D01*
X75948507Y-73237673D01*
X75964042Y-73162434D01*
X75981748Y-73087728D01*
X75981750Y-73087721D01*
X75981750Y-73087710D01*
X75982588Y-73080548D01*
X75982648Y-73080555D01*
X75983414Y-73073055D01*
X75983355Y-73073050D01*
X75983984Y-73065860D01*
X75981750Y-72989082D01*
X75981750Y-69331386D01*
X76001435Y-69264347D01*
X76009897Y-69252721D01*
X76088047Y-69157495D01*
X76088051Y-69157488D01*
X76183271Y-68979345D01*
X76183271Y-68979344D01*
X76183273Y-68979341D01*
X76241912Y-68786033D01*
X76256750Y-68635380D01*
X76256750Y-68084620D01*
X76241912Y-67933967D01*
X76183273Y-67740659D01*
X76183271Y-67740656D01*
X76183271Y-67740654D01*
X76088051Y-67562511D01*
X76088049Y-67562509D01*
X76088048Y-67562506D01*
X76038901Y-67502620D01*
X75959897Y-67406352D01*
X75803745Y-67278203D01*
X75803738Y-67278198D01*
X75625595Y-67182978D01*
X75432281Y-67124337D01*
X75253212Y-67106701D01*
X75231250Y-67104538D01*
X75231249Y-67104538D01*
X75030218Y-67124337D01*
X74836904Y-67182978D01*
X74654703Y-67280367D01*
X74586300Y-67294609D01*
X74537797Y-67280367D01*
X74355595Y-67182978D01*
X74162281Y-67124337D01*
X73961250Y-67104538D01*
X73760218Y-67124337D01*
X73622621Y-67166076D01*
X73566909Y-67182977D01*
X73566907Y-67182977D01*
X73565232Y-67183486D01*
X73495365Y-67184109D01*
X73466664Y-67169902D01*
X73466122Y-67170897D01*
X73458336Y-67166645D01*
X73323629Y-67116403D01*
X73323622Y-67116401D01*
X73264094Y-67110000D01*
X72941250Y-67110000D01*
X72941250Y-67875669D01*
X72921565Y-67942708D01*
X72868761Y-67988463D01*
X72799603Y-67998407D01*
X72776990Y-67992951D01*
X72753828Y-67985000D01*
X72753826Y-67985000D01*
X72660177Y-67985000D01*
X72660176Y-67985000D01*
X72585658Y-67997434D01*
X72516293Y-67989052D01*
X72462472Y-67944498D01*
X72441281Y-67877919D01*
X72441250Y-67875125D01*
X72441250Y-67110000D01*
X72118405Y-67110000D01*
X72058877Y-67116401D01*
X72058870Y-67116403D01*
X71924163Y-67166645D01*
X71924156Y-67166649D01*
X71809062Y-67252809D01*
X71809059Y-67252812D01*
X71722899Y-67367906D01*
X71722895Y-67367913D01*
X71672653Y-67502620D01*
X71672651Y-67502627D01*
X71666250Y-67562155D01*
X71666250Y-68110000D01*
X72203058Y-68110000D01*
X72270097Y-68129685D01*
X72315852Y-68182489D01*
X72325796Y-68251647D01*
X72323263Y-68264441D01*
X72322698Y-68266670D01*
X72312363Y-68391392D01*
X72328613Y-68455560D01*
X72325988Y-68525381D01*
X72286031Y-68582698D01*
X72221430Y-68609314D01*
X72208407Y-68610000D01*
X71666250Y-68610000D01*
X71666250Y-69157844D01*
X71672651Y-69217372D01*
X71672653Y-69217379D01*
X71722895Y-69352086D01*
X71722899Y-69352093D01*
X71809059Y-69467187D01*
X71809062Y-69467190D01*
X71924156Y-69553350D01*
X71924163Y-69553354D01*
X72058870Y-69603596D01*
X72058877Y-69603598D01*
X72118405Y-69609999D01*
X72118422Y-69610000D01*
X72441250Y-69610000D01*
X72441250Y-68844330D01*
X72460935Y-68777291D01*
X72513739Y-68731536D01*
X72582897Y-68721592D01*
X72605512Y-68727048D01*
X72628674Y-68735000D01*
X72722322Y-68735000D01*
X72722323Y-68735000D01*
X72796842Y-68722565D01*
X72866205Y-68730947D01*
X72920027Y-68775500D01*
X72941218Y-68842078D01*
X72941250Y-68844874D01*
X72941250Y-69610000D01*
X73264078Y-69610000D01*
X73264094Y-69609999D01*
X73323622Y-69603598D01*
X73323626Y-69603597D01*
X73458343Y-69553350D01*
X73466126Y-69549101D01*
X73467321Y-69551289D01*
X73520359Y-69531492D01*
X73565232Y-69536513D01*
X73566903Y-69537020D01*
X73566909Y-69537023D01*
X73760217Y-69595662D01*
X73961250Y-69615462D01*
X74162283Y-69595662D01*
X74320756Y-69547589D01*
X74390621Y-69546966D01*
X74449734Y-69584214D01*
X74479325Y-69647508D01*
X74480750Y-69666250D01*
X74480750Y-72625500D01*
X74461065Y-72692539D01*
X74408261Y-72738294D01*
X74356750Y-72749500D01*
X67794955Y-72749500D01*
X67776985Y-72748191D01*
X67753222Y-72744710D01*
X67707783Y-72748686D01*
X67701181Y-72749264D01*
X67695780Y-72749500D01*
X67687539Y-72749500D01*
X67665829Y-72752037D01*
X67654974Y-72753306D01*
X67639669Y-72754645D01*
X67578449Y-72760001D01*
X67571382Y-72761460D01*
X67571370Y-72761404D01*
X67564013Y-72763035D01*
X67564027Y-72763092D01*
X67556993Y-72764759D01*
X67484825Y-72791025D01*
X67411925Y-72815181D01*
X67405376Y-72818236D01*
X67405351Y-72818183D01*
X67398558Y-72821471D01*
X67398584Y-72821523D01*
X67392130Y-72824764D01*
X67327958Y-72866971D01*
X67262597Y-72907285D01*
X67256933Y-72911765D01*
X67256897Y-72911719D01*
X67251048Y-72916484D01*
X67251085Y-72916528D01*
X67245560Y-72921164D01*
X67192848Y-72977034D01*
X66333229Y-73836651D01*
X66319600Y-73848430D01*
X66300339Y-73862769D01*
X66266769Y-73902776D01*
X66263124Y-73906755D01*
X66257280Y-73912601D01*
X66236930Y-73938338D01*
X66187566Y-73997168D01*
X66183600Y-74003198D01*
X66183553Y-74003167D01*
X66179501Y-74009526D01*
X66179550Y-74009556D01*
X66175760Y-74015700D01*
X66143295Y-74085320D01*
X66108831Y-74153945D01*
X66106359Y-74160736D01*
X66106303Y-74160715D01*
X66103831Y-74167829D01*
X66103886Y-74167848D01*
X66101613Y-74174706D01*
X66094538Y-74208974D01*
X66086078Y-74249944D01*
X66077339Y-74286819D01*
X66068369Y-74324665D01*
X66067532Y-74331833D01*
X66067472Y-74331826D01*
X66066706Y-74339324D01*
X66066766Y-74339330D01*
X66066136Y-74346519D01*
X66068371Y-74423295D01*
X66068370Y-76233337D01*
X66048685Y-76300377D01*
X66015495Y-76334911D01*
X65979734Y-76359951D01*
X65822597Y-76517087D01*
X65761273Y-76550571D01*
X65691582Y-76545586D01*
X65635648Y-76503715D01*
X65614240Y-76457923D01*
X65612962Y-76452518D01*
X65562668Y-76317671D01*
X65562664Y-76317664D01*
X65476418Y-76202455D01*
X65476415Y-76202452D01*
X65361206Y-76116206D01*
X65361199Y-76116202D01*
X65226354Y-76065908D01*
X65180114Y-76060937D01*
X65115564Y-76034199D01*
X65075716Y-75976806D01*
X65069371Y-75937648D01*
X65069371Y-73396675D01*
X65069371Y-70809603D01*
X65089055Y-70742568D01*
X65105680Y-70721936D01*
X65986888Y-69840727D01*
X66000517Y-69828950D01*
X66019780Y-69814610D01*
X66019782Y-69814606D01*
X66019784Y-69814606D01*
X66037913Y-69792999D01*
X66053363Y-69774585D01*
X66057017Y-69770599D01*
X66062840Y-69764777D01*
X66083173Y-69739060D01*
X66132552Y-69680214D01*
X66132559Y-69680198D01*
X66136522Y-69674176D01*
X66136574Y-69674210D01*
X66140621Y-69667858D01*
X66140567Y-69667825D01*
X66144354Y-69661684D01*
X66144360Y-69661677D01*
X66168458Y-69609999D01*
X66176809Y-69592090D01*
X66183869Y-69578031D01*
X66231543Y-69526953D01*
X66299264Y-69509759D01*
X66353137Y-69524316D01*
X66376909Y-69537023D01*
X66570217Y-69595662D01*
X66771250Y-69615462D01*
X66972283Y-69595662D01*
X67165591Y-69537023D01*
X67343744Y-69441798D01*
X67499897Y-69313647D01*
X67628048Y-69157494D01*
X67723273Y-68979341D01*
X67781912Y-68786033D01*
X67796750Y-68635380D01*
X67796750Y-68084620D01*
X67781912Y-67933967D01*
X67723273Y-67740659D01*
X67723271Y-67740656D01*
X67723271Y-67740654D01*
X67628051Y-67562511D01*
X67628049Y-67562509D01*
X67628048Y-67562506D01*
X67578901Y-67502620D01*
X67499897Y-67406352D01*
X67343745Y-67278203D01*
X67343738Y-67278198D01*
X67165595Y-67182978D01*
X66972281Y-67124337D01*
X66771250Y-67104538D01*
X66570218Y-67124337D01*
X66376904Y-67182978D01*
X66194703Y-67280367D01*
X66126300Y-67294609D01*
X66077797Y-67280367D01*
X65895595Y-67182978D01*
X65702281Y-67124337D01*
X65523212Y-67106701D01*
X65501250Y-67104538D01*
X65501249Y-67104538D01*
X65300218Y-67124337D01*
X65162621Y-67166076D01*
X65106909Y-67182977D01*
X65106907Y-67182977D01*
X65105232Y-67183486D01*
X65035365Y-67184109D01*
X65006664Y-67169902D01*
X65006122Y-67170897D01*
X64998336Y-67166645D01*
X64863629Y-67116403D01*
X64863622Y-67116401D01*
X64804094Y-67110000D01*
X64481250Y-67110000D01*
X64481250Y-67875669D01*
X64461565Y-67942708D01*
X64408761Y-67988463D01*
X64339603Y-67998407D01*
X64316990Y-67992951D01*
X64293828Y-67985000D01*
X64293826Y-67985000D01*
X64200177Y-67985000D01*
X64200176Y-67985000D01*
X64125658Y-67997434D01*
X64056293Y-67989052D01*
X64002472Y-67944498D01*
X63981281Y-67877919D01*
X63981250Y-67875125D01*
X63981250Y-67110000D01*
X63658405Y-67110000D01*
X63598877Y-67116401D01*
X63598870Y-67116403D01*
X63464163Y-67166645D01*
X63464156Y-67166649D01*
X63349062Y-67252809D01*
X63349059Y-67252812D01*
X63262899Y-67367906D01*
X63262895Y-67367913D01*
X63212653Y-67502620D01*
X63212651Y-67502627D01*
X63206250Y-67562155D01*
X63206250Y-68110000D01*
X63743058Y-68110000D01*
X63810097Y-68129685D01*
X63855852Y-68182489D01*
X63865796Y-68251647D01*
X63863263Y-68264441D01*
X63862698Y-68266670D01*
X63852363Y-68391392D01*
X63868613Y-68455560D01*
X63865988Y-68525381D01*
X63826031Y-68582698D01*
X63761430Y-68609314D01*
X63748407Y-68610000D01*
X63206250Y-68610000D01*
X63206250Y-69157844D01*
X63212651Y-69217372D01*
X63212653Y-69217379D01*
X63262895Y-69352086D01*
X63262899Y-69352093D01*
X63349059Y-69467187D01*
X63349062Y-69467190D01*
X63464156Y-69553350D01*
X63464163Y-69553354D01*
X63598870Y-69603596D01*
X63598877Y-69603598D01*
X63658405Y-69609999D01*
X63658422Y-69610000D01*
X63795519Y-69610000D01*
X63862558Y-69629685D01*
X63908313Y-69682489D01*
X63918257Y-69751647D01*
X63889232Y-69815203D01*
X63883199Y-69821682D01*
X63833228Y-69871652D01*
X63819600Y-69883430D01*
X63800339Y-69897769D01*
X63766769Y-69937776D01*
X63763124Y-69941755D01*
X63757280Y-69947601D01*
X63736930Y-69973338D01*
X63687566Y-70032168D01*
X63683600Y-70038198D01*
X63683553Y-70038167D01*
X63679501Y-70044526D01*
X63679550Y-70044556D01*
X63675760Y-70050700D01*
X63643295Y-70120320D01*
X63608831Y-70188945D01*
X63606359Y-70195736D01*
X63606303Y-70195715D01*
X63603831Y-70202829D01*
X63603886Y-70202848D01*
X63601613Y-70209706D01*
X63593845Y-70247325D01*
X63586078Y-70284944D01*
X63572872Y-70340663D01*
X63568369Y-70359665D01*
X63567532Y-70366833D01*
X63567472Y-70366826D01*
X63566706Y-70374324D01*
X63566766Y-70374330D01*
X63566136Y-70381519D01*
X63568371Y-70458295D01*
X63568371Y-75937648D01*
X63548686Y-76004687D01*
X63495882Y-76050442D01*
X63457626Y-76060938D01*
X63411387Y-76065909D01*
X63276542Y-76116202D01*
X63276535Y-76116206D01*
X63161326Y-76202452D01*
X63161323Y-76202455D01*
X63075077Y-76317664D01*
X63075073Y-76317671D01*
X63024779Y-76452517D01*
X63018372Y-76512116D01*
X63018371Y-76512135D01*
X63018371Y-78207870D01*
X62494250Y-78207870D01*
X62494250Y-63206662D01*
X62513935Y-63139623D01*
X62547129Y-63105086D01*
X62582890Y-63080046D01*
X62743795Y-62919141D01*
X62743794Y-62919140D01*
X62743797Y-62919139D01*
X62874318Y-62732734D01*
X62970489Y-62526496D01*
X63029385Y-62306692D01*
X63049218Y-62080001D01*
X66682032Y-62080001D01*
X66701864Y-62306686D01*
X66701866Y-62306697D01*
X66760758Y-62526488D01*
X66760761Y-62526497D01*
X66856931Y-62732732D01*
X66856932Y-62732734D01*
X66987454Y-62919141D01*
X67148358Y-63080045D01*
X67148361Y-63080047D01*
X67334766Y-63210568D01*
X67541004Y-63306739D01*
X67760808Y-63365635D01*
X67922730Y-63379801D01*
X67987498Y-63385468D01*
X67987500Y-63385468D01*
X67987502Y-63385468D01*
X68044172Y-63380509D01*
X68214192Y-63365635D01*
X68433996Y-63306739D01*
X68640234Y-63210568D01*
X68826639Y-63080047D01*
X68987547Y-62919139D01*
X69118068Y-62732734D01*
X69214239Y-62526496D01*
X69273135Y-62306692D01*
X69292968Y-62080001D01*
X72925782Y-62080001D01*
X72945614Y-62306686D01*
X72945616Y-62306697D01*
X73004508Y-62526488D01*
X73004511Y-62526497D01*
X73100681Y-62732732D01*
X73100682Y-62732734D01*
X73231204Y-62919141D01*
X73392108Y-63080045D01*
X73392111Y-63080047D01*
X73578516Y-63210568D01*
X73784754Y-63306739D01*
X74004558Y-63365635D01*
X74166480Y-63379801D01*
X74231248Y-63385468D01*
X74231250Y-63385468D01*
X74231252Y-63385468D01*
X74287923Y-63380509D01*
X74457942Y-63365635D01*
X74677746Y-63306739D01*
X74883984Y-63210568D01*
X75070389Y-63080047D01*
X75231297Y-62919139D01*
X75361818Y-62732734D01*
X75457989Y-62526496D01*
X75516885Y-62306692D01*
X75536718Y-62080000D01*
X75516885Y-61853308D01*
X75457989Y-61633504D01*
X75361818Y-61427266D01*
X75231297Y-61240861D01*
X75231295Y-61240858D01*
X75070391Y-61079954D01*
X74883984Y-60949432D01*
X74883982Y-60949431D01*
X74677747Y-60853261D01*
X74677738Y-60853258D01*
X74457947Y-60794366D01*
X74457943Y-60794365D01*
X74457942Y-60794365D01*
X74457941Y-60794364D01*
X74457936Y-60794364D01*
X74231252Y-60774532D01*
X74231248Y-60774532D01*
X74004563Y-60794364D01*
X74004552Y-60794366D01*
X73784761Y-60853258D01*
X73784752Y-60853261D01*
X73578517Y-60949431D01*
X73578515Y-60949432D01*
X73392108Y-61079954D01*
X73231204Y-61240858D01*
X73100682Y-61427265D01*
X73100681Y-61427267D01*
X73004511Y-61633502D01*
X73004508Y-61633511D01*
X72945616Y-61853302D01*
X72945614Y-61853313D01*
X72925782Y-62079998D01*
X72925782Y-62080001D01*
X69292968Y-62080001D01*
X69292968Y-62080000D01*
X69273135Y-61853308D01*
X69214239Y-61633504D01*
X69118068Y-61427266D01*
X68987547Y-61240861D01*
X68987545Y-61240858D01*
X68826641Y-61079954D01*
X68640234Y-60949432D01*
X68640232Y-60949431D01*
X68433997Y-60853261D01*
X68433988Y-60853258D01*
X68214197Y-60794366D01*
X68214193Y-60794365D01*
X68214192Y-60794365D01*
X68214191Y-60794364D01*
X68214186Y-60794364D01*
X67987502Y-60774532D01*
X67987498Y-60774532D01*
X67760813Y-60794364D01*
X67760802Y-60794366D01*
X67541011Y-60853258D01*
X67541002Y-60853261D01*
X67334767Y-60949431D01*
X67334765Y-60949432D01*
X67148358Y-61079954D01*
X66987454Y-61240858D01*
X66856932Y-61427265D01*
X66856931Y-61427267D01*
X66760761Y-61633502D01*
X66760758Y-61633511D01*
X66701866Y-61853302D01*
X66701864Y-61853313D01*
X66682032Y-62079998D01*
X66682032Y-62080001D01*
X63049218Y-62080001D01*
X63049218Y-62080000D01*
X63029385Y-61853308D01*
X62970489Y-61633504D01*
X62874318Y-61427266D01*
X62743797Y-61240861D01*
X62743795Y-61240858D01*
X62582891Y-61079954D01*
X62396484Y-60949432D01*
X62396482Y-60949431D01*
X62190247Y-60853261D01*
X62190238Y-60853258D01*
X61970447Y-60794366D01*
X61970443Y-60794365D01*
X61970442Y-60794365D01*
X61970441Y-60794364D01*
X61970436Y-60794364D01*
X61743752Y-60774532D01*
X61743748Y-60774532D01*
X61517063Y-60794364D01*
X61517052Y-60794366D01*
X61297261Y-60853258D01*
X61297252Y-60853261D01*
X61091017Y-60949431D01*
X61091015Y-60949432D01*
X60904608Y-61079954D01*
X60743704Y-61240858D01*
X60613182Y-61427265D01*
X60613181Y-61427267D01*
X60517011Y-61633502D01*
X60517008Y-61633511D01*
X60458116Y-61853302D01*
X60458114Y-61853313D01*
X60438282Y-62079998D01*
X60438282Y-62080001D01*
X56805468Y-62080001D01*
X56805468Y-62080000D01*
X56785635Y-61853308D01*
X56726739Y-61633504D01*
X56630568Y-61427266D01*
X56500047Y-61240861D01*
X56500045Y-61240858D01*
X56339141Y-61079954D01*
X56152734Y-60949432D01*
X56152732Y-60949431D01*
X55946497Y-60853261D01*
X55946488Y-60853258D01*
X55726697Y-60794366D01*
X55726693Y-60794365D01*
X55726692Y-60794365D01*
X55726691Y-60794364D01*
X55726686Y-60794364D01*
X55500002Y-60774532D01*
X55499998Y-60774532D01*
X55273313Y-60794364D01*
X55273302Y-60794366D01*
X55053511Y-60853258D01*
X55053502Y-60853261D01*
X54847267Y-60949431D01*
X54847265Y-60949432D01*
X54660858Y-61079954D01*
X54499954Y-61240858D01*
X54369432Y-61427265D01*
X54369431Y-61427267D01*
X54273261Y-61633502D01*
X54273258Y-61633511D01*
X54214366Y-61853302D01*
X54214364Y-61853313D01*
X54194532Y-62079998D01*
X54194532Y-62080001D01*
X49500500Y-62080001D01*
X49500500Y-52044334D01*
X53999499Y-52044334D01*
X54040429Y-52289616D01*
X54121169Y-52524802D01*
X54121172Y-52524811D01*
X54209883Y-52688734D01*
X54239526Y-52743509D01*
X54392262Y-52939744D01*
X54487847Y-53027736D01*
X54575217Y-53108166D01*
X54783393Y-53244173D01*
X55011118Y-53344063D01*
X55151336Y-53379571D01*
X55252179Y-53405108D01*
X55252181Y-53405108D01*
X55252186Y-53405109D01*
X55385376Y-53416145D01*
X55437933Y-53420500D01*
X55437935Y-53420500D01*
X74355580Y-53420500D01*
X74355585Y-53420500D01*
X74414483Y-53410670D01*
X74419559Y-53410038D01*
X74479071Y-53405108D01*
X74536972Y-53390445D01*
X74541958Y-53389400D01*
X74600864Y-53379571D01*
X74657346Y-53360179D01*
X74662234Y-53358723D01*
X74720131Y-53344063D01*
X74774810Y-53320077D01*
X74779573Y-53318218D01*
X74836060Y-53298828D01*
X74888577Y-53270405D01*
X74893170Y-53268159D01*
X74947857Y-53244173D01*
X74997843Y-53211515D01*
X75002233Y-53208898D01*
X75054759Y-53180474D01*
X75101899Y-53143782D01*
X75106045Y-53140822D01*
X75156035Y-53108164D01*
X75199970Y-53067717D01*
X75203863Y-53064419D01*
X75250994Y-53027738D01*
X75291456Y-52983783D01*
X75295033Y-52980206D01*
X75338988Y-52939744D01*
X75375669Y-52892613D01*
X75378972Y-52888715D01*
X75419414Y-52844785D01*
X75452072Y-52794795D01*
X75455032Y-52790649D01*
X75491724Y-52743509D01*
X75520148Y-52690983D01*
X75522765Y-52686593D01*
X75555422Y-52636608D01*
X75555423Y-52636607D01*
X75579409Y-52581920D01*
X75581656Y-52577327D01*
X75610078Y-52524810D01*
X75629468Y-52468323D01*
X75631327Y-52463560D01*
X75655313Y-52408881D01*
X75669973Y-52350984D01*
X75671431Y-52346092D01*
X75690821Y-52289614D01*
X75700650Y-52230708D01*
X75701695Y-52225722D01*
X75716358Y-52167821D01*
X75721288Y-52108309D01*
X75721922Y-52103225D01*
X75731750Y-52044335D01*
X75731750Y-51795665D01*
X75731750Y-51795664D01*
X75731750Y-40441640D01*
X75751435Y-40374601D01*
X75768069Y-40353959D01*
X77604900Y-38517129D01*
X77634055Y-38482704D01*
X77725366Y-38374894D01*
X77852656Y-38161274D01*
X77929138Y-37965265D01*
X77943046Y-37929623D01*
X77943048Y-37929616D01*
X77943049Y-37929614D01*
X77994081Y-37686237D01*
X78004357Y-37437779D01*
X77973598Y-37191019D01*
X77937375Y-37069347D01*
X77902644Y-36952685D01*
X77793433Y-36729291D01*
X77793429Y-36729284D01*
X77648930Y-36526901D01*
X77473098Y-36351069D01*
X77270715Y-36206570D01*
X77270708Y-36206566D01*
X77047314Y-36097355D01*
X76808985Y-36026403D01*
X76808981Y-36026402D01*
X76562221Y-35995643D01*
X76562218Y-35995643D01*
X76313765Y-36005918D01*
X76070383Y-36056951D01*
X76070376Y-36056953D01*
X75838729Y-36147342D01*
X75625107Y-36274633D01*
X75482871Y-36395100D01*
X73238838Y-38639132D01*
X73233077Y-38644221D01*
X73211506Y-38661012D01*
X73148299Y-38729672D01*
X73126352Y-38751619D01*
X73126348Y-38751624D01*
X73106283Y-38775314D01*
X73075891Y-38808328D01*
X73043084Y-38843966D01*
X73028142Y-38866837D01*
X73023547Y-38873000D01*
X73005885Y-38893854D01*
X72958110Y-38974028D01*
X72907078Y-39052140D01*
X72907074Y-39052147D01*
X72896103Y-39077159D01*
X72892585Y-39083994D01*
X72878598Y-39107467D01*
X72878593Y-39107476D01*
X72844670Y-39194413D01*
X72807185Y-39279873D01*
X72800476Y-39306366D01*
X72798131Y-39313685D01*
X72788203Y-39339129D01*
X72788198Y-39339145D01*
X72769051Y-39430461D01*
X72746142Y-39520925D01*
X72746140Y-39520935D01*
X72743885Y-39548158D01*
X72742776Y-39555766D01*
X72737170Y-39582500D01*
X72737169Y-39582513D01*
X72733312Y-39675759D01*
X72730750Y-39706686D01*
X72730750Y-39737714D01*
X72726892Y-39830969D01*
X72726892Y-39830970D01*
X72730273Y-39858092D01*
X72730750Y-39865768D01*
X72730750Y-50295500D01*
X72711065Y-50362539D01*
X72658261Y-50408294D01*
X72606750Y-50419500D01*
X55437933Y-50419500D01*
X55418521Y-50421108D01*
X55252186Y-50434890D01*
X55252175Y-50434892D01*
X55011118Y-50495936D01*
X54783393Y-50595826D01*
X54575217Y-50731833D01*
X54392261Y-50900257D01*
X54239524Y-51096493D01*
X54121172Y-51315188D01*
X54121169Y-51315197D01*
X54040429Y-51550383D01*
X53999499Y-51795665D01*
X53999499Y-52044334D01*
X49500500Y-52044334D01*
X49500500Y-37500000D01*
X55169939Y-37500000D01*
X55190145Y-37730958D01*
X55190147Y-37730968D01*
X55250148Y-37954900D01*
X55250152Y-37954909D01*
X55348132Y-38165029D01*
X55348133Y-38165031D01*
X55403023Y-38243422D01*
X55403023Y-38243423D01*
X55851482Y-37794964D01*
X55912805Y-37761479D01*
X55982496Y-37766463D01*
X56038430Y-37808334D01*
X56041514Y-37813249D01*
X56041549Y-37813225D01*
X56046441Y-37820156D01*
X56148669Y-37929614D01*
X56149638Y-37930652D01*
X56184698Y-37951973D01*
X56231749Y-38003623D01*
X56243407Y-38072513D01*
X56215970Y-38136770D01*
X56207950Y-38145601D01*
X55756575Y-38596975D01*
X55834968Y-38651866D01*
X55834970Y-38651867D01*
X56045090Y-38749847D01*
X56045099Y-38749851D01*
X56269031Y-38809852D01*
X56269041Y-38809854D01*
X56499999Y-38830061D01*
X56500001Y-38830061D01*
X56730958Y-38809854D01*
X56730968Y-38809852D01*
X56954900Y-38749851D01*
X56954909Y-38749847D01*
X57165030Y-38651867D01*
X57243423Y-38596975D01*
X56793166Y-38146718D01*
X56759681Y-38085395D01*
X56764665Y-38015703D01*
X56802588Y-37962853D01*
X56905739Y-37878934D01*
X56956052Y-37807655D01*
X57010793Y-37764239D01*
X57080318Y-37757310D01*
X57142553Y-37789068D01*
X57145037Y-37791484D01*
X57596975Y-38243423D01*
X57651867Y-38165030D01*
X57749847Y-37954909D01*
X57749851Y-37954900D01*
X57809852Y-37730968D01*
X57809854Y-37730958D01*
X57821896Y-37593317D01*
X58995774Y-37593317D01*
X59006791Y-37730958D01*
X59025545Y-37965270D01*
X59094685Y-38331947D01*
X59202404Y-38689191D01*
X59347491Y-39032970D01*
X59528291Y-39359370D01*
X59528294Y-39359374D01*
X59742769Y-39664713D01*
X59988484Y-39945525D01*
X60129524Y-40075727D01*
X60262656Y-40198629D01*
X60471731Y-40353959D01*
X60562177Y-40421155D01*
X60883655Y-40610584D01*
X61223447Y-40764769D01*
X61577702Y-40881963D01*
X61942408Y-40960838D01*
X62313431Y-41000500D01*
X62593211Y-41000500D01*
X62593213Y-41000500D01*
X62675835Y-40996096D01*
X62872594Y-40985610D01*
X62872598Y-40985609D01*
X62872608Y-40985609D01*
X63240995Y-40926256D01*
X63600986Y-40828083D01*
X63948502Y-40692201D01*
X64279606Y-40520150D01*
X64590547Y-40313880D01*
X64877800Y-40075727D01*
X65138113Y-39808391D01*
X65368534Y-39514899D01*
X65566454Y-39198578D01*
X65729630Y-38863011D01*
X65856212Y-38512000D01*
X65944768Y-38149524D01*
X65994293Y-37779688D01*
X66004226Y-37406683D01*
X65974455Y-37034735D01*
X65905316Y-36668059D01*
X65862753Y-36526901D01*
X65797595Y-36310808D01*
X65652508Y-35967029D01*
X65471708Y-35640629D01*
X65471705Y-35640625D01*
X65362465Y-35485105D01*
X65257231Y-35335287D01*
X65011516Y-35054475D01*
X64737345Y-34801372D01*
X64737343Y-34801370D01*
X64437833Y-34578852D01*
X64437830Y-34578850D01*
X64437823Y-34578845D01*
X64116345Y-34389416D01*
X63776553Y-34235231D01*
X63776549Y-34235229D01*
X63776543Y-34235227D01*
X63422302Y-34118038D01*
X63422289Y-34118035D01*
X63057595Y-34039162D01*
X63057588Y-34039161D01*
X62686569Y-33999500D01*
X62406787Y-33999500D01*
X62385723Y-34000622D01*
X62127405Y-34014389D01*
X62127379Y-34014392D01*
X61759007Y-34073743D01*
X61759004Y-34073744D01*
X61399013Y-34171917D01*
X61237089Y-34235231D01*
X61051498Y-34307799D01*
X61051496Y-34307799D01*
X61051496Y-34307800D01*
X60720398Y-34479847D01*
X60409458Y-34686116D01*
X60409449Y-34686122D01*
X60122211Y-34924263D01*
X60122196Y-34924277D01*
X59861888Y-35191607D01*
X59631469Y-35485095D01*
X59631462Y-35485105D01*
X59433548Y-35801416D01*
X59433546Y-35801421D01*
X59270367Y-36136994D01*
X59143786Y-36488004D01*
X59055232Y-36850472D01*
X59055231Y-36850480D01*
X59005708Y-37220305D01*
X59005706Y-37220321D01*
X59000744Y-37406683D01*
X58995774Y-37593317D01*
X57821896Y-37593317D01*
X57830061Y-37500000D01*
X57830061Y-37499999D01*
X57809854Y-37269041D01*
X57809852Y-37269031D01*
X57749851Y-37045099D01*
X57749847Y-37045090D01*
X57651868Y-36834972D01*
X57596974Y-36756576D01*
X57148517Y-37205034D01*
X57087194Y-37238519D01*
X57017502Y-37233535D01*
X56961569Y-37191663D01*
X56958486Y-37186750D01*
X56958451Y-37186775D01*
X56953558Y-37179843D01*
X56898661Y-37121064D01*
X56850362Y-37069348D01*
X56815300Y-37048026D01*
X56768248Y-36996374D01*
X56756591Y-36927484D01*
X56784029Y-36863227D01*
X56792048Y-36854397D01*
X57243423Y-36403023D01*
X57165031Y-36348133D01*
X57165029Y-36348132D01*
X56954909Y-36250152D01*
X56954900Y-36250148D01*
X56730968Y-36190147D01*
X56730958Y-36190145D01*
X56500001Y-36169939D01*
X56499999Y-36169939D01*
X56269041Y-36190145D01*
X56269031Y-36190147D01*
X56045099Y-36250148D01*
X56045090Y-36250152D01*
X55834971Y-36348132D01*
X55834969Y-36348133D01*
X55756577Y-36403024D01*
X55756576Y-36403024D01*
X56206833Y-36853280D01*
X56240318Y-36914603D01*
X56235334Y-36984294D01*
X56197408Y-37037148D01*
X56094262Y-37121064D01*
X56094258Y-37121069D01*
X56043947Y-37192343D01*
X55989204Y-37235760D01*
X55919679Y-37242689D01*
X55857444Y-37210930D01*
X55854962Y-37208515D01*
X55403024Y-36756576D01*
X55403024Y-36756577D01*
X55348133Y-36834969D01*
X55348132Y-36834971D01*
X55250152Y-37045090D01*
X55250148Y-37045099D01*
X55190147Y-37269031D01*
X55190145Y-37269041D01*
X55169939Y-37499999D01*
X55169939Y-37500000D01*
X49500500Y-37500000D01*
X49500500Y-24567763D01*
X73645787Y-24567763D01*
X73675413Y-24837013D01*
X73675415Y-24837024D01*
X73743926Y-25099082D01*
X73743928Y-25099088D01*
X73849870Y-25348390D01*
X73921998Y-25466575D01*
X73990979Y-25579605D01*
X73990986Y-25579615D01*
X74164253Y-25787819D01*
X74164259Y-25787824D01*
X74365998Y-25968582D01*
X74591910Y-26118044D01*
X74837176Y-26233020D01*
X74837183Y-26233022D01*
X74837185Y-26233023D01*
X75096557Y-26311057D01*
X75096564Y-26311058D01*
X75096569Y-26311060D01*
X75364561Y-26350500D01*
X75364566Y-26350500D01*
X75567636Y-26350500D01*
X75619133Y-26346730D01*
X75770156Y-26335677D01*
X75882758Y-26310593D01*
X76034546Y-26276782D01*
X76034548Y-26276781D01*
X76034553Y-26276780D01*
X76287558Y-26180014D01*
X76523777Y-26047441D01*
X76738177Y-25881888D01*
X76926186Y-25686881D01*
X77083799Y-25466579D01*
X77157787Y-25322669D01*
X77207649Y-25225690D01*
X77207651Y-25225684D01*
X77207656Y-25225675D01*
X77295118Y-24969305D01*
X77344319Y-24702933D01*
X77354212Y-24432235D01*
X77324586Y-24162982D01*
X77256072Y-23900912D01*
X77150130Y-23651610D01*
X77009018Y-23420390D01*
X76919747Y-23313119D01*
X76835746Y-23212180D01*
X76835740Y-23212175D01*
X76634002Y-23031418D01*
X76408092Y-22881957D01*
X76408090Y-22881956D01*
X76162824Y-22766980D01*
X76162819Y-22766978D01*
X76162814Y-22766976D01*
X75903442Y-22688942D01*
X75903428Y-22688939D01*
X75787791Y-22671921D01*
X75635439Y-22649500D01*
X75432369Y-22649500D01*
X75432364Y-22649500D01*
X75229844Y-22664323D01*
X75229831Y-22664325D01*
X74965453Y-22723217D01*
X74965446Y-22723220D01*
X74712439Y-22819987D01*
X74476226Y-22952557D01*
X74261822Y-23118112D01*
X74073822Y-23313109D01*
X74073816Y-23313116D01*
X73916202Y-23533419D01*
X73916199Y-23533424D01*
X73792350Y-23774309D01*
X73792343Y-23774327D01*
X73704884Y-24030685D01*
X73704881Y-24030699D01*
X73655681Y-24297068D01*
X73655680Y-24297075D01*
X73645787Y-24567763D01*
X49500500Y-24567763D01*
X49500500Y-20124500D01*
X49520185Y-20057461D01*
X49572989Y-20011706D01*
X49624500Y-20000500D01*
X80875500Y-20000500D01*
X80942539Y-20020185D01*
G37*
%TD.AperFunction*%
%TD*%
M02*
